<svg id="Layer_1" data-name="Layer 1" xmlns="http://www.w3.org/2000/svg" viewBox="0 0 64 64"><defs><style>.cls-1{fill:#013660;}.cls-2{fill:#d5e2e8;}</style></defs><circle class="cls-1" cx="32" cy="32" r="32"/><path class="cls-2" d="M32,35.28h-.32l-.16,0-.16,0-.16,0-.15,0-.15-.05-.15,0L30.6,35l-.14-.07-.14-.08-.14-.09-.13-.09-.13-.1-.12-.1-.12-.11-.11-.12-.1-.12a1.13,1.13,0,0,1-.1-.13l-.09-.13-.09-.14s-.05-.09-.08-.14-.05-.09-.07-.14L29,33.25a6181264102425.11,6181264102425.11,0,0,0-.1-.3l-.05-.15,0-.16,0-.16a.88.88,0,0,1,0-.16,5662517074363.61,5662517074363.61,0,0,0,0-.32.86.86,0,0,1,0-.16.81.81,0,0,1,0-.16.78.78,0,0,1,0-.16l0-.16,0-.16.05-.15a12362528204837.14,12362528204837.14,0,0,0,.1-.3L29,30.6c0-.05.05-.1.07-.14s.05-.1.08-.14l.09-.14.09-.13a1.13,1.13,0,0,1,.1-.13l.1-.12.11-.12.12-.11.12-.1.13-.1.13-.1.14-.08.14-.08L30.6,29l.15-.07.15,0,.15-.05.15-.05.16,0,.16,0,.16,0h.16a1.71,1.71,0,0,1,.32,0h.16l.16,0,.16,0,.16,0,.15.05.15.05.15,0,.15.07.14.07.14.08.14.08.13.1.13.1.12.1.12.11.11.12.1.12a1.13,1.13,0,0,1,.1.13,1,1,0,0,1,.09.13l.09.14s0,.09.08.14l.07.14.07.15a.88.88,0,0,1,0,.15l.06.15a.83.83,0,0,0,0,.15l0,.16,0,.16a.78.78,0,0,1,0,.16.81.81,0,0,1,0,.16,3.85,3.85,0,0,1,0,.48.88.88,0,0,1,0,.16l0,.16,0,.16a.83.83,0,0,0,0,.15l-.06.15a.88.88,0,0,1,0,.15L35,33.4l-.07.14c0,.05,0,.1-.08.14l-.09.14a1,1,0,0,1-.09.13,1.13,1.13,0,0,1-.1.13l-.1.12-.11.12-.12.11-.12.1-.13.1-.13.09-.14.09-.14.08L33.4,35l-.15.07-.15,0-.15.05-.15,0-.16,0-.16,0-.16,0H32Z"/><path class="cls-2" d="M38.8,34.62h-.26l-.12,0-.13,0-.13,0-.12,0-.12,0-.12,0-.12-.05-.11-.06-.12-.06-.1-.07-.11-.07-.1-.08-.1-.09L37,33.85l-.09-.09-.09-.1a.86.86,0,0,1-.07-.1l-.08-.1-.07-.11-.06-.12-.06-.11,0-.12-.05-.12a.56.56,0,0,0,0-.12l0-.12,0-.13a.5.5,0,0,1,0-.12s0-.09,0-.13,0-.09,0-.13v-.26s0-.09,0-.13,0-.08,0-.13a.5.5,0,0,1,0-.12l0-.13,0-.12a.56.56,0,0,0,0-.12l.05-.12,0-.12.06-.12.06-.11.07-.11.07-.1.08-.1.09-.1.09-.09.09-.09.1-.09.1-.08.11-.07.1-.07.12-.06.11-.06.12-.05.12,0,.12,0,.12,0,.13,0,.13,0,.12,0h.52l.13,0,.12,0,.13,0,.12,0,.12,0,.12,0,.12.05.12.06.11.06.11.07.1.07.1.08.1.09.09.09.09.09.09.1.08.1.07.1.07.11.06.11.06.12a.61.61,0,0,1,0,.12l.05.12s0,.08,0,.12l0,.12,0,.13a.5.5,0,0,1,0,.12.69.69,0,0,1,0,.13s0,.09,0,.13v.26s0,.08,0,.13a.69.69,0,0,1,0,.13.5.5,0,0,1,0,.12l0,.13,0,.12s0,.08,0,.12l-.05.12a.61.61,0,0,1,0,.12l-.06.11-.06.12-.07.11-.07.1-.08.1-.09.1-.09.09-.09.09-.1.09-.1.08-.1.07-.11.07-.11.06-.12.06-.12.05-.12,0-.12,0-.12,0-.13,0-.12,0-.13,0H38.8Z"/><path class="cls-2" d="M25.2,34.62h-.26l-.13,0-.12,0-.13,0-.12,0-.12,0-.12,0-.12-.05L24,34.31l-.12-.06-.11-.07-.1-.07-.1-.08-.1-.09-.09-.09a.76.76,0,0,1-.09-.09l-.09-.1-.08-.1-.07-.1L23,33.35l-.06-.12-.06-.11a.61.61,0,0,1,0-.12l-.05-.12s0-.08,0-.12l0-.12,0-.13a.5.5,0,0,1,0-.12.69.69,0,0,1,0-.13s0-.09,0-.13v-.26s0-.09,0-.13a.69.69,0,0,1,0-.13.5.5,0,0,1,0-.12l0-.13,0-.12s0-.08,0-.12l.05-.12a.61.61,0,0,1,0-.12l.06-.12.06-.11.07-.11.07-.1.08-.1.09-.1a.76.76,0,0,1,.09-.09l.09-.09.1-.09.1-.08.1-.07.11-.07.12-.06.11-.06.12-.05.12,0,.12,0,.12,0,.13,0,.12,0,.13,0h.52l.13,0,.12,0,.13,0,.12,0,.12,0,.12,0,.12.05.11.06.12.06.1.07.11.07.1.08.1.09.09.09.09.09.09.1.08.1.07.1.07.11.06.11.06.12.05.12.05.12s0,.08,0,.12l0,.12,0,.13a.5.5,0,0,1,0,.12c0,.05,0,.09,0,.13s0,.09,0,.13v.26s0,.08,0,.13,0,.08,0,.13a.5.5,0,0,1,0,.12l0,.13,0,.12s0,.08,0,.12l-.05.12-.05.12-.06.11-.06.12-.07.11-.07.1-.08.1-.09.1-.09.09-.09.09-.1.09-.1.08-.11.07-.1.07-.12.06-.11.06-.12.05-.12,0-.12,0-.12,0-.13,0-.12,0-.13,0H25.2Z"/><path class="cls-2" d="M32,27.82h-.26l-.13,0-.12,0-.13,0-.12,0-.12,0L31,27.62l-.12-.05-.11-.06-.12-.06-.11-.07-.1-.07-.1-.08-.1-.09-.09-.09L30.06,27l-.09-.1-.08-.1-.07-.11-.07-.1-.06-.12-.06-.11-.05-.12,0-.12,0-.12,0-.12,0-.13a.51.51,0,0,1,0-.13s0-.08,0-.12,0-.09,0-.13v-.26s0-.09,0-.13,0-.08,0-.13a.5.5,0,0,1,0-.12l0-.13,0-.12,0-.12,0-.12.05-.12.06-.12.06-.11.07-.11.07-.1.08-.1.09-.1.09-.1.09-.08.1-.09.1-.08.1-.07.11-.07.12-.06.11-.06.12,0,.12-.05.12,0,.12,0,.13,0,.12,0,.13,0h.52l.13,0,.12,0,.13,0,.12,0,.12,0,.12.05.12,0,.12.06.11.06.11.07.1.07.1.08.1.09.09.08.09.1.09.1.08.1.07.1.07.11.06.11.06.12a.61.61,0,0,1,.05.12l0,.12s0,.08,0,.12l0,.12,0,.13a.5.5,0,0,1,0,.12c0,.05,0,.09,0,.13s0,.09,0,.13v.26s0,.08,0,.13,0,.08,0,.12a.51.51,0,0,1,0,.13l0,.13,0,.12s0,.08,0,.12l0,.12a.61.61,0,0,1-.05.12l-.06.11-.06.12-.07.1-.07.11-.08.1-.09.1-.09.09-.09.09-.1.09-.1.08-.1.07-.11.07-.11.06-.12.06-.12.05-.12.05-.12,0-.12,0-.13,0-.12,0-.13,0H32Z"/><path class="cls-2" d="M32,41.42h-.26l-.13,0-.12,0-.13,0-.12,0-.12,0L31,41.22l-.12,0-.11-.06-.12-.06L30.54,41l-.1-.07-.1-.08-.1-.09-.09-.09-.09-.09-.09-.1-.08-.1-.07-.1-.07-.11L29.69,40l-.06-.12-.05-.12,0-.12,0-.12,0-.12,0-.13a.5.5,0,0,1,0-.12s0-.09,0-.13,0-.09,0-.13v-.26s0-.08,0-.13,0-.08,0-.13a.5.5,0,0,1,0-.12l0-.13,0-.12,0-.12,0-.12.05-.12.06-.12.06-.11.07-.11.07-.1.08-.1.09-.1.09-.09.09-.09.1-.09.1-.08.1-.07.11-.07.12-.06.11-.06.12,0,.12-.05.12,0,.12,0,.13,0,.12,0,.13,0h.52l.13,0,.12,0,.13,0,.12,0,.12,0,.12.05.12,0,.12.06.11.06.11.07.1.07.1.08.1.09.09.09.09.09.09.1.08.1.07.1.07.11.06.11.06.12a.61.61,0,0,1,.05.12l0,.12s0,.08,0,.12l0,.12,0,.13a.5.5,0,0,1,0,.12c0,.05,0,.09,0,.13s0,.09,0,.13v.26s0,.09,0,.13,0,.08,0,.13a.5.5,0,0,1,0,.12l0,.13,0,.12s0,.08,0,.12l0,.12a.61.61,0,0,1-.05.12l-.06.12-.06.11-.07.11-.07.1-.08.1-.09.1-.09.09-.09.09-.1.09-.1.08-.1.07-.11.07-.11.06-.12.06-.12,0-.12.05-.12,0-.12,0-.13,0-.12,0-.13,0H32Z"/><path class="cls-2" d="M38.14,27.82H38a.63.63,0,0,1-.19,0l-.19,0-.18-.07-.17-.08-.17-.1-.15-.11-.15-.13-.13-.15L36.51,27l-.1-.17a1.3,1.3,0,0,1-.08-.17,1.34,1.34,0,0,1-.07-.18c0-.07,0-.13,0-.19a.63.63,0,0,1,0-.19,1.28,1.28,0,0,1,0-.19,1.34,1.34,0,0,1,0-.2.63.63,0,0,1,0-.19c0-.06,0-.12,0-.19a1.34,1.34,0,0,1,.07-.18,1.3,1.3,0,0,1,.08-.17l.1-.17.11-.15.13-.15.15-.13.15-.11.17-.1.17-.08.18-.07.19,0a.63.63,0,0,1,.19,0h.39a.63.63,0,0,1,.19,0l.19,0,.18.07.17.08.17.1.15.11.15.13.13.15.11.15.1.17a1.3,1.3,0,0,1,.08.17,1.34,1.34,0,0,1,.07.18c0,.07,0,.13,0,.19a.63.63,0,0,1,0,.19,1.34,1.34,0,0,1,0,.2,1.28,1.28,0,0,1,0,.19.63.63,0,0,1,0,.19c0,.06,0,.12,0,.19a1.34,1.34,0,0,1-.07.18,1.3,1.3,0,0,1-.08.17l-.1.17-.11.15-.13.15-.15.13-.15.11-.17.1-.17.08-.18.07-.19,0a.63.63,0,0,1-.19,0Z"/><path class="cls-2" d="M38.14,40.11H38l-.19,0-.19,0L37.39,40l-.17-.08-.17-.1-.15-.12-.15-.13-.13-.14-.11-.15-.1-.17a1.3,1.3,0,0,1-.08-.17,1.34,1.34,0,0,1-.07-.18c0-.07,0-.13,0-.19a.63.63,0,0,1,0-.19,1.34,1.34,0,0,1,0-.2,1.28,1.28,0,0,1,0-.19.63.63,0,0,1,0-.19c0-.06,0-.12,0-.19a1.34,1.34,0,0,1,.07-.18.89.89,0,0,1,.08-.17l.1-.17.11-.15.13-.15.15-.13.15-.11.17-.1.17-.08.18-.07.19,0a.63.63,0,0,1,.19,0,1.27,1.27,0,0,1,.39,0,.63.63,0,0,1,.19,0l.19,0,.18.07.17.08.17.1.15.11.15.13.13.15.11.15.1.17a.89.89,0,0,1,.08.17,1.34,1.34,0,0,1,.07.18c0,.07,0,.13,0,.19a.63.63,0,0,1,0,.19,1.28,1.28,0,0,1,0,.19,1.34,1.34,0,0,1,0,.2.63.63,0,0,1,0,.19c0,.06,0,.12,0,.19a1.34,1.34,0,0,1-.07.18,1.3,1.3,0,0,1-.08.17l-.1.17-.11.15-.13.14-.15.13a1.58,1.58,0,0,1-.15.12l-.17.1L38.9,40l-.18.07-.19,0-.19,0Z"/><path class="cls-2" d="M25.86,27.82h-.2a.63.63,0,0,1-.19,0l-.19,0-.18-.07-.17-.08-.17-.1-.15-.11-.15-.13-.12-.15a1.58,1.58,0,0,1-.12-.15l-.1-.17a1.3,1.3,0,0,1-.08-.17L24,26.43c0-.07,0-.13,0-.19a1.25,1.25,0,0,1,0-.19,1.28,1.28,0,0,1,0-.19,1.34,1.34,0,0,1,0-.2,1.25,1.25,0,0,1,0-.19c0-.06,0-.12,0-.19L24,25.1a1.3,1.3,0,0,1,.08-.17l.1-.17a1.58,1.58,0,0,1,.12-.15l.12-.15.15-.13.15-.11.17-.1L25.1,24l.18-.07.19,0a.63.63,0,0,1,.19,0h.39a.63.63,0,0,1,.19,0l.19,0,.18.07.17.08.17.1.15.11.15.13.13.15.11.15.1.17a1.3,1.3,0,0,1,.08.17,1.34,1.34,0,0,1,.07.18c0,.07,0,.13,0,.19a.63.63,0,0,1,0,.19,1.34,1.34,0,0,1,0,.2,1.28,1.28,0,0,1,0,.19.63.63,0,0,1,0,.19c0,.06,0,.12,0,.19a1.34,1.34,0,0,1-.07.18,1.3,1.3,0,0,1-.08.17l-.1.17-.11.15-.13.15-.15.13-.15.11-.17.1-.17.08-.18.07-.19,0a.63.63,0,0,1-.19,0Z"/><path class="cls-2" d="M25.86,40.11h-.2l-.19,0-.19,0L25.1,40l-.17-.08-.17-.1a1.58,1.58,0,0,1-.15-.12l-.15-.13-.12-.14a1.58,1.58,0,0,1-.12-.15l-.1-.17A1.3,1.3,0,0,1,24,38.9L24,38.72c0-.07,0-.13,0-.19a1.25,1.25,0,0,1,0-.19,1.34,1.34,0,0,1,0-.2,1.28,1.28,0,0,1,0-.19,1.25,1.25,0,0,1,0-.19c0-.06,0-.12,0-.19l.07-.18a.89.89,0,0,1,.08-.17l.1-.17a1.58,1.58,0,0,1,.12-.15l.12-.15.15-.13.15-.11.17-.1.17-.08.18-.07.19,0a.63.63,0,0,1,.19,0,1.28,1.28,0,0,1,.39,0,.63.63,0,0,1,.19,0l.19,0,.18.07.17.08.17.1.15.11.15.13.13.15.11.15.1.17a.89.89,0,0,1,.08.17,1.34,1.34,0,0,1,.07.18c0,.07,0,.13,0,.19a.63.63,0,0,1,0,.19,1.28,1.28,0,0,1,0,.19,1.34,1.34,0,0,1,0,.2.63.63,0,0,1,0,.19c0,.06,0,.12,0,.19a1.34,1.34,0,0,1-.07.18,1.3,1.3,0,0,1-.08.17l-.1.17-.11.15-.13.14-.15.13a1.58,1.58,0,0,1-.15.12l-.17.1-.17.08-.18.07-.19,0-.19,0Z"/><path class="cls-2" d="M44.46,27.17h-.13l-.12,0L44,27.07l-.23-.13-.1-.07-.1-.09-.08-.09-.08-.11a.94.94,0,0,1-.12-.22,1.17,1.17,0,0,1-.07-.25.51.51,0,0,1,0-.13.49.49,0,0,1,0-.12.53.53,0,0,1,0-.13.51.51,0,0,1,0-.13,1,1,0,0,1,.07-.25.94.94,0,0,1,.12-.22l.08-.11.08-.09.1-.09.1-.08.23-.12.25-.07.12,0a1.13,1.13,0,0,1,.26,0l.13,0,.24.07.23.12.1.08.1.09a1.32,1.32,0,0,1,.38.93V26c0,.05,0,.09,0,.13a1.21,1.21,0,0,1-.08.25.94.94,0,0,1-.12.22l-.07.11-.09.09-.1.09-.1.07a1.71,1.71,0,0,1-.23.13l-.24.07-.13,0Z"/><path class="cls-2" d="M44.46,39.45h-.13l-.12,0L44,39.36l-.23-.13-.1-.07-.1-.09L43.45,39l-.08-.11a.94.94,0,0,1-.12-.22,1.17,1.17,0,0,1-.07-.25.51.51,0,0,1,0-.13.53.53,0,0,1,0-.13.49.49,0,0,1,0-.12.51.51,0,0,1,0-.13,1,1,0,0,1,.07-.25.94.94,0,0,1,.12-.22l.08-.11.08-.09.1-.09.1-.08.23-.12.25-.07.12,0a1.13,1.13,0,0,1,.26,0l.13,0,.24.07.23.12.1.08.1.09.09.09.07.11a.94.94,0,0,1,.12.22,1,1,0,0,1,.08.25s0,.08,0,.13v.25s0,.09,0,.13a1.21,1.21,0,0,1-.08.25.94.94,0,0,1-.12.22l-.07.11-.09.09-.1.09-.1.07a1.71,1.71,0,0,1-.23.13l-.24.07-.13,0Z"/><path class="cls-2" d="M19.54,27.17h-.13l-.13,0L19,27.07a1.71,1.71,0,0,1-.23-.13l-.1-.07-.1-.09-.09-.09-.07-.11a.94.94,0,0,1-.12-.22,1.21,1.21,0,0,1-.08-.25s0-.08,0-.13v-.25c0-.05,0-.09,0-.13a1,1,0,0,1,.08-.25.94.94,0,0,1,.12-.22l.07-.11.09-.09.1-.09.1-.08.23-.12.24-.07.13,0a1.13,1.13,0,0,1,.26,0l.12,0,.25.07.23.12.1.08.1.09.08.09.08.11a.94.94,0,0,1,.12.22,1,1,0,0,1,.07.25.51.51,0,0,1,0,.13.53.53,0,0,1,0,.13.49.49,0,0,1,0,.12.51.51,0,0,1,0,.13,1.17,1.17,0,0,1-.07.25.94.94,0,0,1-.12.22l-.08.11-.08.09-.1.09-.1.07-.23.13-.25.07-.12,0Z"/><path class="cls-2" d="M19.54,39.46h-.13l-.13,0L19,39.36a1.71,1.71,0,0,1-.23-.13l-.1-.07-.1-.09L18.52,39l-.07-.11a.94.94,0,0,1-.12-.22,1.21,1.21,0,0,1-.08-.25s0-.08,0-.13V38c0-.05,0-.09,0-.13a1,1,0,0,1,.08-.25.94.94,0,0,1,.12-.22l.07-.11.09-.09.1-.09.1-.08.23-.12.24-.07.13,0a1.31,1.31,0,0,1,1.06.38l.08.09.08.11a.94.94,0,0,1,.12.22,1,1,0,0,1,.07.25.51.51,0,0,1,0,.13.49.49,0,0,1,0,.12.53.53,0,0,1,0,.13.51.51,0,0,1,0,.13,1.17,1.17,0,0,1-.07.25.94.94,0,0,1-.12.22l-.08.11-.08.09-.1.09-.1.07-.23.13-.25.07-.12,0Z"/><path class="cls-2" d="M38.56,20.61h-.13l-.13,0-.24-.07-.23-.12-.1-.08-.1-.09-.08-.09a.76.76,0,0,1-.08-.11.94.94,0,0,1-.12-.22,1.83,1.83,0,0,1-.08-.25s0-.08,0-.12a.62.62,0,0,1,0-.13.53.53,0,0,1,0-.13c0-.05,0-.09,0-.13a1.69,1.69,0,0,1,.08-.24,1,1,0,0,1,.12-.23,2111288259139.52,2111288259139.52,0,0,1,.16-.2l.1-.09.1-.07a1,1,0,0,1,.23-.12A1.13,1.13,0,0,1,38.3,18l.13,0h.26l.13,0a1.13,1.13,0,0,1,.24.08,1,1,0,0,1,.23.12l.1.07.1.09a7389508906987.84,7389508906987.84,0,0,1,.16.2,1,1,0,0,1,.12.23,1,1,0,0,1,.07.24.51.51,0,0,1,0,.13.53.53,0,0,1,0,.13.62.62,0,0,1,0,.13.5.5,0,0,1,0,.12,1,1,0,0,1-.07.25.94.94,0,0,1-.12.22.76.76,0,0,1-.08.11l-.08.09-.1.09-.1.08-.23.12-.24.07-.13,0Z"/><path class="cls-2" d="M25.44,20.61h-.13l-.13,0-.24-.07-.23-.12-.1-.08-.1-.09-.08-.09a.76.76,0,0,1-.08-.11.94.94,0,0,1-.12-.22,1,1,0,0,1-.07-.25.5.5,0,0,1,0-.12.62.62,0,0,1,0-.13.53.53,0,0,1,0-.13.51.51,0,0,1,0-.13,1,1,0,0,1,.07-.24,1,1,0,0,1,.12-.23.39.39,0,0,1,.08-.1l.08-.1.1-.09.1-.07a1,1,0,0,1,.23-.12,1.13,1.13,0,0,1,.24-.08l.13,0a1.35,1.35,0,0,1,1.06.38,29558035627951.77,29558035627951.77,0,0,0,.16.2,1,1,0,0,1,.12.23,1.69,1.69,0,0,1,.08.24s0,.08,0,.13v.26s0,.08,0,.12a1.83,1.83,0,0,1-.08.25.94.94,0,0,1-.12.22.76.76,0,0,1-.08.11l-.08.09-.1.09-.1.08-.23.12-.24.07-.13,0Z"/><path class="cls-2" d="M38.56,46h-.13l-.13,0a1.13,1.13,0,0,1-.24-.08,1,1,0,0,1-.23-.12l-.1-.07-.1-.09-.08-.09a.76.76,0,0,1-.08-.11,1.19,1.19,0,0,1-.12-.22,2.41,2.41,0,0,1-.08-.25s0-.09,0-.13a.53.53,0,0,1,0-.13.62.62,0,0,1,0-.13s0-.08,0-.12a1.83,1.83,0,0,1,.08-.25.94.94,0,0,1,.12-.22.76.76,0,0,1,.08-.11l.08-.09.1-.09.1-.08.23-.12.24-.07.13,0h.26l.13,0,.24.07.23.12.1.08.1.09.08.09a.76.76,0,0,1,.08.11.94.94,0,0,1,.12.22,1,1,0,0,1,.07.25.5.5,0,0,1,0,.12.62.62,0,0,1,0,.13.53.53,0,0,1,0,.13.59.59,0,0,1,0,.13,1.17,1.17,0,0,1-.07.25,1.19,1.19,0,0,1-.12.22.76.76,0,0,1-.08.11l-.08.09-.1.09-.1.07a1,1,0,0,1-.23.12,1.13,1.13,0,0,1-.24.08l-.13,0Z"/><path class="cls-2" d="M25.44,46h-.13l-.13,0a1.13,1.13,0,0,1-.24-.08,1,1,0,0,1-.23-.12l-.1-.07-.1-.09-.08-.1a.39.39,0,0,1-.08-.1,1.19,1.19,0,0,1-.12-.22,1.17,1.17,0,0,1-.07-.25.59.59,0,0,1,0-.13.53.53,0,0,1,0-.13.62.62,0,0,1,0-.13.5.5,0,0,1,0-.12,1,1,0,0,1,.07-.25.94.94,0,0,1,.12-.22.76.76,0,0,1,.08-.11l.08-.09.1-.09.1-.08.23-.12.24-.07.13,0a1.31,1.31,0,0,1,1.06.38l.08.09a.76.76,0,0,1,.08.11.94.94,0,0,1,.12.22,1.83,1.83,0,0,1,.08.25s0,.08,0,.12v.26s0,.09,0,.13a2.41,2.41,0,0,1-.08.25,1.19,1.19,0,0,1-.12.22,5911607125590.29,5911607125590.29,0,0,0-.16.2l-.1.09-.1.07a1,1,0,0,1-.23.12,1.13,1.13,0,0,1-.24.08l-.13,0Z"/><path class="cls-2" d="M32,47.33h-.19l-.19,0-.19,0-.18-.07-.18-.08-.16-.1a.91.91,0,0,1-.16-.11l-.14-.13-.13-.14-.11-.16a1,1,0,0,1-.1-.17l-.09-.17-.06-.18a1.05,1.05,0,0,1-.05-.19l0-.19c0-.06,0-.13,0-.19s0-.13,0-.19l0-.19a1.05,1.05,0,0,1,.05-.19l.06-.18.09-.18a1.4,1.4,0,0,1,.1-.16.91.91,0,0,1,.11-.16.86.86,0,0,1,.13-.14l.14-.13.16-.12.16-.09.18-.09.18-.06.19,0,.19,0h.38l.19,0,.19,0,.18.06.18.09.16.09.16.12a2.58,2.58,0,0,1,.27.27l.12.16.09.16.09.18.06.18a1.05,1.05,0,0,1,0,.19l0,.19c0,.06,0,.13,0,.19s0,.13,0,.19l0,.19a1.05,1.05,0,0,1,0,.19l-.06.18-.09.17-.09.17-.12.16-.13.14a.86.86,0,0,1-.14.13.91.91,0,0,1-.16.11l-.16.1-.18.08-.18.07-.19,0-.19,0Z"/><path class="cls-2" d="M32,20.61h-.19l-.19,0-.19-.05-.18-.06-.18-.09-.16-.1a.91.91,0,0,1-.16-.11L30.61,20l-.13-.14a.91.91,0,0,1-.11-.16,1.4,1.4,0,0,1-.1-.16l-.09-.18-.06-.18a1.05,1.05,0,0,1-.05-.19l0-.19c0-.06,0-.13,0-.19s0-.13,0-.19l0-.19a1.05,1.05,0,0,1,.05-.19l.06-.18.09-.18a1.4,1.4,0,0,1,.1-.16.91.91,0,0,1,.11-.16.86.86,0,0,1,.13-.14l.14-.13.16-.12.16-.09.18-.09.18-.06.19-.05.19,0h.38l.19,0,.19.05.18.06.18.09.16.09.16.12a2.58,2.58,0,0,1,.27.27l.12.16.09.16.09.18.06.18a1.05,1.05,0,0,1,0,.19l0,.19c0,.06,0,.13,0,.19s0,.13,0,.19l0,.19a1.05,1.05,0,0,1,0,.19l-.06.18-.09.18-.09.16-.12.16-.13.14a.86.86,0,0,1-.14.13.91.91,0,0,1-.16.11l-.16.1-.18.09-.18.06-.19.05-.19,0Z"/><path class="cls-2" d="M45.36,34h-.19l-.19,0-.19,0-.18-.06-.18-.09-.16-.1a.91.91,0,0,1-.16-.11L44,33.39l-.13-.14-.12-.16-.09-.16-.09-.18-.06-.18a1.05,1.05,0,0,1,0-.19l0-.19c0-.06,0-.13,0-.19s0-.13,0-.19l0-.19a1.05,1.05,0,0,1,0-.19l.06-.18.09-.18.09-.16.12-.16a2.58,2.58,0,0,1,.27-.27l.16-.12.16-.09.18-.09.18-.06.19-.05.19,0h.38l.19,0,.19.05.18.06.18.09.16.09.16.12.14.13a.86.86,0,0,1,.13.14.91.91,0,0,1,.11.16,1.4,1.4,0,0,1,.1.16l.09.18.06.18a1.05,1.05,0,0,1,0,.19l0,.19c0,.06,0,.13,0,.19s0,.13,0,.19l0,.19a1.05,1.05,0,0,1,0,.19l-.06.18-.09.18a1.4,1.4,0,0,1-.1.16l-.11.16-.13.14-.14.13-.16.11-.16.1-.18.09-.18.06-.19,0-.19,0Z"/><path class="cls-2" d="M18.64,34h-.19l-.19,0-.19,0-.18-.06-.18-.09-.16-.1-.16-.11-.14-.13-.13-.14L17,33.09a1.4,1.4,0,0,1-.1-.16l-.09-.18-.06-.18c0-.06,0-.12-.05-.19l0-.19c0-.06,0-.13,0-.19s0-.13,0-.19l0-.19c0-.07,0-.13.05-.19l.06-.18.09-.18a1.4,1.4,0,0,1,.1-.16.91.91,0,0,1,.11-.16l.13-.14.14-.13.16-.12.16-.09.18-.09.18-.06.19-.05.19,0h.38l.2,0,.18.05.18.06.18.09.16.09.16.12a2.58,2.58,0,0,1,.27.27l.12.16.09.16.09.18.06.18a1.05,1.05,0,0,1,.05.19l0,.19c0,.06,0,.13,0,.19s0,.13,0,.19l0,.19a1.05,1.05,0,0,1-.05.19l-.06.18-.09.18-.09.16-.12.16-.13.14a.86.86,0,0,1-.14.13.91.91,0,0,1-.16.11l-.16.1-.18.09-.18.06-.18,0-.2,0Z"/><path class="cls-2" d="M43.81,44.7a.65.65,0,0,1-.66-.65.68.68,0,0,1,.19-.47.67.67,0,0,1,.59-.18l.13,0,.11.06.1.08a.7.7,0,0,1,.19.47.65.65,0,0,1-.65.65Z"/><path class="cls-2" d="M20.19,44.7h-.12l-.13,0a.3.3,0,0,1-.11-.06.58.58,0,0,1-.18-.18l-.06-.11a.56.56,0,0,1,0-.12.62.62,0,0,1,0-.13.53.53,0,0,1,0-.13.56.56,0,0,1,0-.12l.06-.12.08-.1.1-.08.11-.06.13,0h.25l.13,0,.11.06.1.08.08.1.06.12a.56.56,0,0,1,0,.12s0,.08,0,.13,0,.08,0,.13a.56.56,0,0,1,0,.12l-.06.11a.39.39,0,0,1-.08.1l-.1.08-.11.06-.13,0Z"/><path class="cls-2" d="M43.81,20.61a.67.67,0,0,1-.47-.19l-.08-.1-.06-.12a.56.56,0,0,1,0-.12s0-.09,0-.13,0-.08,0-.13a.56.56,0,0,1,0-.12l.06-.11.08-.1.1-.08a.34.34,0,0,1,.12-.06l.12,0a.53.53,0,0,1,.25,0l.13,0a.24.24,0,0,1,.11.06.58.58,0,0,1,.18.18l.06.11a.56.56,0,0,1,0,.12.62.62,0,0,1,0,.13.57.57,0,0,1,0,.13.56.56,0,0,1,0,.12l-.06.12-.08.1A.66.66,0,0,1,43.81,20.61Z"/><path class="cls-2" d="M20.19,20.61a.66.66,0,0,1-.46-.19l-.08-.1-.06-.12a.56.56,0,0,1,0-.12.57.57,0,0,1,0-.13.66.66,0,0,1,.19-.46.39.39,0,0,1,.1-.08.3.3,0,0,1,.11-.06l.13,0a.53.53,0,0,1,.25,0l.13,0,.11.06.1.08a.66.66,0,0,1,.19.46s0,.09,0,.13a.56.56,0,0,1,0,.12l-.06.12-.08.1A.67.67,0,0,1,20.19,20.61Z"/><path class="cls-2" d="M32,50.93a.32.32,0,0,1-.23-.09.34.34,0,0,1-.1-.23.37.37,0,0,1,.1-.24.34.34,0,0,1,.46,0,.37.37,0,0,1,.1.24.34.34,0,0,1-.1.23A.32.32,0,0,1,32,50.93Z"/><path class="cls-2" d="M38.56,50.93h-.07l-.06,0,0,0-.05,0a.34.34,0,0,1-.1-.23.17.17,0,0,1,0-.07.14.14,0,0,1,0-.06.09.09,0,0,1,0-.06l0-.05.05,0,0,0h.06a.33.33,0,0,1,.3.08l0,.05,0,.06a.14.14,0,0,1,0,.06.17.17,0,0,1,0,.07.34.34,0,0,1-.1.23A.32.32,0,0,1,38.56,50.93Z"/><path class="cls-2" d="M25.44,50.93h-.06l-.06,0-.06,0-.05,0a.34.34,0,0,1-.1-.23s0,0,0-.07a.14.14,0,0,1,0-.06l0-.06,0-.05.05,0,.06,0h.06a.31.31,0,0,1,.29.08l0,.05a.09.09,0,0,1,0,.06.14.14,0,0,1,0,.06.17.17,0,0,1,0,.07.34.34,0,0,1-.1.23A.32.32,0,0,1,25.44,50.93Z"/><path class="cls-2" d="M50.36,25.53H50.3l-.06,0-.06,0,0,0A.32.32,0,0,1,50,25.2v-.06a.64.64,0,0,1,0-.07l0-.05,0-.05,0,0a.09.09,0,0,1,.06,0l.06,0a.33.33,0,0,1,.3.09l0,.05,0,.05a.64.64,0,0,1,0,.07v.06a.32.32,0,0,1-.09.23A.35.35,0,0,1,50.36,25.53Z"/><path class="cls-2" d="M50.36,39.13H50.3l-.06,0-.06,0,0,0,0-.05,0,0a.64.64,0,0,1,0-.07v-.12s0-.05,0-.06l0-.06,0,0,0,0,.06,0,.06,0h.13l.06,0,.06,0,.05,0,0,0,0,.06s0,0,0,.06v.12a.64.64,0,0,1,0,.07l0,0,0,.05-.05,0-.06,0-.06,0Z"/><path class="cls-2" d="M50.61,32.33h-.07l-.06,0,0,0a.1.1,0,0,1,0,0,.31.31,0,0,1,0-.46.1.1,0,0,1,0,0l0,0,.06,0h.13l.06,0,.06,0,.05,0a.34.34,0,0,1,0,.46l-.05,0-.06,0-.06,0Z"/><path class="cls-2" d="M38.56,13.72a.29.29,0,0,1-.23-.1.33.33,0,0,1-.1-.23.34.34,0,0,1,.1-.23.34.34,0,0,1,.46,0,.34.34,0,0,1,.1.23.33.33,0,0,1-.1.23A.29.29,0,0,1,38.56,13.72Z"/><path class="cls-2" d="M25.44,13.72h-.12l-.06,0s0,0-.05-.05a.33.33,0,0,1-.1-.23s0,0,0-.06a.14.14,0,0,1,0-.06l0-.06,0-.05.05,0,.06,0,.06,0a.31.31,0,0,1,.29.09l0,.05a.09.09,0,0,1,0,.06.14.14,0,0,1,0,.06.13.13,0,0,1,0,.06.33.33,0,0,1-.1.23A.29.29,0,0,1,25.44,13.72Z"/><path class="cls-2" d="M32,13.72a.29.29,0,0,1-.23-.1.1.1,0,0,1,0,0l0-.05a.14.14,0,0,1,0-.06.17.17,0,0,1,0-.07.13.13,0,0,1,0-.06.14.14,0,0,1,0-.06l0-.06,0-.05a.34.34,0,0,1,.46,0l0,.05,0,.06a.14.14,0,0,1,0,.06.13.13,0,0,1,0,.06.17.17,0,0,1,0,.07.14.14,0,0,1,0,.06l0,.05a.1.1,0,0,1,0,0A.29.29,0,0,1,32,13.72Z"/><path class="cls-2" d="M13.64,25.53h-.07l-.06,0-.06,0,0,0a.32.32,0,0,1-.09-.23v-.06a.64.64,0,0,1,0-.07l0-.05,0-.05a.33.33,0,0,1,.3-.09l.06,0a.09.09,0,0,1,.06,0l0,0,0,.05,0,.05a.64.64,0,0,1,0,.07v.06a.32.32,0,0,1-.09.23l0,0-.06,0-.06,0Z"/><path class="cls-2" d="M13.64,39.13h-.07l-.06,0-.06,0,0,0a.34.34,0,0,1,0-.46.33.33,0,0,1,.3-.09l.06,0,.06,0,0,0a.34.34,0,0,1,0,.46l0,0-.06,0-.06,0Z"/><path class="cls-2" d="M13.39,32.33h-.06l-.06,0-.06,0-.05,0,0,0,0,0a.64.64,0,0,1,0-.07v-.12a.64.64,0,0,1,0-.07l0-.05,0-.05a.34.34,0,0,1,.46,0l.05.05,0,.05s0,0,0,.07a.13.13,0,0,1,0,.06.29.29,0,0,1-.1.23A.33.33,0,0,1,13.39,32.33Z"/></svg>