<svg width="48" height="48" viewBox="0 0 48 48" fill="none" xmlns="http://www.w3.org/2000/svg">
<g clip-path="url(#clip0_4903_6524)">
<g clip-path="url(#clip1_4903_6524)">
<path d="M34.9584 31.6595C34.9584 32.312 34.7649 32.9499 34.4024 33.4924C34.0399 34.035 33.5247 34.4578 32.9218 34.7075C32.319 34.9573 31.6556 35.0226 31.0156 34.8953C30.3757 34.768 29.7878 34.4538 29.3264 33.9924C28.865 33.531 28.5508 32.9431 28.4235 32.3031C28.2962 31.6632 28.3615 30.9998 28.6112 30.397C28.8609 29.7941 29.2838 29.2789 29.8264 28.9164C30.3689 28.5538 31.0068 28.3604 31.6593 28.3604C32.5337 28.3622 33.3718 28.7104 33.9901 29.3287C34.6084 29.947 34.9566 30.7851 34.9584 31.6595Z" fill="#013660"/>
<path d="M19.7386 31.6595C19.7386 32.312 19.5451 32.9499 19.1826 33.4924C18.8201 34.035 18.3048 34.4578 17.702 34.7075C17.0991 34.9573 16.4358 35.0226 15.7958 34.8953C15.1558 34.768 14.568 34.4538 14.1066 33.9924C13.6452 33.531 13.331 32.9431 13.2037 32.3031C13.0764 31.6632 13.1417 30.9998 13.3914 30.397C13.6411 29.7941 14.064 29.2789 14.6065 28.9164C15.1491 28.5538 15.7869 28.3604 16.4394 28.3604C17.3138 28.3622 18.1519 28.7104 18.7702 29.3287C19.3885 29.947 19.7367 30.7851 19.7386 31.6595Z" fill="#013660"/>
<path d="M34.8879 16.3407C34.8893 16.9949 34.6966 17.6348 34.3342 18.1794C33.9717 18.724 33.4559 19.1489 32.8518 19.4002C32.2478 19.6516 31.5828 19.718 30.941 19.5913C30.2992 19.4645 29.7095 19.1502 29.2464 18.6881C28.7833 18.226 28.4677 17.6369 28.3396 16.9953C28.2114 16.3538 28.2765 15.6887 28.5265 15.0841C28.7765 14.4796 29.2003 13.9628 29.7442 13.5992C30.288 13.2356 30.9275 13.0415 31.5817 13.0415C32.4574 13.0415 33.2972 13.3889 33.9171 14.0074C34.5369 14.6259 34.8861 15.465 34.8879 16.3407Z" fill="#013660"/>
<path d="M19.6398 16.3407C19.6398 16.9932 19.4463 17.631 19.0838 18.1736C18.7213 18.7161 18.206 19.139 17.6032 19.3887C17.0004 19.6384 16.337 19.7037 15.697 19.5764C15.0571 19.4491 14.4692 19.1349 14.0078 18.6735C13.5464 18.2121 13.2322 17.6243 13.1049 16.9843C12.9776 16.3443 13.0429 15.681 13.2926 15.0781C13.5423 14.4753 13.9652 13.96 14.5078 13.5975C15.0503 13.235 15.6882 13.0415 16.3407 13.0415C17.2151 13.0434 18.0532 13.3916 18.6715 14.0099C19.2898 14.6282 19.638 15.4662 19.6398 16.3407Z" fill="#013660"/>
<path d="M42.0149 23.9685C42.0149 24.5025 41.8566 25.0245 41.5599 25.4685C41.2632 25.9125 40.8415 26.2586 40.3482 26.463C39.8548 26.6673 39.312 26.7208 38.7882 26.6166C38.2645 26.5124 37.7834 26.2553 37.4058 25.8777C37.0282 25.5001 36.771 25.019 36.6669 24.4953C36.5627 23.9715 36.6162 23.4286 36.8205 22.9353C37.0249 22.4419 37.3709 22.0203 37.8149 21.7236C38.2589 21.4269 38.7809 21.2686 39.3149 21.2686C39.6698 21.2676 40.0213 21.3368 40.3493 21.4722C40.6773 21.6075 40.9753 21.8064 41.2262 22.0573C41.4771 22.3082 41.6759 22.6062 41.8113 22.9342C41.9466 23.2622 42.0158 23.6137 42.0149 23.9685Z" fill="#013660"/>
<path d="M11.385 23.9685C11.3863 24.5042 11.2288 25.0283 10.9322 25.4744C10.6356 25.9205 10.2133 26.2685 9.71877 26.4745C9.22425 26.6805 8.67974 26.7351 8.15417 26.6314C7.6286 26.5278 7.1456 26.2705 6.76631 25.8922C6.38702 25.5139 6.1285 25.0316 6.02348 24.5063C5.91846 23.981 5.97165 23.4363 6.17633 22.9413C6.38101 22.4462 6.72797 22.023 7.17328 21.7253C7.6186 21.4275 8.14225 21.2686 8.67795 21.2686C9.0331 21.2676 9.38495 21.3368 9.71334 21.4721C10.0417 21.6073 10.3402 21.8061 10.5917 22.0569C10.8431 22.3077 11.0426 22.6056 11.1788 22.9337C11.3149 23.2617 11.385 23.6134 11.385 23.9685Z" fill="#013660"/>
<path d="M28.2896 23.9681C28.3021 24.8186 28.0617 25.6536 27.5989 26.3673C27.1362 27.0809 26.4718 27.641 25.6902 27.9765C24.9086 28.312 24.0449 28.4078 23.2088 28.2516C22.3726 28.0955 21.6017 27.6945 20.9939 27.0995C20.386 26.5045 19.9686 25.7424 19.7946 24.9098C19.6205 24.0772 19.6977 23.2117 20.0164 22.4231C20.3351 21.6344 20.8808 20.9582 21.5844 20.4802C22.2879 20.0023 23.1177 19.7441 23.9682 19.7384C25.1008 19.7308 26.1905 20.1711 26.9999 20.9634C27.8093 21.7556 28.2728 22.8356 28.2896 23.9681Z" fill="#013660"/>
<path d="M48 23.9685C48.0112 24.2604 47.935 24.5489 47.7812 24.7972C47.6274 25.0454 47.4029 25.2421 47.1366 25.362C46.8703 25.4819 46.5742 25.5195 46.2864 25.47C45.9985 25.4205 45.732 25.2862 45.521 25.0843C45.31 24.8824 45.1641 24.622 45.102 24.3366C45.0399 24.0512 45.0645 23.7538 45.1725 23.4825C45.2805 23.2111 45.4671 22.9782 45.7084 22.8136C45.9497 22.649 46.2346 22.5602 46.5266 22.5586C46.9072 22.5565 47.2736 22.7024 47.5485 22.9655C47.8235 23.2286 47.9854 23.5883 48 23.9685Z" fill="#013660"/>
<path d="M2.92552 23.9685C2.93678 24.261 2.86026 24.5501 2.70582 24.7987C2.55138 25.0473 2.32608 25.244 2.05892 25.3634C1.79176 25.4829 1.49495 25.5197 1.2067 25.4691C0.91845 25.4185 0.651941 25.2827 0.44147 25.0794C0.230999 24.876 0.0861954 24.6144 0.0256937 24.328C-0.034808 24.0417 -0.00823965 23.7438 0.10198 23.4727C0.212199 23.2016 0.401027 22.9696 0.644163 22.8067C0.887299 22.6438 1.17362 22.5574 1.46628 22.5586C1.84437 22.5601 2.20725 22.7077 2.47916 22.9704C2.75107 23.2331 2.91099 23.5907 2.92552 23.9685Z" fill="#013660"/>
<path d="M35.2826 23.9684C35.2826 24.6962 35.0668 25.4077 34.6625 26.0128C34.2581 26.618 33.6834 27.0896 33.011 27.3681C32.3386 27.6467 31.5987 27.7195 30.8849 27.5775C30.1711 27.4356 29.5154 27.0851 29.0008 26.5705C28.4861 26.0558 28.1357 25.4001 27.9937 24.6863C27.8517 23.9725 27.9246 23.2326 28.2031 22.5602C28.4816 21.8878 28.9533 21.3131 29.5584 20.9087C30.1636 20.5044 30.875 20.2886 31.6028 20.2886C32.0863 20.2877 32.5652 20.3822 33.0121 20.5668C33.459 20.7514 33.865 21.0224 34.2069 21.3643C34.5488 21.7062 34.8198 22.1122 35.0044 22.5591C35.189 23.006 35.2836 23.4849 35.2826 23.9684Z" fill="#013660"/>
<path d="M20.0699 23.9684C20.0699 24.6962 19.8541 25.4077 19.4497 26.0128C19.0454 26.618 18.4707 27.0896 17.7983 27.3681C17.1259 27.6467 16.386 27.7195 15.6721 27.5775C14.9583 27.4356 14.3026 27.0851 13.788 26.5705C13.2734 26.0558 12.9229 25.4001 12.7809 24.6863C12.6389 23.9725 12.7118 23.2326 12.9903 22.5602C13.2688 21.8878 13.7405 21.3131 14.3456 20.9087C14.9508 20.5044 15.6622 20.2886 16.39 20.2886C16.8735 20.2877 17.3525 20.3822 17.7994 20.5668C18.2462 20.7514 18.6523 21.0224 18.9942 21.3643C19.336 21.7062 19.6071 22.1122 19.7917 22.5591C19.9763 23.006 20.0708 23.4849 20.0699 23.9684Z" fill="#013660"/>
<path d="M23.9683 12.689C24.6961 12.689 25.4075 12.9048 26.0127 13.3091C26.6178 13.7135 27.0895 14.2882 27.368 14.9606C27.6465 15.633 27.7194 16.3729 27.5774 17.0867C27.4354 17.8005 27.085 18.4562 26.5703 18.9708C26.0557 19.4855 25.4 19.8359 24.6862 19.9779C23.9724 20.1199 23.2325 20.047 22.5601 19.7685C21.8877 19.49 21.313 19.0184 20.9086 18.4132C20.5043 17.8081 20.2885 17.0966 20.2885 16.3688C20.2885 15.3928 20.6761 14.4569 21.3663 13.7668C22.0564 13.0767 22.9923 12.689 23.9683 12.689Z" fill="#013660"/>
<path d="M23.9683 27.9229C24.6961 27.9229 25.4075 28.1387 26.0127 28.543C26.6178 28.9474 27.0895 29.5221 27.368 30.1945C27.6465 30.8669 27.7194 31.6068 27.5774 32.3206C27.4354 33.0344 27.085 33.6901 26.5703 34.2047C26.0557 34.7194 25.4 35.0698 24.6862 35.2118C23.9724 35.3538 23.2325 35.2809 22.5601 35.0024C21.8877 34.7239 21.313 34.2522 20.9086 33.6471C20.5043 33.0419 20.2885 32.3305 20.2885 31.6027C20.2885 30.6267 20.6761 29.6908 21.3663 29.0006C22.0564 28.3105 22.9923 27.9229 23.9683 27.9229Z" fill="#013660"/>
<path d="M23.9683 5.97804C24.5043 5.97664 25.0286 6.1344 25.4749 6.43131C25.9211 6.72822 26.2692 7.15093 26.4749 7.64586C26.6807 8.14078 26.7349 8.68565 26.6306 9.21142C26.5264 9.73718 26.2685 10.2202 25.8895 10.5992C25.5105 10.9782 25.0275 11.2361 24.5017 11.3404C23.9759 11.4446 23.4311 11.3904 22.9361 11.1846C22.4412 10.9789 22.0185 10.6308 21.7216 10.1846C21.4247 9.73833 21.2669 9.21399 21.2683 8.67799C21.2683 7.96192 21.5528 7.27518 22.0591 6.76884C22.5655 6.2625 23.2522 5.97804 23.9683 5.97804Z" fill="#013660"/>
<path d="M23.9683 36.6152C24.5023 36.6152 25.0243 36.7736 25.4683 37.0703C25.9123 37.3669 26.2584 37.7886 26.4627 38.282C26.6671 38.7753 26.7205 39.3182 26.6164 39.8419C26.5122 40.3657 26.255 40.8468 25.8774 41.2244C25.4998 41.602 25.0188 41.8591 24.495 41.9633C23.9713 42.0675 23.4284 42.014 22.935 41.8096C22.4417 41.6053 22.02 41.2592 21.7233 40.8152C21.4267 40.3712 21.2683 39.8492 21.2683 39.3152C21.2674 38.9604 21.3366 38.6089 21.4719 38.2809C21.6073 37.9529 21.8061 37.6549 22.057 37.404C22.3079 37.1531 22.606 36.9542 22.9339 36.8189C23.2619 36.6835 23.6135 36.6143 23.9683 36.6152Z" fill="#013660"/>
<path d="M23.9682 0.000108707C24.2604 -0.0111359 24.5492 0.0652101 24.7977 0.219341C25.0461 0.373473 25.2428 0.598352 25.3625 0.865097C25.4821 1.13184 25.5193 1.42827 25.4693 1.71632C25.4192 2.00437 25.2842 2.27088 25.0816 2.48162C24.879 2.69236 24.6179 2.83772 24.3321 2.89902C24.0462 2.96032 23.7486 2.93477 23.4773 2.82564C23.2061 2.71651 22.9737 2.52879 22.8099 2.28659C22.6462 2.04439 22.5586 1.75877 22.5584 1.4664C22.5581 1.08709 22.7048 0.722435 22.9677 0.449017C23.2306 0.175599 23.5892 0.0146974 23.9682 0.000108707Z" fill="#013660"/>
<path d="M23.9683 45.0675C24.2607 45.0562 24.5498 45.1328 24.7984 45.2872C25.047 45.4416 25.2437 45.6669 25.3632 45.9341C25.4827 46.2013 25.5195 46.4981 25.4688 46.7863C25.4182 47.0746 25.2825 47.3411 25.0791 47.5515C24.8758 47.762 24.6141 47.9068 24.3278 47.9673C24.0414 48.0278 23.7435 48.0013 23.4724 47.891C23.2013 47.7808 22.9694 47.592 22.8065 47.3489C22.6436 47.1057 22.5572 46.8194 22.5584 46.5267C22.5599 46.1486 22.7074 45.7858 22.9701 45.5139C23.2329 45.2419 23.5904 45.082 23.9683 45.0675Z" fill="#013660"/>
<path d="M41.2325 31.5959C41.2325 32.0533 41.0969 32.5003 40.8428 32.8805C40.5887 33.2608 40.2276 33.5572 39.8051 33.7322C39.3826 33.9072 38.9177 33.953 38.4692 33.8637C38.0206 33.7745 37.6086 33.5543 37.2853 33.2309C36.9619 32.9076 36.7417 32.4956 36.6525 32.047C36.5632 31.5985 36.609 31.1336 36.784 30.7111C36.9591 30.2886 37.2554 29.9275 37.6357 29.6734C38.0159 29.4193 38.463 29.2837 38.9203 29.2837C39.2242 29.2828 39.5253 29.3419 39.8062 29.4578C40.0872 29.5737 40.3424 29.744 40.5573 29.9589C40.7722 30.1738 40.9425 30.429 41.0584 30.71C41.1743 30.9909 41.2334 31.292 41.2325 31.5959Z" fill="#013660"/>
<path d="M11.3497 31.5959C11.3497 32.0532 11.2141 32.5003 10.96 32.8805C10.7059 33.2608 10.3448 33.5571 9.92231 33.7322C9.4998 33.9072 9.03489 33.9529 8.58636 33.8637C8.13783 33.7745 7.72583 33.5543 7.40246 33.2309C7.07909 32.9075 6.85887 32.4955 6.76965 32.047C6.68043 31.5985 6.72622 31.1336 6.90123 30.7111C7.07624 30.2886 7.3726 29.9274 7.75285 29.6734C8.13309 29.4193 8.58014 29.2837 9.03745 29.2837C9.6507 29.2837 10.2388 29.5273 10.6725 29.9609C11.1061 30.3946 11.3497 30.9827 11.3497 31.5959Z" fill="#013660"/>
<path d="M41.2747 16.3973C41.2775 16.8552 41.1443 17.3036 40.8919 17.6857C40.6395 18.0678 40.2794 18.3663 39.8571 18.5435C39.4349 18.7207 38.9695 18.7685 38.5201 18.6809C38.0706 18.5932 37.6573 18.3741 37.3325 18.0513C37.0077 17.7285 36.7861 17.3166 36.6957 16.8677C36.6054 16.4187 36.6503 15.9531 36.8249 15.5298C36.9995 15.1065 37.2959 14.7445 37.6764 14.4898C38.0569 14.2351 38.5045 14.0991 38.9625 14.0991C39.5757 14.0991 40.1638 14.3427 40.5975 14.7764C41.0311 15.21 41.2747 15.7981 41.2747 16.4114" fill="#013660"/>
<path d="M11.3849 16.3973C11.3877 16.8552 11.2545 17.3036 11.0021 17.6857C10.7497 18.0678 10.3896 18.3663 9.96736 18.5435C9.54511 18.7207 9.07975 18.7685 8.6303 18.6809C8.18085 18.5932 7.76753 18.3741 7.44274 18.0513C7.11796 17.7285 6.89634 17.3166 6.80597 16.8677C6.7156 16.4187 6.76056 15.9531 6.93515 15.5298C7.10973 15.1065 7.40608 14.7445 7.78663 14.4898C8.16717 14.2351 8.61478 14.0991 9.07269 14.0991C9.68593 14.0991 10.2741 14.3427 10.7077 14.7764C11.1413 15.21 11.3849 15.7981 11.3849 16.4114" fill="#013660"/>
<path d="M16.3971 41.2324C15.9398 41.2324 15.4927 41.0968 15.1125 40.8427C14.7322 40.5886 14.4359 40.2275 14.2608 39.805C14.0858 39.3825 14.0401 38.9176 14.1293 38.4691C14.2185 38.0205 14.4387 37.6085 14.7621 37.2851C15.0854 36.9618 15.4975 36.7416 15.946 36.6523C16.3945 36.5631 16.8594 36.6089 17.2819 36.7839C17.7044 36.9589 18.0656 37.2553 18.3196 37.6355C18.5737 38.0158 18.7093 38.4628 18.7093 38.9201C18.7093 39.5334 18.4657 40.1215 18.0321 40.5551C17.5984 40.9888 17.0103 41.2324 16.3971 41.2324Z" fill="#013660"/>
<path d="M16.3971 11.3496C15.9398 11.3496 15.4927 11.214 15.1125 10.9599C14.7322 10.7058 14.4359 10.3447 14.2608 9.92219C14.0858 9.49968 14.0401 9.03477 14.1293 8.58624C14.2185 8.13771 14.4387 7.72571 14.7621 7.40234C15.0854 7.07896 15.4975 6.85875 15.946 6.76953C16.3945 6.68031 16.8594 6.7261 17.2819 6.90111C17.7044 7.07611 18.0656 7.37248 18.3196 7.75272C18.5737 8.13297 18.7093 8.58002 18.7093 9.03733C18.7093 9.65057 18.4657 10.2387 18.0321 10.6723C17.5984 11.106 17.0103 11.3496 16.3971 11.3496Z" fill="#013660"/>
<path d="M31.5959 41.2748C31.1365 41.2762 30.6872 41.1412 30.3047 40.8869C29.9222 40.6325 29.6238 40.2704 29.4474 39.8463C29.271 39.4222 29.2245 38.9553 29.3138 38.5048C29.403 38.0542 29.6241 37.6403 29.9488 37.3155C30.2736 36.9908 30.6875 36.7697 31.1381 36.6805C31.5886 36.5912 32.0555 36.6377 32.4796 36.8141C32.9037 36.9905 33.2658 37.2889 33.5202 37.6714C33.7745 38.0539 33.9095 38.5032 33.9081 38.9626C33.9081 39.5758 33.6645 40.1639 33.2308 40.5976C32.7972 41.0312 32.2091 41.2748 31.5959 41.2748Z" fill="#013660"/>
<path d="M31.5958 11.3847C31.1385 11.3847 30.6914 11.2491 30.3112 10.995C29.931 10.741 29.6346 10.3798 29.4596 9.95734C29.2846 9.53484 29.2388 9.06992 29.328 8.62139C29.4172 8.17286 29.6374 7.76086 29.9608 7.43749C30.2842 7.11412 30.6962 6.8939 31.1447 6.80468C31.5932 6.71547 32.0582 6.76126 32.4807 6.93626C32.9032 7.11127 33.2643 7.40764 33.5184 7.78788C33.7724 8.16813 33.908 8.61517 33.908 9.07249C33.908 9.68573 33.6644 10.2739 33.2308 10.7075C32.7972 11.1411 32.209 11.3847 31.5958 11.3847Z" fill="#013660"/>
<path d="M40.6897 8.91777C40.6897 9.26076 40.588 9.59604 40.3974 9.88123C40.2069 10.1664 39.936 10.3887 39.6191 10.5199C39.3023 10.6512 38.9536 10.6855 38.6172 10.6186C38.2808 10.5517 37.9718 10.3865 37.7292 10.144C37.4867 9.90149 37.3215 9.59249 37.2546 9.25609C37.1877 8.91969 37.2221 8.57101 37.3533 8.25413C37.4846 7.93725 37.7069 7.66641 37.992 7.47586C38.2772 7.2853 38.6125 7.18359 38.9555 7.18359C39.1832 7.18359 39.4087 7.22845 39.6191 7.3156C39.8295 7.40275 40.0207 7.53049 40.1817 7.69152C40.3428 7.85256 40.4705 8.04373 40.5577 8.25413C40.6448 8.46453 40.6897 8.69003 40.6897 8.91777Z" fill="#013660"/>
<path d="M10.9478 8.91778C10.9492 9.26276 10.848 9.60038 10.6573 9.8878C10.4665 10.1752 10.1946 10.3995 9.87614 10.5322C9.55769 10.6648 9.20701 10.6999 8.86859 10.6329C8.53017 10.566 8.21926 10.4 7.97533 10.1561C7.73139 9.91211 7.56541 9.60121 7.49845 9.26279C7.43149 8.92437 7.46656 8.57369 7.59923 8.25523C7.73189 7.93678 7.95616 7.66491 8.24358 7.47412C8.531 7.28333 8.86861 7.18221 9.21359 7.18361C9.44133 7.18361 9.66683 7.22846 9.87723 7.31561C10.0876 7.40277 10.2788 7.5305 10.4398 7.69154C10.6009 7.85257 10.7286 8.04374 10.8158 8.25414C10.9029 8.46454 10.9478 8.69005 10.9478 8.91778Z" fill="#013660"/>
<path d="M40.5205 39.0753C40.5246 39.4186 40.4268 39.7554 40.2395 40.043C40.0521 40.3306 39.7836 40.5562 39.4679 40.6911C39.1523 40.826 38.8037 40.8642 38.4663 40.8008C38.1289 40.7374 37.8179 40.5753 37.5727 40.3351C37.3275 40.0948 37.1592 39.7872 37.0889 39.4512C37.0187 39.1152 37.0498 38.7659 37.1782 38.4475C37.3067 38.1292 37.5267 37.8561 37.8105 37.6629C38.0942 37.4698 38.4289 37.3651 38.7722 37.3623C39.2316 37.3642 39.6716 37.5475 39.9964 37.8723C40.3212 38.1971 40.5045 38.6371 40.5064 39.0965" fill="#013660"/>
<path d="M10.7786 39.0753C10.7828 39.4192 10.6847 39.7565 10.4967 40.0445C10.3087 40.3324 10.0394 40.558 9.7229 40.6925C9.40641 40.827 9.05708 40.8644 8.7193 40.7999C8.38152 40.7354 8.07055 40.5719 7.8259 40.3302C7.58125 40.0886 7.41397 39.7796 7.34533 39.4427C7.27668 39.1057 7.30977 38.7559 7.44038 38.4378C7.57099 38.1197 7.79323 37.8476 8.07885 37.6561C8.36448 37.4646 8.70059 37.3623 9.04447 37.3623C9.50383 37.3642 9.94385 37.5475 10.2687 37.8723C10.5935 38.1971 10.7768 38.6371 10.7786 39.0965" fill="#013660"/>
<path d="M47.9999 16.3549C47.9999 16.6156 47.9226 16.8705 47.7777 17.0873C47.6329 17.304 47.427 17.473 47.1861 17.5728C46.9453 17.6726 46.6802 17.6987 46.4245 17.6478C46.1688 17.5969 45.9339 17.4714 45.7495 17.287C45.5652 17.1027 45.4396 16.8678 45.3887 16.6121C45.3379 16.3563 45.364 16.0913 45.4638 15.8504C45.5635 15.6095 45.7325 15.4036 45.9493 15.2588C46.1661 15.1139 46.4209 15.0366 46.6817 15.0366C47.0313 15.0366 47.3666 15.1755 47.6138 15.4227C47.861 15.67 47.9999 16.0053 47.9999 16.3549Z" fill="#013660"/>
<path d="M2.62943 16.3549C2.62943 16.6156 2.55212 16.8705 2.40727 17.0873C2.26241 17.304 2.05653 17.473 1.81565 17.5728C1.57477 17.6726 1.30971 17.6987 1.054 17.6478C0.79828 17.5969 0.56339 17.4714 0.379029 17.287C0.194667 17.1027 0.0691156 16.8678 0.0182504 16.6121C-0.0326148 16.3563 -0.0065089 16.0913 0.0932667 15.8504C0.193042 15.6095 0.362006 15.4036 0.578792 15.2588C0.795578 15.1139 1.05045 15.0366 1.31118 15.0366C1.6608 15.0366 1.9961 15.1755 2.24332 15.4227C2.49054 15.67 2.62943 16.0053 2.62943 16.3549Z" fill="#013660"/>
<path d="M48 31.6453C47.9972 31.9054 47.9175 32.1589 47.771 32.3738C47.6244 32.5888 47.4176 32.7555 47.1765 32.8532C46.9354 32.9508 46.6708 32.9749 46.416 32.9224C46.1612 32.87 45.9276 32.7433 45.7447 32.5584C45.5617 32.3735 45.4376 32.1386 45.3878 31.8833C45.3381 31.628 45.365 31.3636 45.4652 31.1236C45.5654 30.8835 45.7343 30.6785 45.9508 30.5342C46.1673 30.39 46.4216 30.313 46.6817 30.313C47.0301 30.313 47.3643 30.4509 47.6114 30.6966C47.8584 30.9423 47.9981 31.2758 48 31.6242" fill="#013660"/>
<path d="M2.62948 31.6453C2.6267 31.9054 2.54702 32.1589 2.40049 32.3738C2.25396 32.5888 2.04712 32.7555 1.806 32.8532C1.56489 32.9508 1.30029 32.9749 1.04551 32.9224C0.790729 32.87 0.557159 32.7433 0.374206 32.5584C0.191252 32.3735 0.0670933 32.1386 0.0173604 31.8833C-0.0323725 31.628 -0.0054563 31.3636 0.0947203 31.1236C0.194897 30.8835 0.363856 30.6785 0.580326 30.5342C0.796796 30.39 1.0511 30.313 1.31122 30.313C1.65963 30.313 1.99387 30.4509 2.24089 30.6966C2.48791 30.9423 2.62761 31.2758 2.62948 31.6242" fill="#013660"/>
<path d="M16.2773 1.8952e-05C16.5383 2.26843e-05 16.7934 0.0775182 17.0104 0.222684C17.2273 0.36785 17.3963 0.574151 17.4958 0.815442C17.5954 1.05673 17.6211 1.32215 17.5696 1.57806C17.5182 1.83396 17.392 2.06884 17.2069 2.25292C17.0218 2.43699 16.7863 2.56199 16.5301 2.61205C16.2739 2.66212 16.0086 2.63501 15.7679 2.53415C15.5271 2.43329 15.3217 2.26323 15.1777 2.04552C15.0337 1.82781 14.9576 1.57225 14.959 1.31122C14.959 1.13844 14.9931 0.967358 15.0595 0.807814C15.1258 0.64827 15.223 0.50341 15.3455 0.381561C15.468 0.259712 15.6134 0.163276 15.7733 0.0977979C15.9332 0.0323197 16.1045 -0.000909998 16.2773 1.8952e-05Z" fill="#013660"/>
<path d="M16.2773 45.3706C16.5383 45.3706 16.7934 45.4481 17.0104 45.5933C17.2273 45.7385 17.3963 45.9448 17.4958 46.186C17.5954 46.4273 17.6211 46.6928 17.5696 46.9487C17.5182 47.2046 17.392 47.4394 17.2069 47.6235C17.0218 47.8076 16.7863 47.9326 16.5301 47.9827C16.2739 48.0327 16.0086 48.0056 15.7679 47.9048C15.5271 47.8039 15.3217 47.6338 15.1777 47.4161C15.0337 47.1984 14.9576 46.9429 14.959 46.6818C14.959 46.509 14.9931 46.338 15.0595 46.1784C15.1258 46.0189 15.223 45.874 15.3455 45.7522C15.468 45.6303 15.6134 45.5339 15.7733 45.4684C15.9332 45.4029 16.1045 45.3697 16.2773 45.3706Z" fill="#013660"/>
<path d="M31.5676 1.87572e-05C31.8289 -0.00137499 32.0847 0.0749312 32.3026 0.219245C32.5205 0.363559 32.6905 0.569369 32.7912 0.810535C32.8918 1.0517 32.9185 1.31734 32.8679 1.57371C32.8172 1.83008 32.6915 2.06562 32.5068 2.2504C32.322 2.43519 32.0864 2.56088 31.8301 2.61152C31.5737 2.66216 31.308 2.63546 31.0669 2.53481C30.8257 2.43417 30.6199 2.26411 30.4756 2.04625C30.3313 1.82839 30.255 1.57255 30.2564 1.31122C30.2582 0.964042 30.397 0.631607 30.6425 0.386108C30.888 0.140609 31.2204 0.00187044 31.5676 1.87572e-05Z" fill="#013660"/>
<path d="M31.5676 45.3706C31.8289 45.3692 32.0847 45.4455 32.3026 45.5899C32.5205 45.7342 32.6905 45.94 32.7912 46.1811C32.8918 46.4223 32.9185 46.6879 32.8679 46.9443C32.8172 47.2007 32.6915 47.4362 32.5068 47.621C32.322 47.8058 32.0864 47.9315 31.8301 47.9821C31.5737 48.0328 31.308 48.0061 31.0669 47.9054C30.8257 47.8048 30.6199 47.6347 30.4756 47.4169C30.3313 47.199 30.255 46.9432 30.2564 46.6818C30.2582 46.3346 30.397 46.0022 30.6425 45.7567C30.888 45.5112 31.2204 45.3725 31.5676 45.3706Z" fill="#013660"/>
<path d="M47.295 39.0682C47.295 39.2077 47.2537 39.344 47.1762 39.4599C47.0988 39.5758 46.9887 39.6662 46.8599 39.7195C46.731 39.7729 46.5893 39.7868 46.4526 39.7596C46.3158 39.7324 46.1902 39.6653 46.0916 39.5667C45.993 39.4681 45.9259 39.3425 45.8987 39.2058C45.8715 39.069 45.8854 38.9273 45.9388 38.7985C45.9921 38.6696 46.0825 38.5595 46.1984 38.4821C46.3144 38.4046 46.4507 38.3633 46.5901 38.3633C46.777 38.3633 46.9563 38.4376 47.0886 38.5698C47.2208 38.702 47.295 38.8813 47.295 39.0682Z" fill="#013660"/>
<path d="M2.22765 39.2235C2.22765 39.3629 2.1863 39.4992 2.10884 39.6152C2.03138 39.7311 1.92128 39.8214 1.79247 39.8748C1.66366 39.9282 1.52192 39.9421 1.38517 39.9149C1.24842 39.8877 1.12281 39.8206 1.02422 39.722C0.925635 39.6234 0.858495 39.4978 0.831295 39.361C0.804094 39.2243 0.818054 39.0825 0.87141 38.9537C0.924766 38.8249 1.01512 38.7148 1.13105 38.6374C1.24698 38.5599 1.38327 38.5186 1.5227 38.5186C1.70966 38.5186 1.88897 38.5928 2.02117 38.725C2.15338 38.8572 2.22765 39.0365 2.22765 39.2235Z" fill="#013660"/>
<path d="M47.295 9.5946C47.295 9.78156 47.2208 9.96087 47.0886 10.0931C46.9564 10.2253 46.777 10.2995 46.5901 10.2995C46.4031 10.2995 46.2238 10.2253 46.0916 10.0931C45.9594 9.96087 45.8851 9.78156 45.8851 9.5946C45.8851 9.40763 45.9594 9.22833 46.0916 9.09612C46.2238 8.96392 46.4031 8.88965 46.5901 8.88965C46.777 8.88965 46.9564 8.96392 47.0886 9.09612C47.2208 9.22833 47.295 9.40763 47.295 9.5946Z" fill="#013660"/>
<path d="M2.22765 9.74938C2.22765 9.88881 2.1863 10.0251 2.10884 10.141C2.03138 10.257 1.92128 10.3473 1.79247 10.4007C1.66366 10.454 1.52192 10.468 1.38517 10.4408C1.24842 10.4136 1.12281 10.3464 1.02422 10.2479C0.925635 10.1493 0.858495 10.0237 0.831295 9.88691C0.804094 9.75016 0.818054 9.60842 0.87141 9.47961C0.924766 9.3508 1.01512 9.2407 1.13105 9.16324C1.24698 9.08578 1.38327 9.04443 1.5227 9.04443C1.70966 9.04443 1.88897 9.1187 2.02117 9.25091C2.15338 9.38311 2.22765 9.56242 2.22765 9.74938Z" fill="#013660"/>
<path d="M39.033 0.76123C39.1724 0.76123 39.3087 0.802575 39.4246 0.880036C39.5405 0.957497 39.6309 1.06759 39.6842 1.19641C39.7376 1.32522 39.7516 1.46696 39.7244 1.60371C39.6972 1.74046 39.63 1.86607 39.5314 1.96465C39.4328 2.06324 39.3072 2.13038 39.1705 2.15758C39.0337 2.18478 38.892 2.17082 38.7632 2.11747C38.6344 2.06411 38.5243 1.97376 38.4468 1.85783C38.3693 1.7419 38.328 1.60561 38.328 1.46618C38.328 1.27922 38.4023 1.09991 38.5345 0.967705C38.6667 0.835502 38.846 0.76123 39.033 0.76123Z" fill="#013660"/>
<path d="M38.8639 45.8218C39.0033 45.8218 39.1396 45.8631 39.2555 45.9406C39.3715 46.018 39.4618 46.1281 39.5152 46.257C39.5685 46.3858 39.5825 46.5275 39.5553 46.6643C39.5281 46.801 39.4609 46.9266 39.3624 47.0252C39.2638 47.1238 39.1382 47.1909 39.0014 47.2181C38.8647 47.2453 38.7229 47.2314 38.5941 47.178C38.4653 47.1247 38.3552 47.0343 38.2777 46.9184C38.2003 46.8024 38.1589 46.6662 38.1589 46.5267C38.1589 46.3398 38.2332 46.1605 38.3654 46.0283C38.4976 45.896 38.6769 45.8218 38.8639 45.8218Z" fill="#013660"/>
<path d="M9.28415 0.761276C9.38738 0.737748 9.4946 0.737778 9.59782 0.761365C9.70105 0.784952 9.79763 0.831489 9.88041 0.897521C9.96318 0.963553 10.03 1.04738 10.076 1.14279C10.1219 1.23819 10.1457 1.34272 10.1457 1.4486C10.1457 1.55449 10.1219 1.65901 10.076 1.75442C10.03 1.84982 9.96318 1.93365 9.88041 1.99968C9.79763 2.06571 9.70105 2.11225 9.59782 2.13584C9.4946 2.15943 9.38738 2.15946 9.28415 2.13593C9.1284 2.10043 8.98933 2.01309 8.88971 1.88822C8.79009 1.76335 8.73584 1.60834 8.73584 1.4486C8.73584 1.28886 8.79009 1.13386 8.88971 1.00898C8.98933 0.88411 9.1284 0.796771 9.28415 0.761276Z" fill="#013660"/>
<path d="M9.28415 45.8218C9.38738 45.7983 9.4946 45.7983 9.59782 45.8219C9.70105 45.8455 9.79763 45.892 9.88041 45.9581C9.96318 46.0241 10.03 46.1079 10.076 46.2033C10.1219 46.2987 10.1457 46.4033 10.1457 46.5091C10.1457 46.615 10.1219 46.7196 10.076 46.815C10.03 46.9104 9.96318 46.9942 9.88041 47.0602C9.79763 47.1263 9.70105 47.1728 9.59782 47.1964C9.4946 47.22 9.38738 47.22 9.28415 47.1965C9.1284 47.161 8.98933 47.0736 8.88971 46.9488C8.79009 46.8239 8.73584 46.6689 8.73584 46.5091C8.73584 46.3494 8.79009 46.1944 8.88971 46.0695C8.98933 45.9447 9.1284 45.8573 9.28415 45.8218Z" fill="#013660"/>
</g>
</g>
<defs>
<clipPath id="clip0_4903_6524">
<path d="M0 24C0 10.7452 10.7452 0 24 0C37.2548 0 48 10.7452 48 24C48 37.2548 37.2548 48 24 48C10.7452 48 0 37.2548 0 24Z" fill="white"/>
</clipPath>
<clipPath id="clip1_4903_6524">
<rect width="48" height="48" fill="white"/>
</clipPath>
</defs>
</svg>
