<svg width="501" height="500" viewBox="0 0 501 500" fill="none" xmlns="http://www.w3.org/2000/svg">
<g opacity="0.05">
<path d="M364.616 330.181C364.616 336.983 362.596 343.633 358.812 349.287C355.027 354.942 349.649 359.348 343.357 361.947C337.066 364.546 330.144 365.222 323.468 363.889C316.791 362.556 310.661 359.274 305.853 354.458C301.044 349.643 297.774 343.51 296.456 336.837C295.138 330.163 295.831 323.249 298.448 316.97C301.064 310.69 305.487 305.327 311.156 301.56C316.825 297.793 323.485 295.791 330.293 295.807C334.807 295.807 339.277 296.697 343.447 298.426C347.617 300.154 351.404 302.687 354.592 305.88C357.78 309.073 360.307 312.863 362.027 317.033C363.747 321.203 364.627 325.671 364.616 330.181Z" fill="url(#paint0_linear_4791_53269)"/>
<path d="M205.855 330.181C205.855 336.98 203.838 343.626 200.057 349.279C196.277 354.931 190.903 359.337 184.616 361.939C178.33 364.54 171.412 365.221 164.738 363.895C158.064 362.569 151.933 359.295 147.122 354.487C142.31 349.68 139.033 343.555 137.706 336.887C136.378 330.219 137.059 323.308 139.663 317.027C142.268 310.746 146.677 305.377 152.335 301.6C157.993 297.823 164.645 295.807 171.45 295.807C175.968 295.807 180.442 296.696 184.616 298.424C188.791 300.151 192.583 302.683 195.778 305.875C198.973 309.067 201.507 312.856 203.236 317.027C204.965 321.197 205.855 325.667 205.855 330.181Z" fill="url(#paint1_linear_4791_53269)"/>
<path d="M363.957 170.318C363.974 177.12 361.97 183.774 358.199 189.438C354.429 195.102 349.061 199.52 342.776 202.135C336.49 204.749 329.57 205.442 322.89 204.125C316.211 202.808 310.073 199.54 305.253 194.736C300.433 189.932 297.148 183.808 295.814 177.138C294.479 170.467 295.156 163.552 297.757 157.266C300.359 150.98 304.769 145.607 310.428 141.826C316.088 138.045 322.743 136.027 329.552 136.027C338.662 136.027 347.401 139.637 353.851 146.066C360.301 152.494 363.935 161.216 363.957 170.318Z" fill="url(#paint2_linear_4791_53269)"/>
<path d="M205.11 170.318C205.127 177.12 203.123 183.774 199.352 189.438C195.582 195.102 190.214 199.52 183.929 202.135C177.644 204.749 170.723 205.442 164.044 204.125C157.364 202.808 151.226 199.54 146.406 194.736C141.586 189.932 138.301 183.808 136.967 177.138C135.633 170.467 136.309 163.552 138.911 157.266C141.512 150.98 145.922 145.607 151.582 141.826C157.241 138.045 163.897 136.027 170.705 136.027C179.816 136.027 188.554 139.637 195.004 146.066C201.454 152.494 205.088 161.216 205.11 170.318Z" fill="url(#paint3_linear_4791_53269)"/>
<path d="M438.237 250.081C438.237 255.651 436.584 261.096 433.486 265.727C430.389 270.358 425.987 273.968 420.836 276.099C415.686 278.231 410.018 278.788 404.55 277.702C399.082 276.615 394.06 273.933 390.118 269.994C386.175 266.056 383.491 261.038 382.403 255.575C381.316 250.112 381.874 244.45 384.007 239.304C386.141 234.158 389.754 229.76 394.389 226.665C399.024 223.571 404.474 221.919 410.049 221.919C417.525 221.919 424.695 224.886 429.981 230.167C435.267 235.449 438.237 242.612 438.237 250.081Z" fill="url(#paint4_linear_4791_53269)"/>
<path d="M119.054 250.081C119.054 255.654 117.398 261.102 114.297 265.735C111.196 270.368 106.789 273.978 101.634 276.107C96.4784 278.236 90.8065 278.789 85.3364 277.696C79.8663 276.602 74.8439 273.912 70.9052 269.965C66.9664 266.018 64.2883 260.992 63.2101 255.524C62.1318 250.056 62.7019 244.391 64.8481 239.246C66.9942 234.102 70.62 229.709 75.2663 226.625C79.9126 223.54 85.3706 221.903 90.949 221.919C94.6468 221.919 98.3082 222.648 101.723 224.064C105.139 225.481 108.241 227.556 110.851 230.173C113.462 232.789 115.531 235.894 116.938 239.31C118.346 242.726 119.065 246.387 119.054 250.081Z" fill="url(#paint5_linear_4791_53269)"/>
<path d="M295.141 250.084C295.141 258.918 292.518 267.553 287.605 274.896C282.691 282.24 275.707 287.962 267.537 291.339C259.367 294.715 250.378 295.595 241.707 293.865C233.037 292.136 225.075 287.876 218.829 281.624C212.583 275.372 208.333 267.409 206.619 258.743C204.904 250.078 205.801 241.098 209.195 232.942C212.59 224.786 218.331 217.819 225.69 212.923C233.049 208.028 241.697 205.423 250.539 205.44C262.376 205.461 273.72 210.175 282.083 218.545C290.445 226.915 295.141 238.258 295.141 250.084Z" fill="url(#paint6_linear_4791_53269)"/>
<path d="M500.5 250.08C500.5 253.094 499.605 256.041 497.929 258.547C496.253 261.053 493.871 263.007 491.083 264.16C488.296 265.314 485.229 265.616 482.269 265.028C479.31 264.44 476.592 262.988 474.459 260.857C472.326 258.725 470.873 256.01 470.284 253.053C469.696 250.097 469.998 247.033 471.152 244.248C472.307 241.463 474.262 239.083 476.771 237.408C479.279 235.733 482.228 234.839 485.246 234.839C489.291 234.839 493.171 236.445 496.032 239.303C498.893 242.161 500.5 246.038 500.5 250.08Z" fill="url(#paint7_linear_4791_53269)"/>
<path d="M31.0089 250.08C31.0089 253.094 30.1143 256.041 28.4381 258.547C26.7619 261.053 24.3795 263.007 21.5921 264.16C18.8047 265.314 15.7376 265.616 12.7785 265.028C9.8194 264.44 7.10131 262.988 4.96794 260.857C2.83456 258.725 1.38171 256.01 0.793117 253.053C0.20452 250.097 0.50661 247.033 1.66118 244.248C2.81576 241.463 4.77096 239.083 7.27955 237.408C9.78813 235.733 12.7374 234.839 15.7545 234.839C19.7935 234.861 23.6609 236.474 26.517 239.327C29.373 242.181 30.9872 246.045 31.0089 250.08Z" fill="url(#paint8_linear_4791_53269)"/>
<path d="M368.1 250.088C368.1 257.673 365.849 265.087 361.631 271.394C357.413 277.7 351.418 282.616 344.404 285.518C337.391 288.421 329.673 289.181 322.227 287.701C314.781 286.221 307.941 282.569 302.573 277.205C297.205 271.842 293.549 265.009 292.068 257.57C290.587 250.13 291.347 242.419 294.252 235.412C297.157 228.404 302.077 222.415 308.39 218.201C314.702 213.987 322.123 211.738 329.715 211.738C334.759 211.727 339.755 212.712 344.417 214.635C349.079 216.558 353.315 219.383 356.882 222.946C360.448 226.509 363.275 230.741 365.2 235.399C367.126 240.057 368.111 245.049 368.1 250.088Z" fill="url(#paint9_linear_4791_53269)"/>
<path d="M209.583 250.088C209.583 257.676 207.329 265.094 203.108 271.402C198.886 277.711 192.887 282.626 185.868 285.526C178.849 288.426 171.127 289.181 163.679 287.695C156.231 286.208 149.391 282.547 144.026 277.176C138.661 271.804 135.012 264.963 133.54 257.519C132.069 250.074 132.841 242.361 135.759 235.354C138.677 228.348 143.609 222.365 149.933 218.161C156.256 213.957 163.685 211.722 171.281 211.738C176.318 211.738 181.305 212.731 185.957 214.659C190.61 216.587 194.836 219.413 198.394 222.975C201.951 226.538 204.771 230.766 206.691 235.418C208.611 240.071 209.594 245.056 209.583 250.088Z" fill="url(#paint10_linear_4791_53269)"/>
<path d="M250.535 132.543C258.127 132.543 265.548 134.793 271.86 139.007C278.173 143.221 283.093 149.21 285.998 156.217C288.903 163.225 289.663 170.936 288.182 178.375C286.701 185.814 283.045 192.647 277.677 198.011C272.309 203.374 265.469 207.027 258.023 208.506C250.577 209.986 242.859 209.227 235.846 206.324C228.832 203.421 222.837 198.506 218.619 192.199C214.401 185.893 212.15 178.478 212.15 170.893C212.139 165.854 213.124 160.862 215.05 156.205C216.975 151.547 219.802 147.315 223.368 143.752C226.935 140.188 231.171 137.364 235.833 135.44C240.495 133.517 245.491 132.533 250.535 132.543Z" fill="url(#paint11_linear_4791_53269)"/>
<path d="M250.535 290.922C258.13 290.922 265.555 293.173 271.869 297.391C278.183 301.608 283.103 307.603 286.006 314.615C288.909 321.627 289.664 329.342 288.176 336.784C286.688 344.225 283.024 351.058 277.648 356.418C272.271 361.778 265.424 365.424 257.972 366.895C250.521 368.365 242.8 367.594 235.788 364.678C228.776 361.763 222.786 356.835 218.579 350.517C214.371 344.2 212.134 336.777 212.15 329.189C212.15 324.156 213.143 319.174 215.073 314.525C217.003 309.877 219.832 305.655 223.398 302.101C226.963 298.546 231.195 295.729 235.852 293.811C240.508 291.893 245.498 290.911 250.535 290.922Z" fill="url(#paint12_linear_4791_53269)"/>
<path d="M250.539 62.473C256.114 62.473 261.563 64.1247 266.199 67.2191C270.834 70.3136 274.447 74.7119 276.581 79.8578C278.714 85.0037 279.272 90.6661 278.185 96.129C277.097 101.592 274.412 106.61 270.47 110.548C266.528 114.487 261.506 117.169 256.038 118.256C250.57 119.342 244.902 118.785 239.752 116.653C234.601 114.522 230.199 110.912 227.101 106.281C224.004 101.65 222.351 96.2048 222.351 90.6349C222.351 86.9366 223.08 83.2746 224.497 79.8578C225.913 76.4411 227.99 73.3365 230.607 70.7214C235.893 65.4401 243.063 62.473 250.539 62.473Z" fill="url(#paint13_linear_4791_53269)"/>
<path d="M250.539 381.365C256.117 381.365 261.57 383.019 266.208 386.117C270.845 389.215 274.458 393.618 276.589 398.769C278.72 403.92 279.273 409.586 278.179 415.052C277.084 420.517 274.391 425.535 270.441 429.47C266.49 433.405 261.46 436.08 255.987 437.158C250.514 438.235 244.843 437.665 239.694 435.521C234.545 433.377 230.149 429.755 227.061 425.113C223.974 420.47 222.335 415.017 222.351 409.444C222.351 405.75 223.081 402.092 224.498 398.68C225.916 395.267 227.994 392.168 230.612 389.56C233.231 386.951 236.339 384.885 239.758 383.479C243.177 382.072 246.841 381.354 250.539 381.365Z" fill="url(#paint14_linear_4791_53269)"/>
<path d="M250.543 0.27251C253.564 0.272554 256.517 1.16853 259.027 2.84687C261.537 4.52521 263.492 6.91037 264.644 9.70005C265.797 12.4897 266.094 15.5583 265.498 18.5169C264.903 21.4756 263.442 24.191 261.3 26.3191C259.159 28.4472 256.433 29.8921 253.468 30.4708C250.504 31.0495 247.434 30.7358 244.648 29.5696C241.862 28.4033 239.486 26.437 237.819 23.9199C236.153 21.4027 235.273 18.448 235.289 15.4302C235.278 13.4257 235.665 11.439 236.428 9.58495C237.19 7.73092 238.314 6.04645 239.732 4.62905C241.151 3.21164 242.837 2.08945 244.693 1.32743C246.548 0.565407 248.537 0.178697 250.543 0.189681" fill="url(#paint15_linear_4791_53269)"/>
<path d="M250.532 469.328C253.549 469.328 256.499 470.222 259.007 471.896C261.516 473.571 263.471 475.951 264.626 478.736C265.78 481.521 266.082 484.585 265.494 487.542C264.905 490.498 263.452 493.213 261.319 495.345C259.186 497.476 256.467 498.928 253.508 499.516C250.549 500.104 247.482 499.802 244.695 498.649C241.907 497.495 239.525 495.542 237.849 493.035C236.173 490.529 235.278 487.582 235.278 484.568C235.278 480.526 236.885 476.65 239.746 473.792C242.607 470.933 246.487 469.328 250.532 469.328Z" fill="url(#paint16_linear_4791_53269)"/>
<path d="M430.03 329.185C430.079 333.966 428.704 338.654 426.08 342.652C423.455 346.65 419.7 349.778 415.291 351.638C410.883 353.498 406.02 354.006 401.322 353.098C396.623 352.189 392.302 349.905 388.906 346.536C385.51 343.167 383.194 338.865 382.253 334.177C381.311 329.49 381.786 324.628 383.617 320.211C385.448 315.793 388.553 312.02 392.536 309.37C396.52 306.721 401.202 305.314 405.988 305.331C409.152 305.331 412.285 305.955 415.207 307.167C418.13 308.379 420.784 310.156 423.017 312.395C425.251 314.635 427.02 317.292 428.224 320.216C429.427 323.14 430.041 326.272 430.03 329.434" fill="url(#paint17_linear_4791_53269)"/>
<path d="M118.716 329.185C118.766 333.966 117.391 338.654 114.766 342.652C112.142 346.65 108.386 349.778 103.978 351.638C99.5692 353.498 94.7065 354.006 90.0081 353.098C85.3097 352.189 80.9879 349.905 77.5923 346.536C74.1967 343.167 71.8807 338.865 70.9389 334.177C69.997 329.49 70.4719 324.628 72.3031 320.211C74.1343 315.793 77.2391 312.02 81.2226 309.37C85.2061 306.721 89.8884 305.314 94.6739 305.331C97.8382 305.331 100.971 305.955 103.894 307.167C106.816 308.379 109.47 310.156 111.704 312.395C113.937 314.635 115.707 317.292 116.91 320.216C118.113 323.14 118.727 326.272 118.716 329.434" fill="url(#paint18_linear_4791_53269)"/>
<path d="M430.447 170.984C430.446 175.768 429.02 180.444 426.35 184.417C423.681 188.389 419.888 191.477 415.456 193.289C411.023 195.1 406.151 195.553 401.46 194.589C396.77 193.625 392.472 191.288 389.115 187.875C385.758 184.463 383.494 180.129 382.61 175.427C381.727 170.724 382.264 165.865 384.154 161.469C386.044 157.073 389.2 153.338 393.222 150.74C397.243 148.141 401.948 146.798 406.736 146.88C409.907 146.869 413.049 147.485 415.981 148.693C418.913 149.9 421.577 151.675 423.82 153.916C426.062 156.156 427.839 158.817 429.047 161.747C430.256 164.676 430.872 167.815 430.861 170.984" fill="url(#paint19_linear_4791_53269)"/>
<path d="M119.139 170.98C119.139 175.747 117.724 180.407 115.073 184.371C112.422 188.335 108.654 191.424 104.246 193.249C99.8373 195.073 94.9865 195.55 90.3067 194.62C85.6269 193.69 81.3282 191.395 77.9542 188.024C74.5802 184.653 72.2825 180.358 71.3516 175.682C70.4207 171.007 70.8985 166.16 72.7245 161.756C74.5505 157.352 77.6427 153.587 81.61 150.939C85.5774 148.29 90.2418 146.877 95.0133 146.877C98.1846 146.866 101.327 147.482 104.259 148.689C107.191 149.897 109.854 151.672 112.097 153.912C114.339 156.152 116.116 158.814 117.324 161.743C118.533 164.673 119.15 167.812 119.139 170.98Z" fill="url(#paint20_linear_4791_53269)"/>
<path d="M171.285 429.571C166.513 429.571 161.849 428.158 157.881 425.509C153.914 422.861 150.822 419.096 148.996 414.692C147.17 410.288 146.692 405.441 147.623 400.766C148.554 396.09 150.851 391.795 154.225 388.425C157.599 385.054 161.898 382.758 166.578 381.828C171.258 380.898 176.109 381.375 180.517 383.2C184.925 385.024 188.693 388.113 191.344 392.077C193.995 396.041 195.41 400.701 195.41 405.468C195.41 411.861 192.868 417.992 188.344 422.512C183.819 427.032 177.683 429.571 171.285 429.571Z" fill="url(#paint21_linear_4791_53269)"/>
<path d="M171.284 118.391C166.509 118.391 161.842 116.975 157.873 114.323C153.903 111.671 150.811 107.901 148.988 103.492C147.164 99.0832 146.691 94.2325 147.629 89.5547C148.567 84.8769 150.873 80.5823 154.255 77.2147C157.637 73.8471 161.944 71.5581 166.629 70.6374C171.314 69.7168 176.168 70.2059 180.574 72.043C184.981 73.88 188.743 76.9822 191.384 80.9569C194.025 84.9315 195.426 89.5997 195.41 94.3704C195.41 97.5318 194.785 100.662 193.572 103.582C192.358 106.502 190.58 109.153 188.339 111.385C186.097 113.616 183.437 115.384 180.51 116.586C177.584 117.788 174.449 118.402 171.284 118.391Z" fill="url(#paint22_linear_4791_53269)"/>
<path d="M329.717 429.571C324.939 429.588 320.263 428.186 316.283 425.544C312.303 422.902 309.198 419.138 307.362 414.73C305.525 410.323 305.041 405.469 305.969 400.786C306.897 396.103 309.197 391.8 312.576 388.425C315.955 385.049 320.261 382.751 324.948 381.824C329.636 380.897 334.494 381.381 338.905 383.216C343.317 385.05 347.084 388.152 349.729 392.129C352.373 396.105 353.776 400.777 353.76 405.551C353.76 411.921 351.227 418.031 346.718 422.536C342.209 427.041 336.094 429.571 329.717 429.571Z" fill="url(#paint23_linear_4791_53269)"/>
<path d="M329.718 118.801C324.943 118.817 320.27 117.417 316.292 114.779C312.314 112.14 309.208 108.382 307.37 103.979C305.531 99.5759 305.041 94.727 305.963 90.0459C306.884 85.3649 309.176 81.0624 312.546 77.6832C315.917 74.304 320.215 72.0002 324.898 71.0634C329.58 70.1266 334.435 70.5991 338.848 72.421C343.261 74.2428 347.034 77.3321 349.688 81.2977C352.343 85.2632 353.76 89.9266 353.76 94.6973C353.76 101.076 351.23 107.194 346.723 111.712C342.217 116.23 336.102 118.779 329.718 118.801Z" fill="url(#paint24_linear_4791_53269)"/>
<path d="M424.388 93.1206C424.387 96.7094 423.316 100.216 421.311 103.194C419.306 106.172 416.458 108.485 413.132 109.839C409.805 111.193 406.15 111.525 402.633 110.794C399.117 110.063 395.898 108.302 393.388 105.735C390.877 103.168 389.189 99.9121 388.54 96.3826C387.89 92.8531 388.307 89.2102 389.739 85.9188C391.171 82.6275 393.552 79.837 396.578 77.9036C399.604 75.9702 403.138 74.9816 406.729 75.0639C411.516 75.0857 416.1 76.9951 419.485 80.3767C422.869 83.7583 424.781 88.3384 424.802 93.1206" fill="url(#paint25_linear_4791_53269)"/>
<path d="M114.488 93.1267C114.488 96.698 113.428 100.189 111.442 103.158C109.457 106.128 106.634 108.442 103.331 109.809C100.029 111.176 96.3951 111.533 92.8892 110.836C89.3834 110.14 86.163 108.42 83.6354 105.895C81.1078 103.369 79.3865 100.152 78.6892 96.6494C77.9918 93.1467 78.3497 89.5161 79.7177 86.2167C81.0856 82.9172 83.4021 80.0972 86.3742 78.1131C89.3463 76.129 92.8406 75.0699 96.4151 75.0699C101.208 75.0699 105.805 76.9723 109.195 80.3586C112.584 83.7449 114.488 88.3377 114.488 93.1267Z" fill="url(#paint26_linear_4791_53269)"/>
<path d="M422.65 407.043C422.633 410.611 421.559 414.094 419.564 417.052C417.568 420.011 414.739 422.312 411.436 423.666C408.132 425.02 404.5 425.366 401 424.66C397.5 423.954 394.287 422.228 391.768 419.699C389.248 417.171 387.535 413.953 386.845 410.453C386.154 406.952 386.517 403.326 387.887 400.031C389.257 396.737 391.574 393.922 394.544 391.941C397.514 389.961 401.005 388.904 404.576 388.904C409.377 388.926 413.974 390.846 417.361 394.246C420.748 397.645 422.65 402.247 422.65 407.043Z" fill="url(#paint27_linear_4791_53269)"/>
<path d="M112.75 407.043C112.734 410.611 111.66 414.094 109.664 417.052C107.668 420.011 104.84 422.312 101.536 423.666C98.2322 425.02 94.6009 425.366 91.1005 424.66C87.6001 423.954 84.3875 422.228 81.8682 419.699C79.3489 417.171 77.6359 413.953 76.9452 410.453C76.2545 406.952 76.6172 403.326 77.9876 400.031C79.3579 396.737 81.6744 393.922 84.6447 391.941C87.615 389.961 91.106 388.904 94.677 388.904C97.0574 388.904 99.4143 389.373 101.612 390.286C103.811 391.199 105.807 392.536 107.486 394.222C109.165 395.907 110.495 397.907 111.398 400.108C112.302 402.308 112.761 404.665 112.75 407.043Z" fill="url(#paint28_linear_4791_53269)"/>
<path d="M500.496 170.487C500.496 173.19 499.694 175.833 498.191 178.08C496.688 180.328 494.551 182.079 492.052 183.114C489.552 184.148 486.802 184.419 484.148 183.891C481.495 183.364 479.057 182.063 477.144 180.151C475.231 178.24 473.928 175.805 473.401 173.154C472.873 170.502 473.144 167.755 474.179 165.257C475.214 162.76 476.968 160.626 479.217 159.124C481.467 157.622 484.112 156.821 486.817 156.821C490.445 156.821 493.924 158.26 496.49 160.823C499.055 163.386 500.496 166.863 500.496 170.487Z" fill="url(#paint29_linear_4791_53269)"/>
<path d="M27.8586 170.487C27.8586 173.19 27.0563 175.833 25.5532 178.08C24.0501 180.328 21.9137 182.079 19.4141 183.114C16.9146 184.148 14.1641 184.419 11.5106 183.891C8.85707 183.364 6.41965 182.063 4.50657 180.151C2.59349 178.24 1.29067 175.805 0.76285 173.154C0.235032 170.502 0.505927 167.755 1.54128 165.257C2.57663 162.76 4.32994 160.626 6.57948 159.124C8.82903 157.622 11.4738 156.821 14.1793 156.821C17.8072 156.821 21.2866 158.26 23.852 160.823C26.4173 163.386 27.8586 166.863 27.8586 170.487Z" fill="url(#paint30_linear_4791_53269)"/>
<path d="M500.496 329.599C500.496 332.302 499.694 334.944 498.191 337.192C496.688 339.439 494.551 341.191 492.052 342.225C489.552 343.26 486.802 343.53 484.148 343.003C481.495 342.476 479.057 341.174 477.144 339.263C475.231 337.351 473.928 334.916 473.401 332.265C472.873 329.614 473.144 326.866 474.179 324.369C475.214 321.872 476.968 319.737 479.217 318.235C481.467 316.734 484.112 315.932 486.817 315.932C490.445 315.932 493.924 317.372 496.49 319.935C499.055 322.498 500.496 325.974 500.496 329.599Z" fill="url(#paint31_linear_4791_53269)"/>
<path d="M27.8586 329.599C27.8586 332.302 27.0563 334.944 25.5532 337.192C24.0501 339.439 21.9137 341.191 19.4141 342.225C16.9146 343.26 14.1641 343.53 11.5106 343.003C8.85707 342.476 6.41965 341.174 4.50657 339.263C2.59349 337.351 1.29067 334.916 0.76285 332.265C0.235032 329.614 0.505927 326.866 1.54128 324.369C2.57663 321.872 4.32994 319.737 6.57948 318.235C8.82903 316.734 11.4738 315.932 14.1793 315.932C17.8072 315.932 21.2866 317.372 23.852 319.935C26.4173 322.498 27.8586 325.974 27.8586 329.599Z" fill="url(#paint32_linear_4791_53269)"/>
<path d="M170.036 0.264948C172.741 0.264948 175.386 1.06649 177.636 2.56822C179.885 4.06995 181.638 6.20441 182.674 8.70169C183.709 11.199 183.98 13.9469 183.452 16.598C182.924 19.2491 181.622 21.6843 179.709 23.5956C177.795 25.507 175.358 26.8086 172.704 27.3359C170.051 27.8633 167.301 27.5926 164.801 26.5582C162.301 25.5238 160.165 23.7721 158.662 21.5246C157.159 19.2771 156.357 16.6348 156.357 13.9317C156.357 10.3071 157.798 6.83088 160.363 4.26786C162.928 1.70484 166.408 0.264948 170.036 0.264948Z" fill="url(#paint33_linear_4791_53269)"/>
<path d="M170.036 472.477C172.741 472.477 175.386 473.278 177.636 474.78C179.885 476.282 181.638 478.416 182.674 480.914C183.709 483.411 183.98 486.159 183.452 488.81C182.924 491.461 181.622 493.896 179.709 495.808C177.795 497.719 175.358 499.021 172.704 499.548C170.051 500.075 167.301 499.805 164.801 498.77C162.301 497.736 160.165 495.984 158.662 493.737C157.159 491.489 156.357 488.847 156.357 486.144C156.357 482.519 157.798 479.043 160.363 476.48C162.928 473.917 166.408 472.477 170.036 472.477Z" fill="url(#paint34_linear_4791_53269)"/>
<path d="M329.383 0.264948C332.081 0.297626 334.709 1.12686 336.937 2.64831C339.165 4.16977 340.892 6.31547 341.902 8.81545C342.912 11.3154 343.159 14.058 342.613 16.6981C342.067 19.3382 340.751 21.7579 338.831 23.6527C336.912 25.5475 334.474 26.8327 331.825 27.3468C329.177 27.8608 326.435 27.5807 323.945 26.5416C321.455 25.5025 319.328 23.7509 317.832 21.5071C316.336 19.2633 315.538 16.6277 315.538 13.9317C315.538 10.3071 316.979 6.83088 319.544 4.26786C322.11 1.70484 325.589 0.264948 329.217 0.264948" fill="url(#paint35_linear_4791_53269)"/>
<path d="M329.383 472.477C332.081 472.51 334.709 473.339 336.937 474.86C339.165 476.382 340.892 478.527 341.902 481.027C342.912 483.527 343.159 486.27 342.613 488.91C342.067 491.55 340.751 493.97 338.831 495.865C336.912 497.759 334.474 499.045 331.825 499.559C329.177 500.073 326.435 499.793 323.945 498.754C321.455 497.714 319.328 495.963 317.832 493.719C316.336 491.475 315.538 488.84 315.538 486.144C315.538 482.519 316.979 479.043 319.544 476.48C322.11 473.917 325.589 472.477 329.217 472.477" fill="url(#paint36_linear_4791_53269)"/>
<path d="M493.203 406.877C493.219 408.306 492.81 409.707 492.028 410.903C491.245 412.099 490.125 413.035 488.808 413.593C487.492 414.152 486.039 414.306 484.635 414.038C483.23 413.769 481.937 413.089 480.92 412.085C479.903 411.08 479.208 409.797 478.923 408.397C478.638 406.997 478.776 405.543 479.319 404.222C479.862 402.9 480.787 401.77 481.975 400.974C483.163 400.179 484.56 399.754 485.99 399.754C486.934 399.743 487.87 399.919 488.744 400.272C489.619 400.625 490.415 401.148 491.086 401.811C491.756 402.473 492.289 403.262 492.652 404.132C493.016 405.002 493.203 405.935 493.203 406.877Z" fill="url(#paint37_linear_4791_53269)"/>
<path d="M23.7174 408.452C23.7338 409.884 23.3226 411.288 22.5364 412.486C21.7502 413.684 20.6246 414.62 19.3034 415.176C17.9821 415.732 16.525 415.881 15.1182 415.606C13.7114 415.33 12.4187 414.642 11.405 413.63C10.3913 412.617 9.70269 411.325 9.42703 409.92C9.15138 408.514 9.30119 407.059 9.85735 405.738C10.4135 404.418 11.3508 403.294 12.5495 402.508C13.7483 401.723 15.1541 401.312 16.5876 401.328C18.4718 401.35 20.2728 402.107 21.6053 403.439C22.9378 404.77 23.6958 406.569 23.7174 408.452Z" fill="url(#paint38_linear_4791_53269)"/>
<path d="M493.203 100.075C493.219 101.507 492.808 102.912 492.022 104.11C491.236 105.307 490.11 106.244 488.789 106.799C487.468 107.355 486.011 107.505 484.604 107.229C483.197 106.954 481.904 106.266 480.891 105.253C479.877 104.24 479.188 102.949 478.913 101.543C478.637 100.138 478.787 98.6821 479.343 97.362C479.899 96.0419 480.836 94.9174 482.035 94.1319C483.234 93.3464 484.64 92.9356 486.073 92.952C487.957 92.9735 489.758 93.7309 491.091 95.0622C492.423 96.3934 493.181 98.1928 493.203 100.075Z" fill="url(#paint39_linear_4791_53269)"/>
<path d="M23.7174 101.736C23.7338 103.168 23.3226 104.573 22.5364 105.771C21.7502 106.968 20.6246 107.905 19.3034 108.46C17.9821 109.016 16.525 109.166 15.1182 108.89C13.7114 108.615 12.4187 107.927 11.405 106.914C10.3913 105.901 9.70269 104.61 9.42703 103.204C9.15138 101.799 9.30119 100.343 9.85735 99.0229C10.4135 97.7028 11.3508 96.5783 12.5495 95.7928C13.7483 95.0073 15.1541 94.5965 16.5876 94.6129C18.4785 94.6129 20.292 95.3634 21.6291 96.6993C22.9662 98.0351 23.7174 99.847 23.7174 101.736Z" fill="url(#paint40_linear_4791_53269)"/>
<path d="M406.728 8.22477C408.161 8.2084 409.567 8.61918 410.766 9.40466C411.965 10.1901 412.902 11.3147 413.458 12.6348C414.014 13.9548 414.164 15.4106 413.888 16.8161C413.613 18.2216 412.924 19.5132 411.91 20.5259C410.897 21.5387 409.604 22.2267 408.197 22.5021C406.79 22.7775 405.333 22.6278 404.012 22.0722C402.691 21.5165 401.565 20.5801 400.779 19.3824C399.993 18.1848 399.582 16.7802 399.598 15.3481C399.62 13.4655 400.378 11.6662 401.71 10.3349C403.043 9.00369 404.844 8.24629 406.728 8.22477Z" fill="url(#paint41_linear_4791_53269)"/>
<path d="M405.325 477.287C406.758 477.271 408.164 477.682 409.363 478.467C410.561 479.253 411.499 480.377 412.055 481.697C412.611 483.018 412.761 484.473 412.485 485.879C412.209 487.284 411.521 488.576 410.507 489.589C409.493 490.601 408.201 491.289 406.794 491.565C405.387 491.84 403.93 491.691 402.609 491.135C401.288 490.579 400.162 489.643 399.376 488.445C398.59 487.247 398.178 485.843 398.195 484.411C398.216 482.528 398.974 480.729 400.307 479.398C401.639 478.066 403.44 477.309 405.325 477.287Z" fill="url(#paint42_linear_4791_53269)"/>
<path d="M97.2494 8.22477C98.6829 8.2084 100.089 8.61918 101.287 9.40466C102.486 10.1901 103.423 11.3147 103.98 12.6348C104.536 13.9548 104.686 15.4106 104.41 16.8161C104.134 18.2216 103.446 19.5132 102.432 20.5259C101.418 21.5387 100.126 22.2267 98.7187 22.5021C97.3119 22.7775 95.8549 22.6278 94.5336 22.0722C93.2123 21.5165 92.0867 20.5801 91.3005 19.3824C90.5143 18.1848 90.1032 16.7802 90.1196 15.3481C90.1196 13.4589 90.8708 11.647 92.2079 10.3111C93.5449 8.97526 95.3584 8.22477 97.2494 8.22477Z" fill="url(#paint43_linear_4791_53269)"/>
<path d="M97.2494 477.287C98.6829 477.271 100.089 477.682 101.287 478.467C102.486 479.253 103.423 480.377 103.98 481.697C104.536 483.018 104.686 484.473 104.41 485.879C104.134 487.284 103.446 488.576 102.432 489.589C101.418 490.601 100.126 491.289 98.7187 491.565C97.3119 491.84 95.8549 491.691 94.5336 491.135C93.2123 490.579 92.0867 489.643 91.3005 488.445C90.5143 487.247 90.1032 485.843 90.1196 484.411C90.1196 482.522 90.8708 480.71 92.2079 479.374C93.5449 478.038 95.3584 477.287 97.2494 477.287Z" fill="url(#paint44_linear_4791_53269)"/>
</g>
<defs>
<linearGradient id="paint0_linear_4791_53269" x1="250.5" y1="0.189453" x2="250.5" y2="499.81" gradientUnits="userSpaceOnUse">
<stop offset="0.240061" stop-color="white" stop-opacity="0.1"/>
<stop offset="0.5" stop-color="white"/>
<stop offset="0.802442" stop-color="white" stop-opacity="0.1"/>
</linearGradient>
<linearGradient id="paint1_linear_4791_53269" x1="250.5" y1="0.189453" x2="250.5" y2="499.81" gradientUnits="userSpaceOnUse">
<stop offset="0.240061" stop-color="white" stop-opacity="0.1"/>
<stop offset="0.5" stop-color="white"/>
<stop offset="0.802442" stop-color="white" stop-opacity="0.1"/>
</linearGradient>
<linearGradient id="paint2_linear_4791_53269" x1="250.5" y1="0.189453" x2="250.5" y2="499.81" gradientUnits="userSpaceOnUse">
<stop offset="0.240061" stop-color="white" stop-opacity="0.1"/>
<stop offset="0.5" stop-color="white"/>
<stop offset="0.802442" stop-color="white" stop-opacity="0.1"/>
</linearGradient>
<linearGradient id="paint3_linear_4791_53269" x1="250.5" y1="0.189453" x2="250.5" y2="499.81" gradientUnits="userSpaceOnUse">
<stop offset="0.240061" stop-color="white" stop-opacity="0.1"/>
<stop offset="0.5" stop-color="white"/>
<stop offset="0.802442" stop-color="white" stop-opacity="0.1"/>
</linearGradient>
<linearGradient id="paint4_linear_4791_53269" x1="250.5" y1="0.189453" x2="250.5" y2="499.81" gradientUnits="userSpaceOnUse">
<stop offset="0.240061" stop-color="white" stop-opacity="0.1"/>
<stop offset="0.5" stop-color="white"/>
<stop offset="0.802442" stop-color="white" stop-opacity="0.1"/>
</linearGradient>
<linearGradient id="paint5_linear_4791_53269" x1="250.5" y1="0.189453" x2="250.5" y2="499.81" gradientUnits="userSpaceOnUse">
<stop offset="0.240061" stop-color="white" stop-opacity="0.1"/>
<stop offset="0.5" stop-color="white"/>
<stop offset="0.802442" stop-color="white" stop-opacity="0.1"/>
</linearGradient>
<linearGradient id="paint6_linear_4791_53269" x1="250.5" y1="0.189453" x2="250.5" y2="499.81" gradientUnits="userSpaceOnUse">
<stop offset="0.240061" stop-color="white" stop-opacity="0.1"/>
<stop offset="0.5" stop-color="white"/>
<stop offset="0.802442" stop-color="white" stop-opacity="0.1"/>
</linearGradient>
<linearGradient id="paint7_linear_4791_53269" x1="250.5" y1="0.189453" x2="250.5" y2="499.81" gradientUnits="userSpaceOnUse">
<stop offset="0.240061" stop-color="white" stop-opacity="0.1"/>
<stop offset="0.5" stop-color="white"/>
<stop offset="0.802442" stop-color="white" stop-opacity="0.1"/>
</linearGradient>
<linearGradient id="paint8_linear_4791_53269" x1="250.5" y1="0.189453" x2="250.5" y2="499.81" gradientUnits="userSpaceOnUse">
<stop offset="0.240061" stop-color="white" stop-opacity="0.1"/>
<stop offset="0.5" stop-color="white"/>
<stop offset="0.802442" stop-color="white" stop-opacity="0.1"/>
</linearGradient>
<linearGradient id="paint9_linear_4791_53269" x1="250.5" y1="0.189453" x2="250.5" y2="499.81" gradientUnits="userSpaceOnUse">
<stop offset="0.240061" stop-color="white" stop-opacity="0.1"/>
<stop offset="0.5" stop-color="white"/>
<stop offset="0.802442" stop-color="white" stop-opacity="0.1"/>
</linearGradient>
<linearGradient id="paint10_linear_4791_53269" x1="250.5" y1="0.189453" x2="250.5" y2="499.81" gradientUnits="userSpaceOnUse">
<stop offset="0.240061" stop-color="white" stop-opacity="0.1"/>
<stop offset="0.5" stop-color="white"/>
<stop offset="0.802442" stop-color="white" stop-opacity="0.1"/>
</linearGradient>
<linearGradient id="paint11_linear_4791_53269" x1="250.5" y1="0.189453" x2="250.5" y2="499.81" gradientUnits="userSpaceOnUse">
<stop offset="0.240061" stop-color="white" stop-opacity="0.1"/>
<stop offset="0.5" stop-color="white"/>
<stop offset="0.802442" stop-color="white" stop-opacity="0.1"/>
</linearGradient>
<linearGradient id="paint12_linear_4791_53269" x1="250.5" y1="0.189453" x2="250.5" y2="499.81" gradientUnits="userSpaceOnUse">
<stop offset="0.240061" stop-color="white" stop-opacity="0.1"/>
<stop offset="0.5" stop-color="white"/>
<stop offset="0.802442" stop-color="white" stop-opacity="0.1"/>
</linearGradient>
<linearGradient id="paint13_linear_4791_53269" x1="250.5" y1="0.189453" x2="250.5" y2="499.81" gradientUnits="userSpaceOnUse">
<stop offset="0.240061" stop-color="white" stop-opacity="0.1"/>
<stop offset="0.5" stop-color="white"/>
<stop offset="0.802442" stop-color="white" stop-opacity="0.1"/>
</linearGradient>
<linearGradient id="paint14_linear_4791_53269" x1="250.5" y1="0.189453" x2="250.5" y2="499.81" gradientUnits="userSpaceOnUse">
<stop offset="0.240061" stop-color="white" stop-opacity="0.1"/>
<stop offset="0.5" stop-color="white"/>
<stop offset="0.802442" stop-color="white" stop-opacity="0.1"/>
</linearGradient>
<linearGradient id="paint15_linear_4791_53269" x1="250.5" y1="0.189453" x2="250.5" y2="499.81" gradientUnits="userSpaceOnUse">
<stop offset="0.240061" stop-color="white" stop-opacity="0.1"/>
<stop offset="0.5" stop-color="white"/>
<stop offset="0.802442" stop-color="white" stop-opacity="0.1"/>
</linearGradient>
<linearGradient id="paint16_linear_4791_53269" x1="250.5" y1="0.189453" x2="250.5" y2="499.81" gradientUnits="userSpaceOnUse">
<stop offset="0.240061" stop-color="white" stop-opacity="0.1"/>
<stop offset="0.5" stop-color="white"/>
<stop offset="0.802442" stop-color="white" stop-opacity="0.1"/>
</linearGradient>
<linearGradient id="paint17_linear_4791_53269" x1="250.5" y1="0.189453" x2="250.5" y2="499.81" gradientUnits="userSpaceOnUse">
<stop offset="0.240061" stop-color="white" stop-opacity="0.1"/>
<stop offset="0.5" stop-color="white"/>
<stop offset="0.802442" stop-color="white" stop-opacity="0.1"/>
</linearGradient>
<linearGradient id="paint18_linear_4791_53269" x1="250.5" y1="0.189453" x2="250.5" y2="499.81" gradientUnits="userSpaceOnUse">
<stop offset="0.240061" stop-color="white" stop-opacity="0.1"/>
<stop offset="0.5" stop-color="white"/>
<stop offset="0.802442" stop-color="white" stop-opacity="0.1"/>
</linearGradient>
<linearGradient id="paint19_linear_4791_53269" x1="250.5" y1="0.189453" x2="250.5" y2="499.81" gradientUnits="userSpaceOnUse">
<stop offset="0.240061" stop-color="white" stop-opacity="0.1"/>
<stop offset="0.5" stop-color="white"/>
<stop offset="0.802442" stop-color="white" stop-opacity="0.1"/>
</linearGradient>
<linearGradient id="paint20_linear_4791_53269" x1="250.5" y1="0.189453" x2="250.5" y2="499.81" gradientUnits="userSpaceOnUse">
<stop offset="0.240061" stop-color="white" stop-opacity="0.1"/>
<stop offset="0.5" stop-color="white"/>
<stop offset="0.802442" stop-color="white" stop-opacity="0.1"/>
</linearGradient>
<linearGradient id="paint21_linear_4791_53269" x1="250.5" y1="0.189453" x2="250.5" y2="499.81" gradientUnits="userSpaceOnUse">
<stop offset="0.240061" stop-color="white" stop-opacity="0.1"/>
<stop offset="0.5" stop-color="white"/>
<stop offset="0.802442" stop-color="white" stop-opacity="0.1"/>
</linearGradient>
<linearGradient id="paint22_linear_4791_53269" x1="250.5" y1="0.189453" x2="250.5" y2="499.81" gradientUnits="userSpaceOnUse">
<stop offset="0.240061" stop-color="white" stop-opacity="0.1"/>
<stop offset="0.5" stop-color="white"/>
<stop offset="0.802442" stop-color="white" stop-opacity="0.1"/>
</linearGradient>
<linearGradient id="paint23_linear_4791_53269" x1="250.5" y1="0.189453" x2="250.5" y2="499.81" gradientUnits="userSpaceOnUse">
<stop offset="0.240061" stop-color="white" stop-opacity="0.1"/>
<stop offset="0.5" stop-color="white"/>
<stop offset="0.802442" stop-color="white" stop-opacity="0.1"/>
</linearGradient>
<linearGradient id="paint24_linear_4791_53269" x1="250.5" y1="0.189453" x2="250.5" y2="499.81" gradientUnits="userSpaceOnUse">
<stop offset="0.240061" stop-color="white" stop-opacity="0.1"/>
<stop offset="0.5" stop-color="white"/>
<stop offset="0.802442" stop-color="white" stop-opacity="0.1"/>
</linearGradient>
<linearGradient id="paint25_linear_4791_53269" x1="250.5" y1="0.189453" x2="250.5" y2="499.81" gradientUnits="userSpaceOnUse">
<stop offset="0.240061" stop-color="white" stop-opacity="0.1"/>
<stop offset="0.5" stop-color="white"/>
<stop offset="0.802442" stop-color="white" stop-opacity="0.1"/>
</linearGradient>
<linearGradient id="paint26_linear_4791_53269" x1="250.5" y1="0.189453" x2="250.5" y2="499.81" gradientUnits="userSpaceOnUse">
<stop offset="0.240061" stop-color="white" stop-opacity="0.1"/>
<stop offset="0.5" stop-color="white"/>
<stop offset="0.802442" stop-color="white" stop-opacity="0.1"/>
</linearGradient>
<linearGradient id="paint27_linear_4791_53269" x1="250.5" y1="0.189453" x2="250.5" y2="499.81" gradientUnits="userSpaceOnUse">
<stop offset="0.240061" stop-color="white" stop-opacity="0.1"/>
<stop offset="0.5" stop-color="white"/>
<stop offset="0.802442" stop-color="white" stop-opacity="0.1"/>
</linearGradient>
<linearGradient id="paint28_linear_4791_53269" x1="250.5" y1="0.189453" x2="250.5" y2="499.81" gradientUnits="userSpaceOnUse">
<stop offset="0.240061" stop-color="white" stop-opacity="0.1"/>
<stop offset="0.5" stop-color="white"/>
<stop offset="0.802442" stop-color="white" stop-opacity="0.1"/>
</linearGradient>
<linearGradient id="paint29_linear_4791_53269" x1="250.5" y1="0.189453" x2="250.5" y2="499.81" gradientUnits="userSpaceOnUse">
<stop offset="0.240061" stop-color="white" stop-opacity="0.1"/>
<stop offset="0.5" stop-color="white"/>
<stop offset="0.802442" stop-color="white" stop-opacity="0.1"/>
</linearGradient>
<linearGradient id="paint30_linear_4791_53269" x1="250.5" y1="0.189453" x2="250.5" y2="499.81" gradientUnits="userSpaceOnUse">
<stop offset="0.240061" stop-color="white" stop-opacity="0.1"/>
<stop offset="0.5" stop-color="white"/>
<stop offset="0.802442" stop-color="white" stop-opacity="0.1"/>
</linearGradient>
<linearGradient id="paint31_linear_4791_53269" x1="250.5" y1="0.189453" x2="250.5" y2="499.81" gradientUnits="userSpaceOnUse">
<stop offset="0.240061" stop-color="white" stop-opacity="0.1"/>
<stop offset="0.5" stop-color="white"/>
<stop offset="0.802442" stop-color="white" stop-opacity="0.1"/>
</linearGradient>
<linearGradient id="paint32_linear_4791_53269" x1="250.5" y1="0.189453" x2="250.5" y2="499.81" gradientUnits="userSpaceOnUse">
<stop offset="0.240061" stop-color="white" stop-opacity="0.1"/>
<stop offset="0.5" stop-color="white"/>
<stop offset="0.802442" stop-color="white" stop-opacity="0.1"/>
</linearGradient>
<linearGradient id="paint33_linear_4791_53269" x1="250.5" y1="0.189453" x2="250.5" y2="499.81" gradientUnits="userSpaceOnUse">
<stop offset="0.240061" stop-color="white" stop-opacity="0.1"/>
<stop offset="0.5" stop-color="white"/>
<stop offset="0.802442" stop-color="white" stop-opacity="0.1"/>
</linearGradient>
<linearGradient id="paint34_linear_4791_53269" x1="250.5" y1="0.189453" x2="250.5" y2="499.81" gradientUnits="userSpaceOnUse">
<stop offset="0.240061" stop-color="white" stop-opacity="0.1"/>
<stop offset="0.5" stop-color="white"/>
<stop offset="0.802442" stop-color="white" stop-opacity="0.1"/>
</linearGradient>
<linearGradient id="paint35_linear_4791_53269" x1="250.5" y1="0.189453" x2="250.5" y2="499.81" gradientUnits="userSpaceOnUse">
<stop offset="0.240061" stop-color="white" stop-opacity="0.1"/>
<stop offset="0.5" stop-color="white"/>
<stop offset="0.802442" stop-color="white" stop-opacity="0.1"/>
</linearGradient>
<linearGradient id="paint36_linear_4791_53269" x1="250.5" y1="0.189453" x2="250.5" y2="499.81" gradientUnits="userSpaceOnUse">
<stop offset="0.240061" stop-color="white" stop-opacity="0.1"/>
<stop offset="0.5" stop-color="white"/>
<stop offset="0.802442" stop-color="white" stop-opacity="0.1"/>
</linearGradient>
<linearGradient id="paint37_linear_4791_53269" x1="250.5" y1="0.189453" x2="250.5" y2="499.81" gradientUnits="userSpaceOnUse">
<stop offset="0.240061" stop-color="white" stop-opacity="0.1"/>
<stop offset="0.5" stop-color="white"/>
<stop offset="0.802442" stop-color="white" stop-opacity="0.1"/>
</linearGradient>
<linearGradient id="paint38_linear_4791_53269" x1="250.5" y1="0.189453" x2="250.5" y2="499.81" gradientUnits="userSpaceOnUse">
<stop offset="0.240061" stop-color="white" stop-opacity="0.1"/>
<stop offset="0.5" stop-color="white"/>
<stop offset="0.802442" stop-color="white" stop-opacity="0.1"/>
</linearGradient>
<linearGradient id="paint39_linear_4791_53269" x1="250.5" y1="0.189453" x2="250.5" y2="499.81" gradientUnits="userSpaceOnUse">
<stop offset="0.240061" stop-color="white" stop-opacity="0.1"/>
<stop offset="0.5" stop-color="white"/>
<stop offset="0.802442" stop-color="white" stop-opacity="0.1"/>
</linearGradient>
<linearGradient id="paint40_linear_4791_53269" x1="250.5" y1="0.189453" x2="250.5" y2="499.81" gradientUnits="userSpaceOnUse">
<stop offset="0.240061" stop-color="white" stop-opacity="0.1"/>
<stop offset="0.5" stop-color="white"/>
<stop offset="0.802442" stop-color="white" stop-opacity="0.1"/>
</linearGradient>
<linearGradient id="paint41_linear_4791_53269" x1="250.5" y1="0.189453" x2="250.5" y2="499.81" gradientUnits="userSpaceOnUse">
<stop offset="0.240061" stop-color="white" stop-opacity="0.1"/>
<stop offset="0.5" stop-color="white"/>
<stop offset="0.802442" stop-color="white" stop-opacity="0.1"/>
</linearGradient>
<linearGradient id="paint42_linear_4791_53269" x1="250.5" y1="0.189453" x2="250.5" y2="499.81" gradientUnits="userSpaceOnUse">
<stop offset="0.240061" stop-color="white" stop-opacity="0.1"/>
<stop offset="0.5" stop-color="white"/>
<stop offset="0.802442" stop-color="white" stop-opacity="0.1"/>
</linearGradient>
<linearGradient id="paint43_linear_4791_53269" x1="250.5" y1="0.189453" x2="250.5" y2="499.81" gradientUnits="userSpaceOnUse">
<stop offset="0.240061" stop-color="white" stop-opacity="0.1"/>
<stop offset="0.5" stop-color="white"/>
<stop offset="0.802442" stop-color="white" stop-opacity="0.1"/>
</linearGradient>
<linearGradient id="paint44_linear_4791_53269" x1="250.5" y1="0.189453" x2="250.5" y2="499.81" gradientUnits="userSpaceOnUse">
<stop offset="0.240061" stop-color="white" stop-opacity="0.1"/>
<stop offset="0.5" stop-color="white"/>
<stop offset="0.802442" stop-color="white" stop-opacity="0.1"/>
</linearGradient>
</defs>
</svg>
