<svg width="119" height="24" viewBox="0 0 119 24" fill="none" xmlns="http://www.w3.org/2000/svg">
<g clip-path="url(#clip0_4791_53271)">
<path d="M27.2836 9.30724V5.93224C27.3918 4.71454 27.8819 3.56214 28.684 2.63953C29.486 1.71692 30.5591 1.07127 31.7499 0.794744C32.1294 0.71991 32.5232 0.790531 32.8531 0.992587C33.1829 1.19464 33.4248 1.51336 33.5305 1.88545C33.6363 2.25755 33.5983 2.65581 33.424 3.00118C33.2498 3.34654 32.952 3.61375 32.5899 3.74974C32.107 3.91078 31.6772 4.20053 31.3468 4.58776C31.0164 4.97499 30.7979 5.44503 30.7149 5.94724H33.2986C33.7034 5.94724 34.0916 6.10804 34.3778 6.39427C34.6641 6.6805 34.8249 7.06871 34.8249 7.47349V7.49974C34.8249 7.90453 34.6641 8.29274 34.3778 8.57897C34.0916 8.86519 33.7034 9.02599 33.2986 9.02599H30.7899V18.026C30.8008 18.263 30.7636 18.4998 30.6805 18.7221C30.5973 18.9443 30.4699 19.1474 30.3061 19.3191C30.1422 19.4907 29.9452 19.6273 29.727 19.7206C29.5089 19.814 29.274 19.8621 29.0367 19.8621C28.7994 19.8621 28.5646 19.814 28.3464 19.7206C28.1283 19.6273 27.9313 19.4907 27.7674 19.3191C27.6035 19.1474 27.4762 18.9443 27.393 18.7221C27.3099 18.4998 27.2726 18.263 27.2836 18.026V9.30724Z" fill="#D5E2E8"/>
<path d="M38.8749 11.6588C38.8615 10.3609 39.2928 9.09759 40.0972 8.07896C40.9016 7.06034 42.0305 6.34786 43.2962 6.06006C43.6885 5.97416 44.0988 6.04065 44.444 6.24605C44.7891 6.45146 45.0432 6.78041 45.1548 7.16623C45.2664 7.55206 45.2272 7.96588 45.045 8.32381C44.8628 8.68174 44.5513 8.95701 44.1737 9.09381C43.0487 9.45006 42.3212 10.4363 42.3212 12.0938V18.0938C42.332 18.3269 42.2955 18.5597 42.2138 18.7782C42.1322 18.9968 42.007 19.1964 41.8459 19.3652C41.6848 19.534 41.4912 19.6683 41.2767 19.7601C41.0622 19.8519 40.8313 19.8992 40.598 19.8992C40.3647 19.8992 40.1339 19.8519 39.9194 19.7601C39.7049 19.6683 39.5113 19.534 39.3502 19.3652C39.1891 19.1964 39.0639 18.9968 38.9822 18.7782C38.9006 18.5597 38.864 18.3269 38.8749 18.0938V11.6588Z" fill="#D5E2E8"/>
<path d="M52.3409 5.95117C52.8024 5.95117 53.2449 6.13449 53.5712 6.46081C53.8976 6.78712 54.0809 7.2297 54.0809 7.69117L54.0509 18.0562C54.0618 18.2912 54.0249 18.526 53.9425 18.7464C53.8601 18.9668 53.7338 19.1682 53.5714 19.3384C53.4089 19.5086 53.2136 19.6441 52.9972 19.7366C52.7809 19.8292 52.5481 19.8769 52.3128 19.8769C52.0775 19.8769 51.8446 19.8292 51.6283 19.7366C51.4119 19.6441 51.2166 19.5086 51.0542 19.3384C50.8917 19.1682 50.7654 18.9668 50.683 18.7464C50.6006 18.526 50.5637 18.2912 50.5746 18.0562L50.6046 7.69117C50.6041 7.46285 50.6487 7.23667 50.7357 7.02559C50.8227 6.8145 50.9506 6.62266 51.1118 6.46103C51.2731 6.29941 51.4647 6.17118 51.6756 6.08369C51.8865 5.9962 52.1126 5.95117 52.3409 5.95117Z" fill="#D5E2E8"/>
<path d="M59.5489 16.65C59.7359 16.32 60.0447 16.0763 60.4092 15.9712C60.7736 15.8661 61.1648 15.9078 61.4989 16.0875C62.345 16.5705 63.2932 16.8468 64.2664 16.8937C64.9901 16.8937 66.2914 16.7137 66.2914 15.7162C66.2914 13.6575 59.4889 14.1112 59.4889 9.91125C59.5001 7.2225 62.0276 6 64.3751 6C65.6545 6.03596 66.9098 6.3562 68.0501 6.9375C68.2291 7.02516 68.3891 7.14721 68.5209 7.2967C68.6528 7.44619 68.7539 7.62018 68.8185 7.80874C68.8831 7.9973 68.9099 8.19674 68.8974 8.39567C68.8849 8.5946 68.8334 8.78912 68.7457 8.96813C68.6581 9.14713 68.536 9.30712 68.3865 9.43896C68.237 9.5708 68.063 9.6719 67.8745 9.73649C67.6859 9.80109 67.4865 9.82791 67.2876 9.81543C67.0886 9.80295 66.8941 9.75141 66.7151 9.66375C65.9969 9.25598 65.1983 9.01024 64.3751 8.94375C63.8314 8.94375 63.0139 9.06375 63.0139 9.76125C63.0139 11.8763 69.8164 11.0888 69.8164 15.6863C69.8164 18.555 66.8539 19.8113 64.3451 19.8113C62.8669 19.7783 61.4179 19.3925 60.1188 18.6863C59.9487 18.5975 59.7982 18.4753 59.6763 18.3271C59.5544 18.1788 59.4636 18.0075 59.4093 17.8234C59.3551 17.6393 59.3385 17.4462 59.3605 17.2555C59.3826 17.0649 59.4428 16.8806 59.5376 16.7137L59.5489 16.65Z" fill="#D5E2E8"/>
<path d="M73.9674 16.65C74.1537 16.3202 74.4618 16.0767 74.8257 15.9715C75.1895 15.8663 75.5801 15.908 75.9136 16.0875C76.7597 16.5705 77.708 16.8467 78.6811 16.8937C79.4086 16.8937 80.7061 16.7137 80.7061 15.7162C80.7061 13.6575 73.9074 14.1112 73.9074 9.91123C73.9074 7.22248 76.4461 6.01123 78.8011 6.01123C80.0805 6.04719 81.3359 6.36743 82.4761 6.94873C82.6551 7.03614 82.8152 7.15796 82.9471 7.30722C83.079 7.45648 83.1803 7.63026 83.245 7.81865C83.3098 8.00704 83.3368 8.20633 83.3246 8.40517C83.3123 8.604 83.261 8.79847 83.1736 8.97748C83.0862 9.15649 82.9644 9.31653 82.8151 9.44846C82.6659 9.58039 82.4921 9.68163 82.3037 9.7464C82.1153 9.81117 81.916 9.8382 81.7172 9.82594C81.5183 9.81369 81.3239 9.76239 81.1449 9.67498C80.4171 9.25947 79.6065 9.00978 78.7711 8.94373C78.2274 8.94373 77.4136 9.06373 77.4136 9.76123C77.4136 11.8762 84.2124 11.0887 84.2124 15.6862C84.2124 18.555 81.2499 19.8112 78.7411 19.8112C77.2877 19.782 75.8617 19.4107 74.5786 18.7275C74.401 18.6404 74.243 18.5181 74.114 18.3682C73.985 18.2183 73.8878 18.0437 73.8282 17.8551C73.7686 17.6665 73.7479 17.4678 73.7673 17.271C73.7867 17.0742 73.8458 16.8833 73.9411 16.71L73.9674 16.65Z" fill="#D5E2E8"/>
<path d="M87.715 12.9039C87.7209 11.5408 88.131 10.2099 88.8932 9.07979C89.6555 7.94964 90.7358 7.07092 91.9975 6.55473C93.2592 6.03855 94.6456 5.9081 95.9815 6.17986C97.3173 6.45163 98.5426 7.11342 99.5023 8.08153C100.462 9.04965 101.113 10.2806 101.373 11.6188C101.633 12.9569 101.491 14.3422 100.964 15.5993C100.437 16.8565 99.5485 17.9291 98.4117 18.6815C97.275 19.4339 95.9407 19.8324 94.5775 19.8264C93.6719 19.824 92.7757 19.6428 91.9403 19.2933C91.1049 18.9438 90.3467 18.4329 89.7092 17.7898C89.0716 17.1467 88.5673 16.384 88.2251 15.5456C87.8829 14.7072 87.7095 13.8095 87.715 12.9039ZM94.6375 16.5302C95.3309 16.5302 96.0088 16.3246 96.5854 15.9393C97.162 15.554 97.6114 15.0064 97.8768 14.3657C98.1422 13.725 98.2116 13.0201 98.0763 12.3399C97.9411 11.6598 97.6071 11.035 97.1168 10.5446C96.6264 10.0543 96.0016 9.72035 95.3215 9.58506C94.6414 9.44977 93.9364 9.51921 93.2957 9.78459C92.655 10.05 92.1074 10.4994 91.7221 11.076C91.3369 11.6526 91.1312 12.3305 91.1312 13.0239C91.1332 13.9532 91.5032 14.8439 92.1604 15.501C92.8175 16.1582 93.7082 16.5282 94.6375 16.5302Z" fill="#D5E2E8"/>
<path d="M105.456 11.7562C105.456 8.67373 108.025 6.01123 111.775 6.01123C115.525 6.01123 118.12 8.67373 118.12 11.7562V18.0562C118.131 18.2913 118.094 18.5261 118.012 18.7465C117.929 18.9669 117.803 19.1683 117.64 19.3385C117.478 19.5087 117.283 19.6441 117.066 19.7367C116.85 19.8293 116.617 19.877 116.382 19.877C116.147 19.877 115.914 19.8293 115.697 19.7367C115.481 19.6441 115.286 19.5087 115.123 19.3385C114.961 19.1683 114.835 18.9669 114.752 18.7465C114.67 18.5261 114.633 18.2913 114.644 18.0562V12.27C114.644 10.155 113.466 8.94373 111.775 8.94373C110.084 8.94373 108.932 10.155 108.932 12.27V18.0562C108.943 18.2913 108.907 18.5261 108.824 18.7465C108.742 18.9669 108.615 19.1683 108.453 19.3385C108.29 19.5087 108.095 19.6441 107.879 19.7367C107.663 19.8293 107.43 19.877 107.194 19.877C106.959 19.877 106.726 19.8293 106.51 19.7367C106.294 19.6441 106.098 19.5087 105.936 19.3385C105.773 19.1683 105.647 18.9669 105.565 18.7465C105.482 18.5261 105.445 18.2913 105.456 18.0562V11.7562Z" fill="#D5E2E8"/>
<path d="M17.0949 16.1251C17.0949 16.4331 17.0036 16.7341 16.8324 16.9901C16.6612 17.2461 16.4179 17.4456 16.1334 17.5632C15.8488 17.6809 15.5357 17.7115 15.2337 17.6512C14.9317 17.5908 14.6544 17.4422 14.4369 17.2242C14.2194 17.0062 14.0715 16.7285 14.0119 16.4264C13.9522 16.1243 13.9836 15.8113 14.102 15.5269C14.2203 15.2426 14.4204 14.9999 14.6768 14.8293C14.9332 14.6588 15.2345 14.5681 15.5424 14.5689C15.7466 14.5689 15.9488 14.6091 16.1374 14.6874C16.326 14.7656 16.4973 14.8803 16.6415 15.0249C16.7857 15.1695 16.9 15.341 16.9778 15.5298C17.0556 15.7186 17.0954 15.9209 17.0949 16.1251Z" fill="#D5E2E8"/>
<path d="M9.91377 16.1251C9.91377 16.4329 9.8225 16.7338 9.65149 16.9897C9.48049 17.2456 9.23744 17.4451 8.95307 17.5629C8.6687 17.6807 8.35579 17.7115 8.05391 17.6514C7.75203 17.5914 7.47473 17.4432 7.25709 17.2255C7.03944 17.0079 6.89122 16.7306 6.83117 16.4287C6.77112 16.1268 6.80194 15.8139 6.91973 15.5295C7.03752 15.2452 7.23699 15.0021 7.49291 14.8311C7.74884 14.6601 8.04972 14.5688 8.35752 14.5688C8.56189 14.5688 8.76426 14.6091 8.95307 14.6873C9.14188 14.7655 9.31344 14.8802 9.45796 15.0247C9.60247 15.1692 9.7171 15.3407 9.79531 15.5295C9.87352 15.7184 9.91377 15.9207 9.91377 16.1251Z" fill="#D5E2E8"/>
<path d="M17.0651 8.88746C17.0659 9.19542 16.9752 9.49667 16.8047 9.75309C16.6341 10.0095 16.3913 10.2096 16.107 10.3279C15.8227 10.4463 15.5097 10.4776 15.2076 10.418C14.9055 10.3584 14.6278 10.2105 14.4098 9.99297C14.1918 9.77548 14.0432 9.49819 13.9828 9.1962C13.9225 8.89422 13.9531 8.58112 14.0707 8.29653C14.1884 8.01194 14.3879 7.76867 14.6439 7.5975C14.8999 7.42633 15.2009 7.33496 15.5089 7.33496C15.921 7.33496 16.3162 7.49841 16.608 7.78945C16.8997 8.08049 17.0641 8.47537 17.0651 8.88746Z" fill="#D5E2E8"/>
<path d="M9.88007 8.88746C9.88082 9.19542 9.79018 9.49667 9.61962 9.75309C9.44907 10.0095 9.20628 10.2096 8.92198 10.3279C8.63768 10.4463 8.32465 10.4776 8.02252 10.418C7.72039 10.3584 7.44274 10.2105 7.22472 9.99297C7.0067 9.77548 6.85811 9.49819 6.79776 9.1962C6.7374 8.89422 6.768 8.58112 6.88568 8.29653C7.00336 8.01194 7.20282 7.76867 7.45883 7.5975C7.71483 7.42633 8.01587 7.33496 8.32382 7.33496C8.73592 7.33496 9.13119 7.49841 9.42294 7.78945C9.71468 8.08049 9.87908 8.47537 9.88007 8.88746Z" fill="#D5E2E8"/>
<path d="M20.425 12.4986C20.425 12.7508 20.3502 12.9973 20.2101 13.207C20.07 13.4167 19.8709 13.5801 19.6379 13.6766C19.4049 13.7731 19.1486 13.7983 18.9013 13.7491C18.6539 13.6999 18.4268 13.5785 18.2484 13.4002C18.0701 13.2219 17.9487 12.9947 17.8995 12.7474C17.8503 12.5 17.8756 12.2437 17.9721 12.0107C18.0686 11.7777 18.232 11.5786 18.4416 11.4385C18.6513 11.2984 18.8978 11.2236 19.15 11.2236C19.4882 11.2236 19.8125 11.358 20.0516 11.5971C20.2907 11.8362 20.425 12.1605 20.425 12.4986Z" fill="#D5E2E8"/>
<path d="M5.9875 12.4986C5.9875 12.751 5.91263 12.9976 5.77236 13.2074C5.6321 13.4171 5.43275 13.5805 5.19955 13.6769C4.96636 13.7733 4.70981 13.7984 4.46238 13.7489C4.21495 13.6994 3.98777 13.5776 3.80961 13.3989C3.63145 13.2202 3.51032 12.9926 3.46154 12.7451C3.41277 12.4975 3.43856 12.241 3.53563 12.0081C3.63271 11.7752 3.79671 11.5763 4.00688 11.4367C4.21704 11.297 4.46392 11.2229 4.71625 11.2236C4.88351 11.2236 5.04912 11.2566 5.2036 11.3208C5.35808 11.3849 5.49839 11.4789 5.61649 11.5973C5.73458 11.7157 5.82815 11.8563 5.89181 12.011C5.95548 12.1657 5.98799 12.3314 5.9875 12.4986Z" fill="#D5E2E8"/>
<path d="M13.9524 12.4988C13.9524 12.8987 13.8338 13.2897 13.6115 13.6221C13.3892 13.9546 13.0733 14.2137 12.7038 14.3665C12.3342 14.5194 11.9276 14.5592 11.5355 14.4809C11.1433 14.4026 10.7831 14.2098 10.5006 13.9267C10.2181 13.6436 10.0259 13.2831 9.94829 12.8908C9.87073 12.4985 9.91129 12.092 10.0648 11.7227C10.2184 11.3534 10.4781 11.038 10.8109 10.8164C11.1438 10.5947 11.535 10.4768 11.9349 10.4775C12.4703 10.4785 12.9835 10.6919 13.3617 11.0709C13.74 11.4498 13.9524 11.9634 13.9524 12.4988Z" fill="#D5E2E8"/>
<path d="M23.2413 12.4986C23.2413 12.6351 23.2009 12.7685 23.125 12.8819C23.0492 12.9954 22.9415 13.0838 22.8154 13.1361C22.6893 13.1883 22.5506 13.202 22.4167 13.1753C22.2829 13.1487 22.1599 13.083 22.0634 12.9865C21.9669 12.89 21.9012 12.7671 21.8746 12.6332C21.848 12.4994 21.8616 12.3606 21.9139 12.2345C21.9661 12.1085 22.0545 12.0007 22.168 11.9249C22.2815 11.8491 22.4149 11.8086 22.5513 11.8086C22.7343 11.8086 22.9098 11.8813 23.0392 12.0107C23.1686 12.1401 23.2413 12.3156 23.2413 12.4986Z" fill="#D5E2E8"/>
<path d="M2.005 12.4986C2.005 12.6351 1.96453 12.7685 1.88871 12.8819C1.8129 12.9954 1.70513 13.0838 1.57905 13.1361C1.45297 13.1883 1.31423 13.202 1.18039 13.1753C1.04654 13.1487 0.923595 13.083 0.827097 12.9865C0.730598 12.89 0.664882 12.7671 0.638258 12.6332C0.611635 12.4994 0.625299 12.3606 0.677523 12.2345C0.729748 12.1085 0.818187 12.0007 0.931657 11.9249C1.04513 11.8491 1.17853 11.8086 1.315 11.8086C1.4977 11.8096 1.67263 11.8826 1.80182 12.0118C1.931 12.141 2.00402 12.3159 2.005 12.4986Z" fill="#D5E2E8"/>
<path d="M17.2525 12.4989C17.2525 12.8423 17.1507 13.178 16.9599 13.4636C16.7691 13.7491 16.498 13.9716 16.1807 14.103C15.8635 14.2344 15.5144 14.2688 15.1776 14.2018C14.8408 14.1348 14.5314 13.9695 14.2886 13.7267C14.0457 13.4838 13.8804 13.1745 13.8134 12.8377C13.7464 12.5009 13.7808 12.1518 13.9122 11.8345C14.0436 11.5173 14.2661 11.2461 14.5517 11.0553C14.8372 10.8645 15.1729 10.7627 15.5163 10.7627C15.7444 10.7622 15.9704 10.8068 16.1813 10.8939C16.3922 10.9809 16.5838 11.1088 16.7451 11.2701C16.9064 11.4315 17.0343 11.6231 17.1214 11.8339C17.2085 12.0448 17.253 12.2708 17.2525 12.4989Z" fill="#D5E2E8"/>
<path d="M10.0824 12.4989C10.0824 12.8425 9.98044 13.1783 9.78949 13.4639C9.59854 13.7496 9.32716 13.9721 9.00968 14.1034C8.6922 14.2347 8.34291 14.2689 8.00601 14.2016C7.66911 14.1343 7.35974 13.9685 7.11707 13.7253C6.8744 13.4821 6.70934 13.1724 6.64277 12.8354C6.5762 12.4983 6.61112 12.1491 6.74311 11.8319C6.8751 11.5147 7.09822 11.2438 7.38424 11.0535C7.67025 10.8632 8.00631 10.762 8.34986 10.7627C8.5777 10.7627 8.80329 10.8076 9.01373 10.8949C9.22417 10.9822 9.41533 11.1102 9.57625 11.2715C9.73718 11.4327 9.86472 11.6242 9.95156 11.8348C10.0384 12.0454 10.0829 12.2711 10.0824 12.4989Z" fill="#D5E2E8"/>
<path d="M11.9347 7.17725C12.2781 7.17725 12.6138 7.27908 12.8993 7.46986C13.1849 7.66064 13.4074 7.93181 13.5388 8.24907C13.6702 8.56632 13.7046 8.91543 13.6376 9.25223C13.5706 9.58903 13.4053 9.8984 13.1625 10.1412C12.9196 10.384 12.6103 10.5494 12.2735 10.6164C11.9367 10.6834 11.5876 10.649 11.2703 10.5176C10.953 10.3862 10.6819 10.1636 10.4911 9.87811C10.3003 9.59258 10.1985 9.2569 10.1985 8.9135C10.198 8.68535 10.2426 8.45936 10.3296 8.24848C10.4167 8.03761 10.5446 7.84601 10.7059 7.68468C10.8672 7.52336 11.0588 7.39549 11.2697 7.30841C11.4806 7.22133 11.7066 7.17676 11.9347 7.17725Z" fill="#D5E2E8"/>
<path d="M11.9347 14.3477C12.2783 14.3477 12.6141 14.4496 12.8997 14.6405C13.1853 14.8315 13.4079 15.1029 13.5392 15.4203C13.6705 15.7378 13.7046 16.0871 13.6373 16.424C13.5701 16.7609 13.4043 17.0703 13.1611 17.313C12.9179 17.5556 12.6082 17.7207 12.2712 17.7873C11.9341 17.8538 11.5849 17.8189 11.2677 17.6869C10.9505 17.5549 10.6796 17.3318 10.4893 17.0458C10.2989 16.7598 10.1977 16.4237 10.1985 16.0802C10.1985 15.8523 10.2434 15.6267 10.3307 15.4163C10.418 15.2059 10.546 15.0147 10.7073 14.8538C10.8685 14.6928 11.06 14.5653 11.2706 14.4785C11.4812 14.3916 11.7069 14.3472 11.9347 14.3477Z" fill="#D5E2E8"/>
<path d="M11.9349 4.00488C12.1871 4.00488 12.4336 4.07966 12.6433 4.21976C12.8529 4.35986 13.0164 4.55899 13.1129 4.79196C13.2094 5.02494 13.2346 5.2813 13.1854 5.52862C13.1362 5.77595 13.0148 6.00313 12.8365 6.18144C12.6582 6.35976 12.431 6.48119 12.1837 6.53038C11.9363 6.57958 11.68 6.55433 11.447 6.45783C11.214 6.36133 11.0149 6.19791 10.8748 5.98823C10.7347 5.77856 10.6599 5.53205 10.6599 5.27988C10.6599 5.11245 10.6929 4.94665 10.757 4.79196C10.821 4.63727 10.915 4.49672 11.0334 4.37832C11.2725 4.13921 11.5968 4.00488 11.9349 4.00488Z" fill="#D5E2E8"/>
<path d="M11.9349 18.4424C12.1872 18.4424 12.4339 18.5173 12.6437 18.6575C12.8534 18.7978 13.0168 18.9971 13.1132 19.2303C13.2096 19.4635 13.2346 19.7201 13.1851 19.9675C13.1356 20.2149 13.0138 20.4421 12.8351 20.6203C12.6565 20.7984 12.4289 20.9196 12.1814 20.9683C11.9338 21.0171 11.6773 20.9913 11.4444 20.8943C11.2115 20.7972 11.0126 20.6332 10.873 20.423C10.7333 20.2128 10.6592 19.966 10.6599 19.7136C10.6599 19.5464 10.6929 19.3808 10.757 19.2263C10.8212 19.0718 10.9151 18.9315 11.0336 18.8134C11.152 18.6953 11.2926 18.6017 11.4473 18.5381C11.6019 18.4744 11.7677 18.4419 11.9349 18.4424Z" fill="#D5E2E8"/>
<path d="M11.9351 1.18882C12.0718 1.18882 12.2053 1.22939 12.3189 1.30537C12.4324 1.38136 12.5208 1.48934 12.573 1.61564C12.6251 1.74194 12.6385 1.88087 12.6116 2.01482C12.5847 2.14876 12.5186 2.2717 12.4217 2.36805C12.3248 2.4644 12.2015 2.52982 12.0674 2.55601C11.9333 2.58221 11.7945 2.56801 11.6685 2.51521C11.5425 2.46241 11.435 2.37339 11.3596 2.25943C11.2842 2.14547 11.2444 2.0117 11.2451 1.87507C11.2446 1.78432 11.2621 1.69437 11.2966 1.61043C11.3311 1.52649 11.3819 1.45023 11.4461 1.38606C11.5103 1.32188 11.5865 1.27108 11.6705 1.23658C11.7544 1.20208 11.8444 1.18457 11.9351 1.18507" fill="#D5E2E8"/>
<path d="M11.9346 22.4248C12.0711 22.4248 12.2045 22.4653 12.318 22.5411C12.4314 22.6169 12.5199 22.7247 12.5721 22.8508C12.6243 22.9768 12.638 23.1156 12.6114 23.2494C12.5847 23.3833 12.519 23.5062 12.4225 23.6027C12.326 23.6992 12.2031 23.7649 12.0692 23.7915C11.9354 23.8182 11.7967 23.8045 11.6706 23.7523C11.5445 23.7001 11.4367 23.6116 11.3609 23.4981C11.2851 23.3847 11.2446 23.2513 11.2446 23.1148C11.2446 22.9318 11.3173 22.7563 11.4467 22.6269C11.5761 22.4975 11.7516 22.4248 11.9346 22.4248Z" fill="#D5E2E8"/>
<path d="M20.0538 16.08C20.056 16.2965 19.9938 16.5087 19.8751 16.6897C19.7564 16.8707 19.5865 17.0123 19.3871 17.0965C19.1877 17.1807 18.9678 17.2038 18.7552 17.1626C18.5427 17.1215 18.3472 17.0181 18.1936 16.8655C18.04 16.713 17.9353 16.5182 17.8927 16.306C17.8501 16.0938 17.8716 15.8737 17.9544 15.6737C18.0372 15.4737 18.1777 15.3029 18.3578 15.1829C18.538 15.0629 18.7498 14.9993 18.9663 15C19.1094 15 19.2511 15.0283 19.3833 15.0831C19.5155 15.138 19.6356 15.2185 19.7366 15.3199C19.8376 15.4212 19.9176 15.5416 19.9721 15.6739C20.0265 15.8063 20.0543 15.9481 20.0538 16.0913" fill="#D5E2E8"/>
<path d="M5.97224 16.08C5.97447 16.2965 5.91227 16.5087 5.79356 16.6897C5.67485 16.8707 5.50499 17.0123 5.30558 17.0965C5.10616 17.1807 4.88621 17.2038 4.67369 17.1626C4.46117 17.1215 4.26568 17.0181 4.11209 16.8655C3.9585 16.713 3.85374 16.5182 3.81114 16.306C3.76854 16.0938 3.79002 15.8737 3.87285 15.6737C3.95568 15.4737 4.09611 15.3029 4.2763 15.1829C4.45648 15.0629 4.66827 14.9993 4.88474 15C5.02787 15 5.16959 15.0283 5.30177 15.0831C5.43396 15.138 5.55401 15.2185 5.65504 15.3199C5.75608 15.4212 5.8361 15.5416 5.89054 15.6739C5.94497 15.8063 5.97273 15.9481 5.97224 16.0913" fill="#D5E2E8"/>
<path d="M20.0726 8.91758C20.0726 9.1342 20.0081 9.34591 19.8873 9.52575C19.7666 9.70559 19.595 9.84542 19.3945 9.92743C19.194 10.0094 18.9737 10.0299 18.7615 9.98629C18.5493 9.94264 18.3549 9.83683 18.2031 9.68234C18.0513 9.52784 17.9488 9.33165 17.9089 9.11875C17.8689 8.90585 17.8932 8.68587 17.9787 8.48682C18.0642 8.28778 18.2069 8.11868 18.3888 8.00106C18.5708 7.88343 18.7835 7.82261 19.0001 7.82633C19.1436 7.82584 19.2857 7.85373 19.4183 7.90839C19.5509 7.96305 19.6714 8.04342 19.7729 8.14485C19.8743 8.24628 19.9547 8.36677 20.0093 8.49939C20.064 8.63201 20.0919 8.77414 20.0914 8.91758" fill="#D5E2E8"/>
<path d="M5.99134 8.91743C5.99134 9.13326 5.92734 9.34424 5.80743 9.52369C5.68752 9.70315 5.51709 9.84302 5.31769 9.92561C5.11829 10.0082 4.89888 10.0298 4.6872 9.98771C4.47551 9.9456 4.28107 9.84167 4.12846 9.68906C3.97584 9.53644 3.87191 9.342 3.82981 9.13032C3.7877 8.91864 3.80931 8.69922 3.8919 8.49982C3.9745 8.30042 4.11437 8.13 4.29382 8.01009C4.47328 7.89018 4.68426 7.82618 4.90009 7.82618C5.04353 7.82568 5.18566 7.85357 5.31828 7.90824C5.4509 7.9629 5.57139 8.04326 5.67282 8.14469C5.77425 8.24612 5.85462 8.36662 5.90928 8.49924C5.96395 8.63186 5.99183 8.77398 5.99134 8.91743Z" fill="#D5E2E8"/>
<path d="M8.35004 20.6249C8.13421 20.6249 7.92323 20.5609 7.74377 20.441C7.56432 20.3211 7.42445 20.1506 7.34186 19.9512C7.25926 19.7518 7.23765 19.5324 7.27976 19.3207C7.32186 19.1091 7.4258 18.9146 7.57841 18.762C7.73102 18.6094 7.92547 18.5055 8.13715 18.4634C8.34883 18.4212 8.56824 18.4429 8.76764 18.5254C8.96704 18.608 9.13747 18.7479 9.25738 18.9274C9.37729 19.1068 9.44129 19.3178 9.44129 19.5336C9.44129 19.823 9.32632 20.1006 9.12167 20.3053C8.91702 20.5099 8.63946 20.6249 8.35004 20.6249Z" fill="#D5E2E8"/>
<path d="M8.35003 6.5365C8.13405 6.5365 7.92291 6.47241 7.74338 6.35233C7.56384 6.23226 7.42398 6.06161 7.3415 5.86199C7.25901 5.66237 7.23762 5.44276 7.28003 5.23098C7.32244 5.0192 7.42675 4.82476 7.57974 4.6723C7.73273 4.51983 7.92752 4.4162 8.13945 4.37452C8.35138 4.33284 8.57091 4.35498 8.77024 4.43815C8.96958 4.52132 9.13974 4.66177 9.2592 4.84172C9.37866 5.02167 9.44203 5.23302 9.44128 5.449C9.44128 5.59213 9.41303 5.73385 9.35814 5.86604C9.30326 5.99823 9.22282 6.11828 9.12144 6.21931C9.02006 6.32034 8.89973 6.40037 8.76735 6.4548C8.63498 6.50923 8.49316 6.537 8.35003 6.5365Z" fill="#D5E2E8"/>
<path d="M15.5164 20.6249C15.3002 20.6256 15.0887 20.5622 14.9087 20.4425C14.7287 20.3229 14.5882 20.1525 14.5052 19.953C14.4221 19.7534 14.4002 19.5337 14.4422 19.3217C14.4842 19.1096 14.5882 18.9148 14.741 18.762C14.8938 18.6092 15.0886 18.5052 15.3007 18.4632C15.5127 18.4212 15.7324 18.4431 15.932 18.5262C16.1315 18.6092 16.3019 18.7497 16.4215 18.9297C16.5412 19.1097 16.6046 19.3212 16.6039 19.5374C16.6039 19.8258 16.4893 20.1024 16.2854 20.3064C16.0814 20.5103 15.8048 20.6249 15.5164 20.6249Z" fill="#D5E2E8"/>
<path d="M15.5164 6.55505C15.3004 6.55579 15.0891 6.49243 14.9091 6.37297C14.7292 6.25351 14.5887 6.08334 14.5055 5.88401C14.4224 5.68468 14.4002 5.46515 14.4419 5.25322C14.4836 5.04129 14.5872 4.8465 14.7397 4.69351C14.8921 4.54052 15.0866 4.43621 15.2984 4.3938C15.5101 4.35139 15.7298 4.37278 15.9294 4.45527C16.129 4.53775 16.2996 4.67761 16.4197 4.85715C16.5398 5.03668 16.6039 5.24781 16.6039 5.4638C16.6039 5.75257 16.4894 6.02957 16.2856 6.23411C16.0818 6.43865 15.8052 6.55406 15.5164 6.55505Z" fill="#D5E2E8"/>
<path d="M19.7986 5.39242C19.7985 5.5549 19.7501 5.71368 19.6594 5.84849C19.5687 5.9833 19.4399 6.08804 19.2894 6.14932C19.139 6.21061 18.9736 6.22566 18.8146 6.19257C18.6555 6.15948 18.5099 6.07974 18.3963 5.96352C18.2828 5.84731 18.2065 5.6999 18.1771 5.5401C18.1477 5.38031 18.1666 5.21538 18.2313 5.06637C18.2961 4.91736 18.4038 4.79102 18.5407 4.70349C18.6775 4.61596 18.8374 4.5712 18.9998 4.57492C19.2163 4.57591 19.4237 4.66235 19.5768 4.81545C19.7299 4.96855 19.8163 5.17591 19.8173 5.39242" fill="#D5E2E8"/>
<path d="M5.781 5.3927C5.781 5.55438 5.73305 5.71244 5.64322 5.84687C5.5534 5.98131 5.42572 6.08609 5.27634 6.14797C5.12696 6.20984 4.96259 6.22603 4.80401 6.19449C4.64543 6.16294 4.49977 6.08508 4.38544 5.97076C4.27111 5.85643 4.19325 5.71076 4.1617 5.55218C4.13016 5.3936 4.14635 5.22923 4.20823 5.07985C4.2701 4.93047 4.37488 4.8028 4.50932 4.71297C4.64376 4.62314 4.80181 4.5752 4.9635 4.5752C5.18031 4.5752 5.38825 4.66132 5.54156 4.81464C5.69487 4.96795 5.781 5.17588 5.781 5.3927Z" fill="#D5E2E8"/>
<path d="M19.72 19.6049C19.7192 19.7665 19.6706 19.9242 19.5804 20.0581C19.4901 20.192 19.3621 20.2962 19.2127 20.3575C19.0633 20.4188 18.899 20.4345 18.7407 20.4025C18.5823 20.3706 18.437 20.2924 18.3231 20.1779C18.2091 20.0634 18.1316 19.9178 18.1004 19.7593C18.0692 19.6008 18.0856 19.4366 18.1475 19.2875C18.2095 19.1383 18.3143 19.0109 18.4487 18.9212C18.583 18.8315 18.7409 18.7837 18.9025 18.7837C19.1196 18.7847 19.3275 18.8716 19.4807 19.0256C19.6339 19.1795 19.72 19.3878 19.72 19.6049Z" fill="#D5E2E8"/>
<path d="M5.70237 19.6049C5.70163 19.7665 5.65306 19.9242 5.56278 20.0581C5.4725 20.192 5.34457 20.2962 5.19513 20.3575C5.04569 20.4188 4.88143 20.4345 4.7231 20.4025C4.56477 20.3706 4.41946 20.2924 4.3055 20.1779C4.19155 20.0634 4.11406 19.9178 4.08282 19.7593C4.05158 19.6008 4.06799 19.4366 4.12997 19.2875C4.19195 19.1383 4.29673 19.0109 4.43109 18.9212C4.56544 18.8315 4.72335 18.7837 4.88487 18.7837C4.99255 18.7837 5.09916 18.805 5.19859 18.8463C5.29802 18.8876 5.3883 18.9481 5.46426 19.0245C5.54023 19.1008 5.60036 19.1913 5.64123 19.2909C5.68209 19.3906 5.70287 19.4973 5.70237 19.6049Z" fill="#D5E2E8"/>
<path d="M23.2412 8.89512C23.2412 9.01749 23.2049 9.13712 23.1369 9.23888C23.0689 9.34063 22.9723 9.41994 22.8592 9.46677C22.7461 9.5136 22.6217 9.52585 22.5017 9.50198C22.3817 9.4781 22.2714 9.41917 22.1849 9.33264C22.0984 9.24611 22.0394 9.13586 22.0156 9.01583C21.9917 8.8958 22.0039 8.77139 22.0508 8.65833C22.0976 8.54527 22.1769 8.44863 22.2787 8.38065C22.3804 8.31266 22.5 8.27637 22.6224 8.27637C22.7865 8.27637 22.9439 8.34156 23.0599 8.4576C23.176 8.57363 23.2412 8.73101 23.2412 8.89512Z" fill="#D5E2E8"/>
<path d="M1.8625 8.89512C1.8625 9.01749 1.82621 9.13712 1.75822 9.23888C1.69023 9.34063 1.5936 9.41994 1.48054 9.46677C1.36747 9.5136 1.24306 9.52585 1.12304 9.50198C1.00301 9.4781 0.892762 9.41917 0.806228 9.33264C0.719694 9.24611 0.660764 9.13586 0.636889 9.01583C0.613015 8.8958 0.625268 8.77139 0.6721 8.65833C0.718932 8.54527 0.798238 8.44863 0.899991 8.38065C1.00174 8.31266 1.12137 8.27637 1.24375 8.27637C1.40785 8.27637 1.56523 8.34156 1.68127 8.4576C1.79731 8.57363 1.8625 8.73101 1.8625 8.89512Z" fill="#D5E2E8"/>
<path d="M23.2412 16.0987C23.2412 16.2211 23.2049 16.3407 23.1369 16.4425C23.0689 16.5442 22.9723 16.6236 22.8592 16.6704C22.7461 16.7172 22.6217 16.7295 22.5017 16.7056C22.3817 16.6817 22.2714 16.6228 22.1849 16.5363C22.0984 16.4497 22.0394 16.3395 22.0156 16.2194C21.9917 16.0994 22.0039 15.975 22.0508 15.8619C22.0976 15.7489 22.1769 15.6522 22.2787 15.5843C22.3804 15.5163 22.5 15.48 22.6224 15.48C22.7865 15.48 22.9439 15.5452 23.0599 15.6612C23.176 15.7772 23.2412 15.9346 23.2412 16.0987Z" fill="#D5E2E8"/>
<path d="M1.8625 16.0987C1.8625 16.2211 1.82621 16.3407 1.75822 16.4425C1.69023 16.5442 1.5936 16.6236 1.48054 16.6704C1.36747 16.7172 1.24306 16.7295 1.12304 16.7056C1.00301 16.6817 0.892762 16.6228 0.806228 16.5363C0.719694 16.4497 0.660764 16.3395 0.636889 16.2194C0.613015 16.0994 0.625268 15.975 0.6721 15.8619C0.718932 15.7489 0.798238 15.6522 0.899991 15.5843C1.00174 15.5163 1.12137 15.48 1.24375 15.48C1.40785 15.48 1.56523 15.5452 1.68127 15.6612C1.79731 15.7772 1.8625 15.9346 1.8625 16.0987Z" fill="#D5E2E8"/>
<path d="M8.29356 1.18848C8.41593 1.18848 8.53556 1.22477 8.63731 1.29275C8.73907 1.36074 8.81837 1.45738 8.86521 1.57044C8.91204 1.6835 8.92429 1.80791 8.90042 1.92794C8.87654 2.04796 8.81761 2.15822 8.73108 2.24475C8.64454 2.33128 8.53429 2.39021 8.41427 2.41409C8.29424 2.43796 8.16983 2.42571 8.05677 2.37888C7.94371 2.33205 7.84707 2.25274 7.77908 2.15099C7.71109 2.04923 7.6748 1.9296 7.6748 1.80723C7.6748 1.64312 7.73999 1.48574 7.85603 1.3697C7.97207 1.25367 8.12945 1.18848 8.29356 1.18848Z" fill="#D5E2E8"/>
<path d="M8.29356 22.5674C8.41593 22.5674 8.53556 22.6037 8.63731 22.6717C8.73907 22.7397 8.81837 22.8363 8.86521 22.9493C8.91204 23.0624 8.92429 23.1868 8.90042 23.3068C8.87654 23.4269 8.81761 23.5371 8.73108 23.6237C8.64454 23.7102 8.53429 23.7691 8.41427 23.793C8.29424 23.8169 8.16983 23.8046 8.05677 23.7578C7.94371 23.711 7.84707 23.6316 7.77908 23.5299C7.71109 23.4281 7.6748 23.3085 7.6748 23.1861C7.6748 23.022 7.73999 22.8646 7.85603 22.7486C7.97207 22.6326 8.12945 22.5674 8.29356 22.5674Z" fill="#D5E2E8"/>
<path d="M15.5012 1.18848C15.6233 1.18996 15.7422 1.2275 15.8429 1.29638C15.9437 1.36526 16.0218 1.46241 16.0675 1.57559C16.1132 1.68878 16.1244 1.81294 16.0997 1.93247C16.075 2.052 16.0155 2.16155 15.9286 2.24733C15.8418 2.33312 15.7315 2.39131 15.6117 2.41458C15.4919 2.43785 15.3679 2.42517 15.2553 2.37812C15.1426 2.33108 15.0464 2.25178 14.9788 2.15019C14.9111 2.04861 14.875 1.92928 14.875 1.80723C14.875 1.64312 14.9402 1.48574 15.0562 1.3697C15.1723 1.25367 15.3296 1.18848 15.4938 1.18848" fill="#D5E2E8"/>
<path d="M15.5012 22.5674C15.6233 22.5689 15.7422 22.6064 15.8429 22.6753C15.9437 22.7442 16.0218 22.8413 16.0675 22.9545C16.1132 23.0677 16.1244 23.1918 16.0997 23.3114C16.075 23.4309 16.0155 23.5405 15.9286 23.6262C15.8418 23.712 15.7315 23.7702 15.6117 23.7935C15.4919 23.8168 15.3679 23.8041 15.2553 23.757C15.1426 23.71 15.0464 23.6307 14.9788 23.5291C14.9111 23.4275 14.875 23.3082 14.875 23.1861C14.875 23.022 14.9402 22.8646 15.0562 22.7486C15.1723 22.6326 15.3296 22.5674 15.4938 22.5674" fill="#D5E2E8"/>
<path d="M22.9113 19.5974C22.912 19.6621 22.8935 19.7255 22.8581 19.7797C22.8227 19.8338 22.772 19.8762 22.7125 19.9015C22.6529 19.9268 22.5872 19.9338 22.5237 19.9216C22.4602 19.9094 22.4017 19.8787 22.3557 19.8332C22.3097 19.7877 22.2782 19.7296 22.2653 19.6662C22.2524 19.6028 22.2587 19.537 22.2833 19.4772C22.3078 19.4174 22.3496 19.3662 22.4034 19.3302C22.4571 19.2942 22.5203 19.2749 22.585 19.2749C22.6277 19.2744 22.67 19.2824 22.7096 19.2984C22.7491 19.3144 22.7851 19.338 22.8155 19.368C22.8458 19.398 22.8699 19.4338 22.8864 19.4731C22.9028 19.5125 22.9113 19.5548 22.9113 19.5974Z" fill="#D5E2E8"/>
<path d="M1.67518 19.6687C1.67593 19.7336 1.65733 19.7971 1.62177 19.8514C1.5862 19.9056 1.53529 19.948 1.47553 19.9731C1.41576 19.9983 1.34986 20.0051 1.28622 19.9926C1.22259 19.9801 1.16411 19.949 1.11826 19.9031C1.07241 19.8573 1.04126 19.7988 1.02879 19.7352C1.01632 19.6715 1.0231 19.6056 1.04826 19.5459C1.07341 19.4861 1.11581 19.4352 1.17003 19.3996C1.22425 19.3641 1.28784 19.3455 1.35268 19.3462C1.43791 19.3472 1.51938 19.3815 1.57965 19.4417C1.63992 19.502 1.67421 19.5835 1.67518 19.6687Z" fill="#D5E2E8"/>
<path d="M22.9113 5.70729C22.912 5.77213 22.8934 5.83572 22.8578 5.88994C22.8223 5.94416 22.7714 5.98656 22.7116 6.01171C22.6518 6.03687 22.5859 6.04365 22.5223 6.03118C22.4587 6.01871 22.4002 5.98756 22.3543 5.94171C22.3085 5.89586 22.2773 5.83738 22.2649 5.77375C22.2524 5.71012 22.2592 5.64421 22.2843 5.58444C22.3095 5.52468 22.3519 5.47377 22.4061 5.43821C22.4603 5.40264 22.5239 5.38405 22.5888 5.38479C22.674 5.38576 22.7555 5.42005 22.8157 5.48032C22.876 5.54059 22.9103 5.62206 22.9113 5.70729Z" fill="#D5E2E8"/>
<path d="M1.67518 5.78248C1.67593 5.84732 1.65733 5.91091 1.62177 5.96513C1.5862 6.01936 1.53529 6.06175 1.47553 6.08691C1.41576 6.11206 1.34986 6.11884 1.28622 6.10637C1.22259 6.0939 1.16411 6.06276 1.11826 6.0169C1.07241 5.97105 1.04126 5.91258 1.02879 5.84894C1.01632 5.78531 1.0231 5.7194 1.04826 5.65964C1.07341 5.59987 1.11581 5.54896 1.17003 5.5134C1.22425 5.47784 1.28784 5.45924 1.35268 5.45998C1.43822 5.45998 1.52025 5.49396 1.58073 5.55444C1.64121 5.61492 1.67518 5.69695 1.67518 5.78248Z" fill="#D5E2E8"/>
<path d="M18.9998 1.54885C19.0646 1.54811 19.1282 1.56671 19.1824 1.60227C19.2366 1.63783 19.279 1.68874 19.3042 1.74851C19.3293 1.80827 19.3361 1.87418 19.3237 1.93781C19.3112 2.00145 19.28 2.05992 19.2342 2.10577C19.1883 2.15162 19.1299 2.18277 19.0662 2.19524C19.0026 2.20771 18.9367 2.20093 18.8769 2.17578C18.8172 2.15062 18.7662 2.10822 18.7307 2.054C18.6951 1.99978 18.6765 1.93619 18.6773 1.87135C18.6782 1.78612 18.7125 1.70466 18.7728 1.64438C18.8331 1.58411 18.9145 1.54982 18.9998 1.54885Z" fill="#D5E2E8"/>
<path d="M18.9363 22.7852C19.0011 22.7844 19.0647 22.803 19.1189 22.8386C19.1732 22.8742 19.2156 22.9251 19.2407 22.9848C19.2659 23.0446 19.2726 23.1105 19.2602 23.1741C19.2477 23.2378 19.2166 23.2962 19.1707 23.3421C19.1249 23.388 19.0664 23.4191 19.0028 23.4316C18.9391 23.444 18.8732 23.4373 18.8134 23.4121C18.7537 23.3869 18.7028 23.3446 18.6672 23.2903C18.6316 23.2361 18.613 23.1725 18.6138 23.1077C18.6148 23.0224 18.6491 22.941 18.7093 22.8807C18.7696 22.8204 18.8511 22.7862 18.9363 22.7852Z" fill="#D5E2E8"/>
<path d="M5.00123 1.54885C5.06607 1.54811 5.12966 1.56671 5.18388 1.60227C5.23811 1.63783 5.2805 1.68874 5.30566 1.74851C5.33081 1.80827 5.33759 1.87418 5.32512 1.93781C5.31265 2.00145 5.28151 2.05992 5.23565 2.10577C5.1898 2.15162 5.13133 2.18277 5.06769 2.19524C5.00406 2.20771 4.93815 2.20093 4.87839 2.17578C4.81862 2.15062 4.76771 2.10822 4.73215 2.054C4.69659 1.99978 4.67799 1.93619 4.67873 1.87135C4.67873 1.78582 4.71271 1.70379 4.77319 1.64331C4.83367 1.58283 4.9157 1.54885 5.00123 1.54885Z" fill="#D5E2E8"/>
<path d="M5.00123 22.7852C5.06607 22.7844 5.12966 22.803 5.18388 22.8386C5.23811 22.8742 5.2805 22.9251 5.30566 22.9848C5.33081 23.0446 5.33759 23.1105 5.32512 23.1741C5.31265 23.2378 5.28151 23.2962 5.23565 23.3421C5.1898 23.388 5.13133 23.4191 5.06769 23.4316C5.00406 23.444 4.93815 23.4373 4.87839 23.4121C4.81862 23.3869 4.76771 23.3446 4.73215 23.2903C4.69659 23.2361 4.67799 23.1725 4.67873 23.1077C4.67873 23.0221 4.71271 22.9401 4.77319 22.8796C4.83367 22.8192 4.9157 22.7852 5.00123 22.7852Z" fill="#D5E2E8"/>
</g>
<defs>
<clipPath id="clip0_4791_53271">
<rect width="117.75" height="24" fill="white" transform="translate(0.625)"/>
</clipPath>
</defs>
</svg>
