<svg width="239" height="56" viewBox="0 0 239 56" fill="none" xmlns="http://www.w3.org/2000/svg">
<path fill-rule="evenodd" clip-rule="evenodd" d="M199 7.19523C201.381 7.03857 203.828 7.18809 206.213 7.636C206.352 7.66019 206.646 7.69369 207 7.73404L207 7.73405C207.365 7.77566 207.794 7.82455 208.182 7.87804C208.103 7.71681 208.038 7.56018 207.982 7.42262C206.109 2.62625 215.756 3.31849 220.024 4.10041C222.44 4.5399 224.784 5.19982 226.988 6.06087C230.468 7.18736 234.346 8.7511 235.804 11.0041C236.617 12.2596 236.145 13.6468 234.643 14.4097C233.963 14.726 233.18 14.94 232.342 15.0386C232.016 15.0885 231.686 15.1209 231.356 15.1533L231.356 15.1533L231.356 15.1534C231.191 15.1696 231.026 15.1858 230.861 15.2042L230.276 15.2494C230.641 15.3414 231.022 15.4805 231.408 15.6213C231.787 15.7596 232.171 15.8997 232.548 15.9984C233.526 16.2298 234.464 16.5466 235.338 16.94C237.466 17.9415 238.533 19.684 237.991 21.2733C236.575 24.9653 230.32 24.4193 225.722 23.6998C220.451 22.8988 215.27 21.7225 210.272 20.1914C205.878 18.8292 200.894 17.2829 197.545 14.7961C194.196 12.3093 193.056 7.70304 199 7.19523ZM232.26 17.5716L232.268 17.5755L232.266 17.5701C232.264 17.5707 232.262 17.5712 232.26 17.5716ZM232.177 17.5328C232.193 17.5604 232.218 17.5798 232.26 17.5716L232.177 17.5328Z" fill="#D4DBE4"/>
<path d="M212.236 30.2086C210.636 26.2086 217.569 28.5419 221.236 30.2086C225.236 34.2087 222.903 35.2086 221.236 35.2085C218.902 35.2085 213.836 34.2086 212.236 30.2086Z" fill="#D4DBE4"/>
<path d="M3.36921 38.6087C-2.63079 31.8087 16.8692 33.7754 27.3692 35.6087C37.7693 37.6086 34.0359 38.442 30.8691 38.6087C53.5786 41.0087 46.6648 44.2755 40.3691 45.6089C29.8692 47.9422 7.36923 51.2089 1.36923 45.6089C-1.98669 42.4767 1.27915 41.3884 6.26739 41.2416C5.29367 40.5538 4.32095 39.6874 3.36921 38.6087Z" fill="#D4DBE4"/>
<path d="M96.1269 42.6999C95.6977 39.3204 95.2003 35.9499 94.7101 32.5795C94.351 30.1607 93.8123 27.5516 94.3276 25.113C94.5323 24.1524 94.8268 23.2114 95.5325 22.4985C96.486 21.5343 97.8903 21.2919 99.1724 21.071C102.423 20.5071 105.703 20.0995 108.986 19.7871C115.68 19.1612 122.411 19.0177 129.126 19.3579C130.464 19.4226 132.092 19.2861 133.367 19.7727C134.506 20.2073 134.714 21.748 134.984 22.7805C135.809 25.9217 136.3 29.1412 136.451 32.3855C136.513 33.761 136.698 35.3933 136.165 36.7059C135.632 38.0186 134.025 38.3705 132.804 38.762C131.108 39.3062 129.381 39.7458 127.632 40.0782C125.836 40.4194 123.972 40.4373 122.245 40.976C121.168 41.3172 121.013 43.0536 122.245 43.3104C124.041 43.6839 125.82 43.3804 127.616 43.1308C129.436 42.8757 131.238 42.5062 133.012 42.0247C134.628 41.5884 136.361 41.1574 137.681 40.0764C138.914 39.0618 139.476 37.5625 139.686 36.0182C140.142 32.5525 139.577 28.7852 138.952 25.3752C138.379 22.2436 137.862 17.9286 134.463 16.6518C132.92 16.0718 131.11 16.1437 129.489 16.088C127.561 16.0209 125.633 15.9922 123.705 16.0018C119.903 16.0198 116.107 16.2029 112.317 16.4956C108.571 16.7841 104.84 17.2151 101.124 17.7885C97.98 18.2679 94.4964 18.6055 92.6146 21.5253C90.9212 24.1542 91.3576 27.6036 91.9358 30.5037C92.7726 34.6481 93.7315 38.7799 94.7029 42.8938C94.8825 43.6767 96.2454 43.5313 96.1395 42.6999H96.1269Z" fill="#0E2F56"/>
<path d="M92.1548 25.9445C91.573 29.2593 91.9932 32.777 92.4583 36.0846C92.6898 37.7998 93.0201 39.5001 93.4477 41.1772C93.7889 42.4844 94.2162 43.8276 95.0279 44.9265C97.1288 47.7673 100.39 47.049 103.426 46.6073L108.894 45.8136C109.718 45.6933 110.541 45.5658 111.365 45.4545C112.189 45.3431 112.681 45.3162 113.245 45.9608C114.373 47.2519 115.441 48.4604 116.818 49.5037C118.212 50.5443 119.753 51.3716 121.39 51.9584C122.647 52.4199 123.48 50.881 122.986 49.8826C122.327 48.5448 121.521 47.0095 121.681 45.4742C121.785 44.4776 122.487 43.3068 123.581 43.2673C125.222 43.2099 125.235 40.6923 123.581 40.7085C121.437 40.73 119.779 42.3515 119.192 44.3411C118.485 46.7366 119.551 49.1679 120.546 51.3083L122.141 49.2325C119.591 48.2024 117.351 46.5289 115.64 44.3753C114.669 43.1722 113.538 42.4252 111.932 42.5221C110.253 42.6245 108.562 42.9872 106.904 43.2296L101.965 43.9479C100.745 44.1275 99.2082 44.5351 98.032 43.9766C97.0247 43.4972 96.5237 42.251 96.1807 41.2634C95.6797 39.8268 95.2721 38.3238 94.8752 36.846C94.4024 35.0755 94.0091 33.2852 93.6955 31.4752C93.3776 29.631 93.1909 27.7671 92.7779 25.9409C92.7097 25.6446 92.2158 25.6267 92.1602 25.9409L92.1548 25.9445Z" fill="#0E2F56"/>
<path d="M92.827 22.7384C92.4337 24.6005 92.0944 26.547 92.1626 28.4576C92.2272 30.2245 92.6007 32.3955 93.4788 33.9524C93.8828 34.6706 94.6083 35.2093 95.4541 35.1824C96.5674 35.1483 97.2497 34.1678 97.8028 33.3203C98.2714 32.6231 98.6029 31.843 98.7796 31.0218C98.9754 30.0073 98.7796 29.0843 98.7365 28.0715C98.6647 26.6583 99.7619 26.2004 100.983 25.8682C102.856 25.3618 104.831 25.1266 106.747 24.8303C110.834 24.1982 114.876 23.7529 119.015 23.7529C123.098 23.7529 127.697 23.076 129.956 19.2135C130.981 17.4573 128.252 15.8663 127.232 17.6225C126.015 19.718 123.486 20.4112 121.213 20.5656C118.238 20.7703 115.287 20.6249 112.306 20.9732C109.254 21.3323 106.217 21.7831 103.193 22.3128C100.983 22.7007 98.284 23.0059 96.729 24.8375C95.7468 25.9957 95.5959 27.3694 95.7629 28.8293C95.9173 30.1886 95.7198 31.5964 94.6209 32.5625L95.2763 32.18L95.2565 32.207L96.0035 32.4081C95.7378 32.2914 95.4648 31.0685 95.3391 30.7309C95.0357 29.8762 94.8292 29.0035 94.6011 28.1272C94.145 26.389 93.8541 24.6939 93.9421 22.891C93.9744 22.2535 92.9545 22.1063 92.8198 22.7384H92.827Z" fill="#0E2F56"/>
<path d="M130.411 19.3244C130.294 20.418 129.245 20.98 128.344 21.3877C127.119 21.9183 125.851 22.3466 124.555 22.668C121.335 23.5445 118.063 24.2192 114.758 24.6881C111.386 25.1526 107.986 25.3854 104.582 25.3848C102.953 25.3848 101.326 25.5213 100.023 26.6077C98.8591 27.5774 98.3689 29.0211 98.0349 30.4522L101.939 30.9802C102.043 29.7627 102.148 28.5452 102.253 27.3278H98.4012C98.4742 28.9151 98.5299 30.5031 98.5682 32.0917C98.5862 32.8548 98.6221 33.6216 98.6221 34.3848C98.6221 34.5643 98.5395 34.9432 98.5951 35.103C98.6813 35.349 98.9543 34.8409 99.2901 34.9414L100.773 36.8897L100.364 33.7652C100.258 32.9554 99.9491 32.2623 99.132 31.9337C98.3853 31.6202 97.5235 31.7835 96.9431 32.3485L95.1044 34.1962L98.4317 36.1319C98.4802 35.7728 98.412 35.8877 98.6113 35.5807L94.9122 34.5787C94.8655 36.0062 95.0325 37.9905 96.4439 38.7572C98.4353 39.8346 100.303 37.5864 99.3367 35.7243C98.4641 34.0418 95.4994 34.7636 95.6646 36.7173C95.7723 37.9743 95.9645 39.2456 96.8605 40.2135C97.7566 41.1814 99.3062 41.6249 100.558 41.0575C101.809 40.49 102.291 39.3318 102.792 38.1646C103.312 36.949 103.781 35.7189 104.18 34.4584L100.339 33.3989C99.6337 35.6832 99.2393 38.052 99.1662 40.4416L101.711 38.504L98.1911 37.3476C96.3847 36.755 95.1941 38.8398 95.9088 40.3195C96.3635 41.2554 97.1235 42.0084 98.0636 42.4545C99.1177 42.9411 100.82 42.6538 101.043 41.2424C101.206 40.2522 101.312 39.2533 101.36 38.2508L99.8665 40.2135C107.04 37.2363 114.207 34.2435 121.368 31.2351C122.39 30.806 123.122 29.8758 122.804 28.7086C122.526 27.6995 121.326 26.8986 120.278 27.2721C115.323 29.045 110.453 31.0316 105.668 33.2319L108.473 36.0368C109.182 34.4744 110.079 33.0047 111.145 31.6607C111.786 30.8688 111.984 29.8219 111.305 28.9672C110.691 28.1969 109.542 27.8898 108.662 28.4393C106.313 29.9068 104.317 31.8736 102.815 34.1998C102.486 34.7156 102.186 35.2498 101.917 35.7997C101.775 36.0871 101.664 36.4857 101.456 36.7299C101.492 36.6889 101.534 36.6527 101.58 36.6222C101.831 36.5306 101.281 36.5755 101.195 36.5665C101.195 36.5665 100.328 36.4408 100.209 36.4264C99.5477 36.3426 98.8759 36.3933 98.2342 36.5755C97.3535 36.8319 96.7436 37.6335 96.7312 38.5507C96.7564 40.0142 97.2699 41.2137 98.1929 42.3306C99.4499 43.8533 102.398 42.2139 101.605 40.341C101.052 39.0266 100.26 37.942 98.9597 37.2794C97.5896 36.5773 95.907 37.4338 95.8837 39.0445C95.8496 41.8224 98.0385 44.0832 100.651 44.7404C103.675 45.5054 106.607 44.1047 109.217 42.7185C111.502 41.5046 109.473 38.03 107.186 39.2456C105.631 40.0717 103.774 41.1724 101.926 40.8959C100.895 40.7414 99.9509 39.9047 99.9724 39.0445L96.8964 40.8097C97.1891 40.9605 97.5519 41.1688 97.6578 41.4292L101.07 39.4378C100.883 39.1809 100.79 38.8679 100.806 38.5507L99.3044 40.526C99.6366 40.4272 99.9257 40.4936 100.394 40.5601C101.15 40.6678 101.901 40.7684 102.655 40.5744C104.309 40.1507 104.909 38.8721 105.632 37.4931C106.809 35.2385 108.563 33.3367 110.716 31.9821L108.232 28.7643C106.917 30.3563 105.804 32.1055 104.919 33.9717C104.022 35.8823 105.817 37.6511 107.724 36.7766C112.185 34.7295 116.728 32.883 121.355 31.2369L120.263 27.2757C113.096 30.2685 105.933 33.272 98.7729 36.2864C97.902 36.6455 97.3148 37.2596 97.2771 38.249C97.2613 38.889 97.2085 39.5275 97.1191 40.1614L100.098 38.9494C99.6582 38.75 99.6007 38.7177 99.3798 38.276L97.0975 41.246L100.622 42.3791C101.905 42.7921 103.136 41.6931 103.169 40.4398C103.227 38.4097 103.56 36.3969 104.16 34.4566C104.909 31.9983 101.075 30.9532 100.319 33.3971C99.9729 34.5421 99.5628 35.6668 99.0907 36.7658C98.9992 36.9705 98.7998 37.2363 98.7693 37.4607C98.5383 37.7672 98.6065 37.7941 98.974 37.5415C99.142 37.3717 99.4007 37.3302 99.6133 37.4392C99.8054 37.3602 99.7641 38.0641 99.66 37.3225C99.6312 37.1106 99.6025 36.9328 99.5863 36.7155L95.925 37.7157L95.9932 37.8504V35.8536L95.8998 36.0062L97.0796 35.1084L96.9 35.1551L98.421 35.3544L98.2647 35.2592L98.9722 35.9667C99.1284 36.211 98.9022 35.7369 98.8824 35.6076C98.8453 35.267 98.8405 34.9237 98.8681 34.5823C98.9561 32.528 96.1746 32.0001 95.169 33.5803C94.8726 34.0334 94.6744 34.5435 94.5872 35.0779C94.4525 35.9757 94.677 36.843 95.5012 37.3243C96.2858 37.7662 97.2675 37.6398 97.9146 37.0136L99.7731 35.1874L96.3506 33.7652L96.7276 36.8915C96.8372 37.8127 97.2807 38.5579 98.2109 38.8398C99.3512 39.1698 100.58 38.8367 101.398 37.9761C102.296 37.0531 102.486 35.7782 102.441 34.5428C102.353 32.1402 102.274 29.7375 102.248 27.3313C102.229 26.2752 101.377 25.4237 100.321 25.4064C99.1769 25.4064 98.5251 26.2934 98.3958 27.3313C98.2486 28.5488 98.1025 29.7663 97.9577 30.9837C97.8428 31.9498 98.8016 32.8297 99.6815 32.9356C100.661 33.0692 101.59 32.4624 101.861 31.5117C102.152 30.4343 102.289 29.5741 103.478 29.461C105.072 29.3102 106.71 29.461 108.326 29.382C111.795 29.2312 115.246 28.8019 118.646 28.0981C121.912 27.4157 125.176 26.5233 128.24 25.1873C130.574 24.1745 132.855 22.0772 132.729 19.328C132.655 17.8179 130.574 17.8699 130.422 19.328L130.411 19.3244Z" fill="#0E2F56"/>
<path d="M100.162 42.8464L100.138 42.7656C99.9812 42.2248 99.4892 41.8502 98.9262 41.8426C98.3981 41.8346 97.907 42.1128 97.6423 42.5698C97.2975 43.0834 97.5022 43.6939 97.8434 44.1285C98.6138 45.1035 100.596 44.8952 101.695 44.8665C103.164 44.8274 104.627 44.6828 106.075 44.4337C106.824 44.3062 107.364 43.4551 107.364 42.7404C107.364 41.9288 106.807 41.3039 106.075 41.0471C104.243 40.3881 102.41 40.7688 100.526 40.6323C100.058 40.5993 99.6004 40.4825 99.174 40.2875C98.6497 40.0325 98.4845 39.8081 98.3947 39.3987L97.0695 41.7205C99.763 41.1818 101.78 39.1832 103.554 37.2313C105.502 35.0836 107.275 32.7832 108.856 30.3521C109.314 29.6464 109.135 28.6157 108.558 28.0393C107.908 27.3874 107.037 27.4036 106.245 27.7394C104.558 28.4549 102.945 29.3329 101.428 30.3611L104.069 33.0007C104.537 32.3466 105.079 31.7493 105.685 31.2212C105.908 31.0255 107.707 29.9337 107.702 29.8816C107.721 30.0486 107.077 29.5817 107.413 29.9068C107.574 30.063 108.152 30.239 108.31 30.3C108.762 30.4915 109.225 30.6541 109.697 30.7866C110.763 31.0649 111.862 31.1996 112.965 31.1871V27.2833L103.863 27.6155L104.383 31.4672L119.083 29.0413L118.032 25.2326C113.08 27.0532 108.277 29.2572 103.667 31.8245C102.437 32.5141 102.23 34.7228 103.667 35.3512C105.822 36.2976 107.797 35.5308 109.925 34.9149L115.955 33.1587L114.369 29.3968C110.709 31.2547 107.129 33.2551 103.627 35.3979C102.525 36.0713 102.225 37.7036 103.209 38.6301C104.929 40.2462 107.018 39.5765 108.984 38.8869L115.242 36.6872L113.653 32.9163L106.412 37.8652C104.496 39.1742 105.656 42.1748 108.003 41.6361L115.545 39.9284L113.954 36.1575L107.131 39.4974C105.251 40.4186 106.206 43.3725 108.174 43.3492C109.693 43.3371 111.201 43.0887 112.643 42.6129C115.157 41.7726 114.148 37.9801 111.544 38.6247C109.027 39.2472 106.428 39.4731 103.841 39.2945L105.805 41.8731L107.208 37.8472L104.724 39.2568C106.52 39.5459 108.316 39.8494 110.111 40.1223C111.765 40.3755 113.703 40.108 114.177 38.1938C114.8 35.7122 110.988 34.6563 110.343 37.1361L111.108 36.3011C111.259 36.2706 111.262 36.2581 111.119 36.2616C111.02 36.2525 110.923 36.2369 110.826 36.215C110.246 36.1306 109.67 36.0192 109.093 35.9205L105.798 35.3638C104.658 35.1699 103.713 35.6565 103.315 36.7734L101.878 40.7903C101.401 42.1263 102.625 43.2791 103.843 43.3689C106.797 43.5841 109.767 43.3289 112.642 42.6129L111.543 38.6247C110.458 39 109.32 39.1994 108.172 39.2155L109.215 43.0672L116.039 39.7255C116.951 39.2784 117.269 38.0232 116.885 37.1451C116.479 36.1991 115.443 35.691 114.446 35.9492L106.904 37.6605L108.494 41.4314L115.744 36.4843C116.59 35.9061 117.019 34.888 116.588 33.9075C116.201 33.0258 115.141 32.3668 114.155 32.7134L109.251 34.439C108.461 34.7156 107.673 34.9975 106.883 35.2722C106.597 35.371 106.229 35.4159 105.965 35.5506C105.671 35.6978 105.746 35.353 106.134 35.7193L105.717 38.9516C109.217 36.8087 112.797 34.8077 116.457 32.9486C118.548 31.8856 117.093 28.5385 114.87 29.1777L109.842 30.643L107.497 31.3271C107.077 31.4492 106.657 31.5911 106.229 31.6863C106.05 31.7294 105.376 31.6575 105.735 31.812V35.3387C110.006 32.8761 114.469 30.7658 119.083 29.0287C121.482 28.1308 120.543 24.7999 118.032 25.2201L103.342 27.673C101.155 28.0321 101.675 31.6091 103.863 31.5247L112.965 31.1655C115.464 31.0704 115.479 27.242 112.965 27.2617C111.829 27.2905 110.699 27.082 109.648 26.6494C108.285 26.0676 107.262 25.7642 105.852 26.4465C103.76 27.4611 102.045 29.14 100.736 31.0309C99.6588 32.6003 101.814 34.7515 103.378 33.6723C104.886 32.6331 106.492 31.7431 108.172 31.0147L105.559 28.4038C104.226 30.4831 102.733 32.4553 101.094 34.3026C99.7019 35.8612 98.2205 37.6443 96.0657 38.0735C95.0314 38.2818 94.5394 39.4561 94.7477 40.3953C95.1858 42.3705 96.951 43.6616 98.8436 44.1123C100.923 44.6061 103.083 43.8968 105.128 44.4266V41.0471C104.083 41.3411 103.022 41.5737 101.95 41.7438C100.971 41.8875 99.8689 42.0796 98.8813 42.0455L99.5439 42.2251L99.3895 42.1083L99.9821 43.561L100.018 43.4551L99.1309 44.344L99.2476 44.3098L97.8291 43.7334L97.8739 43.8053C98.5922 44.994 100.567 44.2272 100.149 42.8464H100.162Z" fill="#0E2F56"/>
<path d="M110.102 41.1102L112.774 41.0241L114.02 40.9828L114.738 40.9594C115.32 41.0348 115.447 40.6122 115.12 39.6917L115.815 39.5031L115.659 39.5157L116.634 39.9197C116.157 39.329 115.477 38.9372 114.727 38.8208C113.874 38.6897 112.887 39.1799 112.932 40.1855C113.059 42.8323 116.343 43.3943 118.446 43.3943L117.02 42.308C117.164 42.4785 117.166 42.5971 117.02 42.6671L117.403 42.0099L117.356 42.0799L118.108 41.8752L118.085 41.886L118.742 42.2702C118.263 41.8914 117.961 41.2772 117.53 40.8337C117.052 40.3108 116.482 39.8789 115.85 39.5588C114.526 38.9483 112.648 39.5085 112.418 41.1156C112.294 41.9793 112.623 42.6814 113.481 42.9885C114.391 43.3135 114.984 43.9671 115.555 44.7159C115.997 45.2959 116.659 45.6317 117.381 45.3139C117.99 45.0463 118.498 44.2778 118.229 43.5883C117.537 41.8267 116.054 40.6595 114.291 40.0526L115.408 41.5197L115.438 41.288L115.232 42.0566C114.709 42.2146 114.618 42.3762 114.953 42.5396C115.11 42.6725 115.261 42.8125 115.406 42.9598C115.603 43.1637 115.789 43.3789 115.961 43.6044C116.431 44.2024 116.875 44.759 117.685 44.8614C119.646 45.0948 120.272 43.0657 119.865 41.5286C119.681 40.8917 119.102 40.4504 118.439 40.4423C117.863 40.4596 117.287 40.4053 116.724 40.2807C116.465 40.2178 116.198 40.1011 115.939 40.0544C115.559 39.9898 115.702 39.6234 115.76 40.1927L114.345 41.6094C114.496 41.6256 114.571 41.7998 114.675 41.8788C114.898 42.0773 115.173 42.2092 115.467 42.2595C115.995 42.3292 116.526 42.1502 116.904 41.7746C117.591 41.0087 117.546 39.8359 116.803 39.1242C115.929 38.3449 114.756 38.6753 113.738 38.9016L109.917 39.7473C109.15 39.9269 109.317 41.1426 110.096 41.1174L110.102 41.1102Z" fill="#0E2F56"/>
<path d="M116.892 45.1433C117.187 45.761 117.443 46.21 117.54 46.9049L120.065 46.2082C119.979 45.7018 120.471 44.8327 120.661 44.3766C120.927 43.7481 121.219 43.131 121.537 42.5252C122.157 41.3401 122.852 40.1172 123.71 39.0847C124.595 38.0181 123.798 36.0016 122.227 36.5385C121.036 36.9587 119.919 37.5647 118.918 38.3341C117.926 39.0793 116.783 39.9682 116.265 41.1264C115.998 41.7298 116 42.4049 116.495 42.8987C116.915 43.3207 117.752 43.5129 118.268 43.1286C119.153 42.457 119.83 41.5771 120.704 40.8894C121.532 40.2358 122.464 39.7886 123.398 39.32L121.311 37.2388C120.368 38.7274 119.456 40.1945 118.747 41.8159C118.072 43.3656 117.158 45.1828 117.537 46.9049C117.896 48.5623 120.37 47.8494 120.061 46.2082C119.866 45.1703 119.332 44.1808 118.445 43.5955C117.42 42.9275 116.449 44.2006 116.897 45.1433H116.892Z" fill="#0E2F56"/>
<path d="M116.94 46.6131C118.515 46.746 119.045 45.0976 118.973 43.837C118.892 42.3861 118.826 40.937 119.176 39.513C119.687 37.4282 121.225 35.2573 123.568 35.2034L122.297 32.1328C121.629 32.7016 120.893 33.1843 120.106 33.5693C119.766 33.7385 119.414 33.8837 119.054 34.0039C118.874 34.0667 118.68 34.126 118.492 34.1835C118.35 34.2248 118.208 34.2625 118.064 34.2948C117.791 34.3505 117.874 34.3522 118.31 34.2948L119.136 34.776L118.991 34.6162L119.472 35.4422C119.37 35.1495 119.652 34.4564 120.099 34.196C120.731 33.8261 121.356 34.0685 121.911 34.4761L121.515 31.4235C120.052 32.6212 118.283 33.2874 116.43 33.5783L117.473 37.36C120.645 36.1138 123.902 34.8066 127.35 34.7024L125.947 31.3176C123.93 33.2856 121.839 35.1729 119.675 36.9793C119.073 37.4803 118.967 38.4967 119.26 39.1647C119.607 39.953 120.258 40.2977 121.09 40.3947C122.964 40.6042 124.861 40.4381 126.671 39.9063L125.119 36.2287L119.946 38.459C119.138 38.8073 118.799 39.9601 119.016 40.7466C119.273 41.6149 120.063 42.2166 120.968 42.2335C123.676 42.3024 126.345 41.5703 128.639 40.1289C130.6 38.8935 129.339 35.857 127.066 36.3993L125.407 36.7944L126.484 40.7449C128.32 40.12 130.033 39.1793 131.546 37.9651C133.045 36.771 134.895 34.8443 133.814 32.7774C132.688 30.6226 130.268 31.1829 128.31 31.481C126.218 31.8006 124.133 32.1663 122.056 32.5781L124.39 35.6074C126.037 32.8062 128.176 30.4 130.336 27.9812C131.018 27.218 131.156 26.0993 130.497 25.2697C129.878 24.494 128.72 24.1779 127.833 24.731L122.14 28.3224L124.227 31.894C126.273 30.3774 128.233 28.7474 130.097 27.0115C130.842 26.313 130.878 25.0686 130.259 24.2929C129.585 23.4453 128.544 23.2999 127.588 23.7542C125.298 24.8572 123.229 26.3701 121.483 28.2182C120.831 28.8924 120.699 29.9144 121.158 30.7322C121.591 31.4702 122.654 32.0071 123.492 31.6857C127.341 30.2475 130.845 28.0191 133.78 25.144L130.232 23.6752L130.219 24.8872C130.199 26.8266 133.22 27.8806 134.092 25.9359C134.8 24.3593 135.191 22.7576 135.119 21.0176H130.959C131.16 22.7709 130.809 24.5433 129.957 26.0885C129.438 26.9949 129.668 28.1448 130.496 28.7821C131.261 29.3531 132.561 29.4303 133.232 28.6187C134.489 27.1013 135.207 25.3433 135.175 23.3519H130.998C131.246 26.5429 129.711 29.6224 126.838 31.217C124.758 32.3716 126.163 35.7062 128.454 35.0526C132.404 33.9285 134.261 30.1558 135.698 26.638L131.568 26.0796C131.257 29.4734 130.896 33.8207 127.752 35.8642C125.895 37.0709 126.775 39.5741 128.817 39.7985C131.215 40.0443 133.622 39.4232 135.602 38.0477L133.054 34.7455L131.551 36.024C130.763 36.6938 130.783 38.0226 131.386 38.7822C132.065 39.6351 133.132 39.7985 134.096 39.3209C136.094 38.3369 136.493 36.042 136.66 34.0452C136.838 31.6416 136.721 29.2253 136.314 26.8499L132.286 27.9596C132.783 30.0318 133.279 32.1041 133.776 34.1763L135.229 31.6174C135.313 31.6049 135.572 31.5707 135.638 31.6785C134.306 29.4734 131.137 31.402 132.227 33.6735C132.848 34.97 134.34 35.8516 135.784 35.7026C137.145 35.5607 138.118 34.4905 137.788 33.0701C137.297 30.9955 136.806 28.9221 136.315 26.8499C136.055 25.751 134.805 25.1009 133.746 25.3918C132.559 25.7168 132.112 26.8409 132.288 27.9596C132.543 29.6256 132.628 31.3133 132.541 32.9965C132.52 33.6341 132.46 34.2698 132.361 34.8999C132.338 35.0113 132.155 35.6703 132.182 35.5284C132.049 35.7511 132.025 35.7924 132.11 35.6487C132.243 35.55 132.198 35.5643 131.972 35.6936L134.518 38.9923L136.024 37.7173C137.833 36.1892 135.441 33.0486 133.476 34.4151C132.124 35.3811 130.455 35.7958 128.808 35.5751L129.872 39.5076C134.475 36.5322 135.315 31.1218 135.769 26.0778C135.863 25.0488 134.899 24.1223 133.945 24.0092C132.826 23.8763 132.042 24.5173 131.634 25.5175C131.145 26.7638 130.532 27.9574 129.802 29.0801C129.185 29.9905 128.305 30.7268 127.335 31.0051L128.951 34.8389C132.983 32.5907 135.538 27.9722 135.171 23.3465C135.084 22.2225 134.274 21.2582 133.083 21.2582C131.935 21.2718 131.008 22.2002 130.997 23.3483C131.011 24.1797 130.817 25.0075 130.278 25.6666L133.557 28.1967C134.794 26.0162 135.339 23.5112 135.119 21.014C135.012 19.8971 134.24 18.9346 133.04 18.9346C131.95 18.9346 130.91 19.8863 130.959 21.014C131.031 21.9771 130.874 22.9436 130.503 23.835L134.376 24.8836L134.389 23.6716C134.405 21.8579 132.11 20.9457 130.84 22.2009C128.44 24.5999 125.565 26.4719 122.401 27.6975L124.419 31.1631C125.918 29.5752 127.7 28.28 129.673 27.3437L127.159 24.0918C125.564 25.5979 123.885 27.0133 122.131 28.3313C121.234 28.9975 120.779 30.127 121.388 31.1595C121.939 32.1005 123.27 32.5027 124.218 31.9029L129.908 28.3008L127.416 25.0596C125.033 27.7262 122.649 30.4305 120.831 33.5262C119.871 35.1639 121.451 36.8931 123.166 36.5537C124.512 36.2856 125.863 36.0366 127.217 35.8067C127.892 35.687 128.569 35.5775 129.249 35.4781C129.589 35.4261 129.928 35.374 130.268 35.3255C130.476 35.2916 130.685 35.2688 130.896 35.2573L130.837 35.2267C130.619 33.6334 130.33 33.1886 129.969 33.8926C130.034 33.8548 129.553 34.275 129.547 34.2804C129.176 34.64 128.778 34.9702 128.355 35.268C127.447 35.9033 126.458 36.4131 125.414 36.7836C122.945 37.6401 123.918 41.3536 126.491 40.7341L128.149 40.3301L126.576 36.6004C124.908 37.6809 122.952 38.2312 120.966 38.1788L121.988 41.9498L127.152 39.689C128.05 39.2939 128.337 37.9993 127.976 37.1751C127.588 36.2478 126.574 35.7501 125.602 36.0097C124.139 36.4353 122.604 36.5575 121.092 36.3688L122.507 39.7806C124.661 37.9645 126.744 36.0689 128.754 34.0937C129.95 32.9157 129.082 30.6478 127.351 30.707C123.514 30.8381 119.957 32.1436 116.43 33.5496C114.078 34.4851 114.965 37.7299 117.473 37.3313C120.014 36.9272 122.295 35.7816 124.27 34.1529C125.333 33.2766 124.784 31.7647 123.875 31.1003C120.566 28.6564 115.715 31.1559 115.678 35.2303C115.669 36.2952 116.098 37.3151 117.095 37.7856C118.003 38.2165 119 37.9131 119.898 37.606C121.727 36.9682 123.408 35.9664 124.839 34.6611C125.981 33.6304 125.1 31.5223 123.568 31.5905C120.745 31.7162 118.265 33.4544 116.971 35.9486C116.292 37.3104 115.891 38.7937 115.791 40.3121C115.733 41.0556 115.733 41.8024 115.791 42.5459C115.816 42.9051 116.091 44.1746 115.97 44.3254L116.498 43.7867L116.364 43.8639L117.105 43.6628H116.935C115.028 43.6449 115.085 46.43 116.935 46.588L116.94 46.6131Z" fill="#0E2F56"/>
<path d="M106.328 33.062C107.441 33.0319 108.337 32.1371 108.368 31.0239L108.294 30.4852C108.2 30.1456 108.019 29.8362 107.77 29.5874L107.357 29.2696C107.045 29.0859 106.69 28.9898 106.328 28.9912C105.214 29.0213 104.318 29.9172 104.288 31.0311L104.362 31.5698C104.456 31.9093 104.637 32.2187 104.886 32.4676L105.299 32.7854C105.611 32.9691 105.966 33.0652 106.328 33.0638V33.062Z" fill="white"/>
<path d="M115.46 32.0475C115.739 32.0604 116.017 31.9984 116.265 31.8679C116.523 31.7857 116.755 31.6371 116.938 31.437C117.311 31.032 117.528 30.5076 117.55 29.9574L117.477 29.4025C117.38 29.0535 117.194 28.7356 116.938 28.4795L116.516 28.1527C116.196 27.9643 115.831 27.8657 115.46 27.8672C114.319 27.9 113.402 28.8166 113.368 29.9574L113.444 30.514C113.54 30.863 113.726 31.181 113.982 31.437L114.406 31.7638C114.727 31.9507 115.091 32.0492 115.462 32.0493L115.46 32.0475Z" fill="white"/>
<path d="M124.267 30.9667C125.466 30.9356 126.43 29.9712 126.461 28.7724L126.382 28.1888C126.281 27.823 126.087 27.4896 125.819 27.221L125.375 26.878C125.039 26.6818 124.656 26.5784 124.267 26.5781C123.069 26.6119 122.107 27.5748 122.073 28.7724L122.152 29.356C122.253 29.722 122.447 30.0555 122.716 30.3239L123.161 30.6669C123.496 30.8638 123.878 30.9674 124.267 30.9667Z" fill="white"/>
<path d="M145 16.5001C145 21.1945 142.5 25.5002 136.5 25.0001C130.5 24.5 128 21.1945 128 16.5001C128 11.8057 128 6.50012 136.5 8.00012C145 9.50012 145 11.8057 145 16.5001Z" fill="#D4DBE4"/>
<path d="M133.181 12.524C133.805 11.7613 134.754 11.38 136.028 11.38C137.302 11.38 138.247 11.7613 138.862 12.524C139.486 13.2867 139.798 14.5303 139.798 16.255C139.798 17.9797 139.486 19.2233 138.862 19.986C138.247 20.7487 137.302 21.13 136.028 21.13C134.754 21.13 133.805 20.7487 133.181 19.986C132.566 19.2233 132.258 17.9797 132.258 16.255C132.258 14.5303 132.566 13.2867 133.181 12.524ZM134.871 18.738C135.123 19.2147 135.508 19.453 136.028 19.453C136.548 19.453 136.93 19.2147 137.172 18.738C137.424 18.2613 137.549 17.4337 137.549 16.255C137.549 15.0763 137.424 14.2487 137.172 13.772C136.93 13.2953 136.548 13.057 136.028 13.057C135.508 13.057 135.123 13.2953 134.871 13.772C134.629 14.2487 134.507 15.0763 134.507 16.255C134.507 17.4337 134.629 18.2613 134.871 18.738Z" fill="#0E2F56"/>
<path d="M39.7921 26C38.0657 27.079 38.7749 27.6329 39.973 28.7389C40.362 29.098 41.8851 30.0989 41.8851 28.9069C41.8851 27.7929 41.7481 27.3429 41.1874 26.3617C41.0169 26.0634 39.0612 26 38.6294 26" stroke="#D4DBE4" stroke-linecap="round" stroke-linejoin="round"/>
<path d="M39.3272 26.4653C39.2064 27.1553 39.341 28.134 40.0248 27.2793C40.4181 26.7877 39.7923 27.12 39.7923 27.7444C39.7923 28.3497 39.7889 28.7888 40.0119 29.3464C40.1168 29.6087 40.4899 28.4106 40.4899 28.2095C40.4899 26.6932 42.2916 27.1771 41.601 28.5583C40.9809 29.7985 41.2059 28.3348 41.1876 27.7314C41.1617 26.8768 40.435 27.3278 40.2574 27.8606" stroke="#D4DBE4" stroke-linecap="round" stroke-linejoin="round"/>
<path d="M33.2809 30.6509C33.2809 31.7693 33.0648 32.0913 34.0819 31.8007C34.4608 31.6924 34.4608 31.2372 34.0819 31.1289C33.7536 31.0351 33.0846 31.0608 32.7641 31.1677C32.144 31.3743 32.9354 31.5878 33.0483 31.8136" stroke="#D4DBE4" stroke-linecap="round" stroke-linejoin="round"/>
<path d="M205.064 5.72266C204.98 6.09682 204.21 7.35574 204.96 7.57014C205.58 7.74702 206.319 6.88541 205.413 6.88541C204.978 6.88541 204.215 7.11796 205.064 7.11796C205.832 7.11796 205.458 6.43875 205.296 5.95521" stroke="#D4DBE4" stroke-linecap="round" stroke-linejoin="round"/>
<path d="M132.5 9C131.5 9 129.4 9.8 129 13C129.5 11.6667 130.9 9 132.5 9Z" fill="white"/>
</svg>
