<svg width="24" height="24" viewBox="0 0 24 24" fill="none" xmlns="http://www.w3.org/2000/svg">
<rect width="24" height="24" rx="12" fill="#FC3B2D"/>
<path d="M11.9967 13.3773C11.9761 13.3773 11.9485 13.3773 11.9278 13.3773C11.9072 13.3773 11.8796 13.3773 11.859 13.3704C11.8383 13.3704 11.8108 13.3635 11.7901 13.3635C11.7694 13.3635 11.7419 13.3567 11.7212 13.3498C11.7006 13.3429 11.6799 13.3429 11.6523 13.336C11.6317 13.3291 11.611 13.3222 11.5904 13.3153C11.5697 13.3085 11.549 13.3016 11.5284 13.2947C11.5077 13.2878 11.487 13.2809 11.4664 13.2672C11.4457 13.2603 11.425 13.2465 11.4044 13.2396C11.3837 13.2327 11.3631 13.219 11.3424 13.2121C11.3217 13.1983 11.3011 13.1914 11.2804 13.1777C11.2597 13.1639 11.2391 13.157 11.2253 13.1433C11.2046 13.1295 11.1909 13.1157 11.1702 13.1019C11.1495 13.0882 11.1358 13.0744 11.1151 13.0606C11.0944 13.0469 11.0807 13.0331 11.0669 13.0193C11.0531 13.0056 11.0325 12.9849 11.0187 12.9712C11.0049 12.9574 10.9842 12.9367 10.9705 12.923C10.9567 12.9092 10.9429 12.8885 10.9291 12.8679C10.9154 12.8472 10.9016 12.8335 10.8878 12.8128C10.874 12.7922 10.8603 12.7784 10.8465 12.7577C10.8327 12.7371 10.8189 12.7164 10.812 12.7027C10.7983 12.682 10.7914 12.6614 10.7776 12.6407C10.7638 12.6201 10.7569 12.5994 10.7501 12.5788C10.7432 12.5581 10.7294 12.5375 10.7225 12.5168C10.7156 12.4962 10.7087 12.4755 10.695 12.4549C10.6881 12.4342 10.6812 12.4136 10.6743 12.3929C10.6674 12.3722 10.6605 12.3516 10.6536 12.3309C10.6467 12.3103 10.6399 12.2896 10.6399 12.2621C10.633 12.2415 10.633 12.2208 10.6261 12.1933C10.6192 12.1726 10.6192 12.1451 10.6192 12.1244C10.6192 12.1038 10.6123 12.0762 10.6123 12.0556C10.6123 12.0349 10.6123 12.0074 10.6123 11.9867C10.6123 11.9661 10.6123 11.9386 10.6123 11.9179C10.6123 11.8973 10.6123 11.8697 10.6192 11.8491C10.6192 11.8284 10.6261 11.8009 10.6261 11.7802C10.6261 11.7596 10.633 11.7389 10.6399 11.7114C10.6467 11.6907 10.6467 11.6701 10.6536 11.6426C10.6605 11.6219 10.6674 11.6012 10.6743 11.5806C10.6812 11.5599 10.6881 11.5393 10.695 11.5186C10.7018 11.498 10.7087 11.4773 10.7225 11.4567C10.7294 11.436 10.7432 11.4154 10.7501 11.3947C10.7569 11.3741 10.7707 11.3534 10.7776 11.3328C10.7914 11.3121 10.7983 11.2915 10.812 11.2708C10.8258 11.2502 10.8327 11.2295 10.8465 11.2157C10.8603 11.1951 10.874 11.1813 10.8878 11.1607C10.9016 11.14 10.9154 11.1263 10.9291 11.1056C10.9429 11.0849 10.9567 11.0712 10.9705 11.0505C10.9842 11.0368 10.998 11.0161 11.0187 11.0023C11.0325 10.9886 11.0531 10.9679 11.0669 10.9542C11.0807 10.9404 11.1013 10.9266 11.1151 10.9129C11.1358 10.8991 11.1495 10.8853 11.1702 10.8715C11.1909 10.8578 11.2046 10.844 11.2253 10.8302C11.246 10.8165 11.2666 10.8027 11.2804 10.7958C11.3011 10.7821 11.3217 10.7752 11.3424 10.7614C11.3631 10.7476 11.3837 10.7408 11.4044 10.7339C11.425 10.727 11.4457 10.7132 11.4664 10.7063C11.487 10.6994 11.5077 10.6926 11.5284 10.6788C11.549 10.6719 11.5697 10.665 11.5904 10.6581C11.611 10.6513 11.6317 10.6444 11.6523 10.6375C11.673 10.6306 11.6937 10.6237 11.7212 10.6237C11.7419 10.6168 11.7625 10.6168 11.7901 10.61C11.8108 10.61 11.8383 10.6031 11.859 10.6031C11.8796 10.6031 11.9072 10.5962 11.9278 10.5962C11.9761 10.5962 12.0174 10.5962 12.0656 10.5962C12.0863 10.5962 12.1138 10.5962 12.1345 10.6031C12.1551 10.6031 12.1827 10.61 12.2034 10.61C12.224 10.61 12.2516 10.6168 12.2722 10.6237C12.2929 10.6306 12.3136 10.6306 12.3411 10.6375C12.3618 10.6444 12.3824 10.6513 12.4031 10.6581C12.4238 10.665 12.4444 10.6719 12.4651 10.6788C12.4857 10.6857 12.5064 10.6926 12.5271 10.7063C12.5477 10.7132 12.5684 10.727 12.5891 10.7339C12.6097 10.7408 12.6304 10.7545 12.651 10.7614C12.6717 10.7752 12.6924 10.7821 12.713 10.7958C12.7337 10.8096 12.7544 10.8165 12.7681 10.8302C12.7888 10.844 12.8026 10.8578 12.8232 10.8715C12.8439 10.8853 12.8577 10.8991 12.8783 10.9129C12.899 10.9266 12.9128 10.9404 12.9266 10.9542C12.9403 10.9679 12.961 10.9886 12.9748 11.0023C12.9885 11.0161 13.0092 11.0368 13.023 11.0505C13.0368 11.0643 13.0505 11.0849 13.0643 11.1056C13.0781 11.1263 13.0919 11.14 13.1056 11.1607C13.1194 11.1813 13.1332 11.1951 13.147 11.2157C13.1607 11.2364 13.1745 11.257 13.1814 11.2708C13.1952 11.2915 13.2021 11.3121 13.2158 11.3328C13.2296 11.3534 13.2365 11.3741 13.2434 11.3947C13.2503 11.4154 13.2641 11.436 13.2709 11.4567C13.2778 11.4773 13.2847 11.498 13.2985 11.5186C13.3054 11.5393 13.3123 11.5599 13.3191 11.5806C13.326 11.6012 13.3329 11.6219 13.3398 11.6426C13.3467 11.6632 13.3536 11.6839 13.3536 11.7114C13.3605 11.732 13.3605 11.7527 13.3674 11.7802C13.3674 11.8009 13.3743 11.8284 13.3743 11.8491C13.3743 11.8697 13.3811 11.8973 13.3811 11.9179C13.3811 11.9386 13.3811 11.9661 13.3811 11.9867C13.3811 12.0074 13.3811 12.0349 13.3811 12.0556C13.3811 12.0762 13.3811 12.1038 13.3743 12.1244C13.3743 12.1451 13.3674 12.1726 13.3674 12.1933C13.3674 12.2139 13.3605 12.2346 13.3536 12.2621C13.3467 12.2828 13.3467 12.3034 13.3398 12.3309C13.3329 12.3516 13.326 12.3722 13.3191 12.3929C13.3123 12.4136 13.3054 12.4342 13.2985 12.4549C13.2916 12.4755 13.2847 12.4962 13.2709 12.5168C13.2641 12.5375 13.2503 12.5581 13.2434 12.5788C13.2365 12.5994 13.2227 12.6201 13.2158 12.6407C13.2021 12.6614 13.1952 12.682 13.1814 12.7027C13.1676 12.7233 13.1607 12.744 13.147 12.7577C13.1332 12.7784 13.1194 12.7922 13.1056 12.8128C13.0919 12.8335 13.0781 12.8472 13.0643 12.8679C13.0505 12.8885 13.0368 12.9023 13.023 12.923C13.0092 12.9367 12.9885 12.9574 12.9748 12.9712C12.961 12.9849 12.9403 13.0056 12.9266 13.0193C12.9128 13.0331 12.8921 13.0469 12.8783 13.0606C12.8577 13.0744 12.8439 13.0882 12.8232 13.1019C12.8026 13.1157 12.7888 13.1295 12.7681 13.1433C12.7475 13.157 12.7268 13.1708 12.713 13.1777C12.6924 13.1914 12.6717 13.1983 12.651 13.2121C12.6304 13.2259 12.6097 13.2327 12.5891 13.2396C12.5684 13.2465 12.5477 13.2603 12.5271 13.2672C12.5064 13.274 12.4857 13.2809 12.4651 13.2947C12.4444 13.3016 12.4238 13.3085 12.4031 13.3153C12.3824 13.3222 12.3618 13.3291 12.3411 13.336C12.3204 13.3429 12.2998 13.3498 12.2722 13.3498C12.2516 13.3567 12.224 13.3567 12.2034 13.3635C12.1827 13.3635 12.1551 13.3704 12.1345 13.3704C12.1138 13.3704 12.0863 13.3773 12.0656 13.3773C12.0449 13.3773 12.0174 13.3773 11.9967 13.3773Z" fill="white"/>
<path d="M14.8756 13.1024C14.855 13.1024 14.8412 13.1024 14.8205 13.1024C14.7999 13.1024 14.7861 13.1024 14.7654 13.0955C14.7448 13.0955 14.731 13.0886 14.7103 13.0886C14.6897 13.0886 14.6759 13.0817 14.6552 13.0817C14.6346 13.0748 14.6208 13.0748 14.6001 13.0679C14.5795 13.0611 14.5657 13.0611 14.545 13.0542C14.5313 13.0473 14.5106 13.0404 14.4968 13.0404C14.483 13.0335 14.4624 13.0266 14.4486 13.0198C14.4348 13.0129 14.4142 13.006 14.4004 12.9991C14.3866 12.9922 14.3659 12.9853 14.3522 12.9716C14.3384 12.9647 14.3177 12.9509 14.304 12.944C14.2902 12.9372 14.2695 12.9234 14.2557 12.9165C14.242 12.9096 14.2282 12.8959 14.2144 12.8821C14.2006 12.8683 14.1869 12.8614 14.1731 12.8477C14.1593 12.8339 14.1455 12.827 14.1318 12.8132C14.118 12.7995 14.1042 12.7857 14.0904 12.7788C14.0767 12.7651 14.0629 12.7513 14.056 12.7375C14.0422 12.7238 14.0285 12.71 14.0216 12.6962C14.0078 12.6825 14.0009 12.6687 13.9871 12.6549C13.9734 12.6411 13.9665 12.6274 13.9527 12.6136C13.9458 12.5998 13.932 12.5861 13.9251 12.5654C13.9183 12.5517 13.9045 12.531 13.8976 12.5172C13.8907 12.5035 13.8838 12.4828 13.87 12.469C13.8632 12.4553 13.8563 12.4346 13.8494 12.4209C13.8425 12.4071 13.8356 12.3864 13.8287 12.3727C13.8218 12.3589 13.8149 12.3383 13.8149 12.3245C13.8081 12.3038 13.808 12.2901 13.8012 12.2694C13.7943 12.2488 13.7943 12.235 13.7874 12.2143C13.7805 12.1937 13.7805 12.1799 13.7805 12.1593C13.7805 12.1386 13.7736 12.1248 13.7736 12.1042C13.7736 12.0835 13.7736 12.0698 13.7667 12.0491C13.7667 12.0285 13.7667 12.0147 13.7667 11.9941C13.7667 11.9734 13.7667 11.9596 13.7667 11.939C13.7667 11.9183 13.7667 11.9046 13.7736 11.8839C13.7736 11.8633 13.7805 11.8495 13.7805 11.8288C13.7805 11.8082 13.7874 11.7944 13.7874 11.7738C13.7943 11.7531 13.7943 11.7393 13.8012 11.7187C13.808 11.698 13.8081 11.6843 13.8149 11.6636C13.8218 11.6499 13.8287 11.6292 13.8287 11.6154C13.8287 11.6017 13.8425 11.581 13.8494 11.5673C13.8563 11.5535 13.8632 11.5328 13.87 11.5191C13.8769 11.5053 13.8838 11.4846 13.8976 11.4709C13.9045 11.4571 13.9183 11.4365 13.9251 11.4227C13.932 11.4089 13.9458 11.3883 13.9527 11.3745C13.9596 11.3607 13.9734 11.347 13.9871 11.3332C14.0009 11.3194 14.0078 11.3057 14.0216 11.2919C14.0353 11.2781 14.0422 11.2644 14.056 11.2506C14.0698 11.2368 14.0836 11.2231 14.0904 11.2093C14.1042 11.1955 14.118 11.1817 14.1318 11.1749C14.1455 11.1611 14.1593 11.1473 14.1731 11.1404C14.1869 11.1267 14.2006 11.1198 14.2144 11.106C14.2282 11.0923 14.242 11.0854 14.2557 11.0716C14.2695 11.0647 14.2833 11.051 14.304 11.0441C14.3177 11.0372 14.3384 11.0234 14.3522 11.0165C14.3659 11.0097 14.3866 11.0028 14.4004 10.989C14.4142 10.9821 14.4348 10.9752 14.4486 10.9683C14.4624 10.9615 14.483 10.9546 14.4968 10.9477C14.5106 10.9408 14.5313 10.9339 14.545 10.9339C14.5657 10.927 14.5795 10.927 14.6001 10.9202C14.6208 10.9133 14.6346 10.9133 14.6552 10.9064C14.6759 10.8995 14.6897 10.8995 14.7103 10.8995C14.731 10.8995 14.7448 10.8926 14.7654 10.8926C14.7861 10.8926 14.7999 10.8926 14.8205 10.8857C14.855 10.8857 14.8963 10.8857 14.9307 10.8857C14.9514 10.8857 14.9652 10.8857 14.9858 10.8926C15.0065 10.8926 15.0203 10.8995 15.0409 10.8995C15.0616 10.8995 15.0754 10.9064 15.096 10.9064C15.1167 10.9133 15.1305 10.9133 15.1511 10.9202C15.1718 10.927 15.1856 10.927 15.2062 10.9339C15.22 10.9408 15.2407 10.9477 15.2545 10.9477C15.2682 10.9546 15.2889 10.9615 15.3027 10.9683C15.3164 10.9752 15.3371 10.9821 15.3509 10.989C15.3647 10.9959 15.3853 11.0028 15.3991 11.0165C15.4129 11.0234 15.4335 11.0372 15.4473 11.0441C15.4611 11.051 15.4749 11.0647 15.4955 11.0716C15.5093 11.0785 15.5231 11.0923 15.5369 11.106C15.5506 11.1198 15.5644 11.1267 15.5782 11.1404C15.592 11.1542 15.6057 11.1611 15.6195 11.1749C15.6333 11.1886 15.6471 11.2024 15.6608 11.2093C15.6746 11.2231 15.6884 11.2368 15.6953 11.2506C15.709 11.2644 15.7228 11.2781 15.7297 11.2919C15.7435 11.3057 15.7504 11.3194 15.7641 11.3332C15.7779 11.347 15.7848 11.3607 15.7986 11.3745C15.8055 11.3883 15.8192 11.402 15.8261 11.4227C15.833 11.4365 15.8468 11.4571 15.8537 11.4709C15.8606 11.4846 15.8675 11.5053 15.8812 11.5191C15.8881 11.5328 15.895 11.5535 15.9019 11.5673C15.9088 11.581 15.9157 11.6017 15.9226 11.6154C15.9294 11.6292 15.9363 11.6499 15.9363 11.6636C15.9432 11.6843 15.9432 11.698 15.9501 11.7187C15.957 11.7393 15.957 11.7531 15.9639 11.7738C15.9708 11.7944 15.9708 11.8082 15.9708 11.8288C15.9708 11.8495 15.9777 11.8633 15.9777 11.8839C15.9777 11.9046 15.9777 11.9183 15.9845 11.939C15.9845 11.9596 15.9845 11.9734 15.9845 11.9941C15.9845 12.0147 15.9845 12.0285 15.9845 12.0491C15.9845 12.0698 15.9845 12.0835 15.9777 12.1042C15.9777 12.1248 15.9708 12.1386 15.9708 12.1593C15.9708 12.1799 15.9639 12.1937 15.9639 12.2143C15.957 12.235 15.957 12.2488 15.9501 12.2694C15.9432 12.2901 15.9432 12.3038 15.9363 12.3245C15.9294 12.3383 15.9226 12.3589 15.9226 12.3727C15.9157 12.3864 15.9088 12.4071 15.9019 12.4209C15.895 12.4346 15.8881 12.4553 15.8812 12.469C15.8743 12.4828 15.8675 12.5035 15.8537 12.5172C15.8468 12.531 15.833 12.5517 15.8261 12.5654C15.8192 12.5792 15.8055 12.5998 15.7986 12.6136C15.7917 12.6274 15.7779 12.6411 15.7641 12.6549C15.7504 12.6687 15.7435 12.6825 15.7297 12.6962C15.7159 12.71 15.709 12.7238 15.6953 12.7375C15.6815 12.7513 15.6677 12.7651 15.6608 12.7788C15.6471 12.7926 15.6333 12.8064 15.6195 12.8132C15.6057 12.827 15.592 12.8408 15.5782 12.8477C15.5644 12.8614 15.5506 12.8683 15.5369 12.8821C15.5231 12.8959 15.5093 12.9027 15.4955 12.9165C15.4817 12.9234 15.468 12.9372 15.4473 12.944C15.4335 12.9509 15.4129 12.9647 15.3991 12.9716C15.3853 12.9785 15.3647 12.9853 15.3509 12.9991C15.3371 13.006 15.3164 13.0129 15.3027 13.0198C15.2889 13.0266 15.2682 13.0335 15.2545 13.0404C15.2407 13.0473 15.22 13.0542 15.2062 13.0542C15.1856 13.0611 15.1718 13.0611 15.1511 13.0679C15.1305 13.0748 15.1167 13.0748 15.096 13.0817C15.0754 13.0886 15.0616 13.0886 15.0409 13.0886C15.0203 13.0886 15.0065 13.0955 14.9858 13.0955C14.9652 13.0955 14.9514 13.0955 14.9307 13.1024C14.9101 13.1024 14.8894 13.1024 14.8756 13.1024Z" fill="white"/>
<path d="M9.12441 13.1028C9.10375 13.1028 9.08998 13.1028 9.06931 13.1028C9.04865 13.1028 9.03487 13.1028 9.01421 13.0959C8.99355 13.0959 8.97977 13.089 8.95911 13.089C8.93845 13.089 8.92467 13.0822 8.90401 13.0822C8.88335 13.0753 8.86957 13.0753 8.84891 13.0684C8.82824 13.0615 8.81447 13.0615 8.79381 13.0546C8.78003 13.0477 8.75937 13.0409 8.74559 13.0409C8.73182 13.034 8.71116 13.0271 8.69738 13.0202C8.68361 13.0133 8.66294 13.0064 8.64917 12.9996C8.63539 12.9927 8.61473 12.9858 8.60095 12.972C8.58718 12.9651 8.56652 12.9514 8.55274 12.9445C8.53896 12.9376 8.5183 12.9238 8.50453 12.9169C8.49075 12.9101 8.47697 12.8963 8.4632 12.8894C8.44942 12.8756 8.43565 12.8688 8.42187 12.855C8.4081 12.8412 8.39432 12.8343 8.38055 12.8206C8.36677 12.8068 8.353 12.793 8.33922 12.7862C8.32545 12.7724 8.31167 12.7586 8.30478 12.7448C8.2979 12.7311 8.28412 12.7173 8.27035 12.7035C8.25657 12.6898 8.24968 12.676 8.23591 12.6622C8.22213 12.6485 8.21524 12.6347 8.20147 12.6209C8.19458 12.6072 8.18081 12.5934 8.17392 12.5728C8.16703 12.559 8.15326 12.5383 8.14637 12.5246C8.13948 12.5108 8.13259 12.4901 8.11882 12.4764C8.11193 12.4626 8.10504 12.442 8.09815 12.4282C8.09127 12.4144 8.08438 12.3938 8.07749 12.38C8.0706 12.3662 8.06372 12.3456 8.06372 12.3318C8.05683 12.3112 8.05683 12.2974 8.04994 12.2767C8.04305 12.2561 8.04305 12.2423 8.03617 12.2217C8.03617 12.201 8.02928 12.1872 8.02928 12.1666C8.02928 12.1459 8.02239 12.1322 8.02239 12.1115C8.02239 12.0909 8.02239 12.0771 8.0155 12.0565C8.0155 12.0358 8.0155 12.022 8.0155 12.0014C8.0155 11.9807 8.0155 11.967 8.0155 11.9463C8.0155 11.9257 8.0155 11.9119 8.02239 11.8912C8.02239 11.8706 8.02928 11.8568 8.02928 11.8362C8.02928 11.8155 8.03617 11.8017 8.03617 11.7811C8.04305 11.7604 8.04305 11.7467 8.04994 11.726C8.05683 11.7054 8.05683 11.6916 8.06372 11.671C8.0706 11.6572 8.07749 11.6365 8.07749 11.6228C8.08438 11.609 8.09127 11.5883 8.09815 11.5746C8.10504 11.5608 8.11193 11.5402 8.11882 11.5264C8.1257 11.5126 8.13259 11.492 8.14637 11.4782C8.15326 11.4644 8.16703 11.4438 8.17392 11.43C8.18081 11.4162 8.19458 11.3956 8.20147 11.3818C8.20836 11.3681 8.22213 11.3543 8.23591 11.3405C8.24968 11.3268 8.25657 11.313 8.27035 11.2992C8.28412 11.2855 8.29101 11.2717 8.30478 11.2579C8.31856 11.2441 8.33233 11.2304 8.33922 11.2166C8.353 11.2028 8.36677 11.1891 8.38055 11.1822C8.39432 11.1684 8.4081 11.1547 8.42187 11.1478C8.43565 11.134 8.44942 11.1271 8.4632 11.1134C8.47697 11.0996 8.49075 11.0927 8.50453 11.0789C8.5183 11.072 8.53208 11.0583 8.55274 11.0514C8.56652 11.0445 8.58718 11.0307 8.60095 11.0239C8.61473 11.017 8.63539 11.0101 8.64917 10.9963C8.66294 10.9894 8.68361 10.9826 8.69738 10.9757C8.71116 10.9688 8.73182 10.9619 8.74559 10.955C8.75937 10.9481 8.78003 10.9413 8.79381 10.9413C8.81447 10.9344 8.82824 10.9344 8.84891 10.9275C8.86957 10.9206 8.88335 10.9206 8.90401 10.9137C8.92467 10.9068 8.93845 10.9068 8.95911 10.9068C8.97977 10.9068 8.99355 10.8999 9.01421 10.8999C9.03487 10.8999 9.04865 10.9 9.06931 10.8931C9.10375 10.8931 9.14508 10.8931 9.17952 10.8931C9.20018 10.8931 9.21395 10.8931 9.23462 10.8999C9.25528 10.8999 9.26905 10.9068 9.28972 10.9068C9.31038 10.9068 9.32416 10.9137 9.34482 10.9137C9.36548 10.9206 9.37926 10.9206 9.39992 10.9275C9.42058 10.9344 9.43436 10.9344 9.45502 10.9413C9.47569 10.9481 9.48946 10.955 9.50323 10.955C9.51701 10.9619 9.53767 10.9688 9.55145 10.9757C9.56522 10.9826 9.58589 10.9894 9.59966 10.9963C9.61344 11.0032 9.6341 11.0101 9.64788 11.0239C9.66165 11.0307 9.68231 11.0445 9.69609 11.0514C9.70987 11.0583 9.72364 11.072 9.7443 11.0789C9.75808 11.0858 9.77185 11.0996 9.78563 11.1134C9.7994 11.1271 9.81318 11.134 9.82695 11.1478C9.84073 11.1615 9.85451 11.1684 9.86828 11.1822C9.88206 11.196 9.89583 11.2097 9.90961 11.2166C9.92338 11.2304 9.93716 11.2441 9.94404 11.2579C9.95782 11.2717 9.96471 11.2855 9.97848 11.2992C9.99226 11.313 9.99914 11.3268 10.0129 11.3405C10.0267 11.3543 10.0336 11.3681 10.0474 11.3818C10.0542 11.3956 10.068 11.4094 10.0749 11.43C10.0818 11.4438 10.0956 11.4644 10.1025 11.4782C10.1093 11.492 10.1162 11.5126 10.13 11.5264C10.1369 11.5402 10.1438 11.5608 10.1507 11.5746C10.1576 11.5883 10.1644 11.609 10.1713 11.6228C10.1782 11.6365 10.1851 11.6572 10.192 11.671C10.1989 11.6916 10.1989 11.7054 10.2058 11.726C10.2127 11.7467 10.2127 11.7604 10.2195 11.7811C10.2264 11.8017 10.2264 11.8155 10.2264 11.8362C10.2264 11.8568 10.2333 11.8706 10.2333 11.8912C10.2333 11.9119 10.2333 11.9257 10.2402 11.9463C10.2402 11.967 10.2402 11.9807 10.2402 12.0014C10.2402 12.022 10.2402 12.0358 10.2402 12.0565C10.2402 12.0771 10.2402 12.0909 10.2333 12.1115C10.2333 12.1322 10.2264 12.1459 10.2264 12.1666C10.2264 12.1872 10.2195 12.201 10.2195 12.2217C10.2127 12.2423 10.2127 12.2561 10.2058 12.2767C10.1989 12.2974 10.1989 12.3112 10.192 12.3318C10.1851 12.3456 10.1782 12.3662 10.1713 12.38C10.1644 12.3938 10.1576 12.4144 10.1507 12.4282C10.1438 12.442 10.1369 12.4626 10.13 12.4764C10.1231 12.4901 10.1162 12.5108 10.1025 12.5246C10.0887 12.5383 10.0818 12.559 10.0749 12.5728C10.068 12.5865 10.0542 12.6003 10.0474 12.6209C10.0405 12.6347 10.0267 12.6485 10.0129 12.6622C9.99914 12.676 9.99226 12.6898 9.97848 12.7035C9.96471 12.7173 9.95782 12.7311 9.94404 12.7448C9.93027 12.7586 9.91649 12.7724 9.90961 12.7862C9.89583 12.7999 9.88206 12.8137 9.86828 12.8206C9.85451 12.8343 9.84073 12.8481 9.82695 12.855C9.81318 12.8688 9.7994 12.8756 9.78563 12.8894C9.77185 12.9032 9.75808 12.9101 9.7443 12.9169C9.73053 12.9238 9.71675 12.9376 9.69609 12.9445C9.68231 12.9514 9.66165 12.9651 9.64788 12.972C9.6341 12.9789 9.61344 12.9858 9.59966 12.9996C9.58589 13.0064 9.56522 13.0133 9.55145 13.0202C9.53767 13.0271 9.51701 13.034 9.50323 13.0409C9.48946 13.0477 9.4688 13.0546 9.45502 13.0546C9.44125 13.0615 9.42058 13.0615 9.39992 13.0684C9.37926 13.0753 9.36548 13.0753 9.34482 13.0822C9.32416 13.089 9.31038 13.089 9.28972 13.089C9.26905 13.089 9.25528 13.0959 9.23462 13.0959C9.21395 13.0959 9.20018 13.0959 9.17952 13.1028C9.15885 13.1028 9.13819 13.1028 9.12441 13.1028Z" fill="white"/>
<path d="M11.9967 10.2318C11.976 10.2318 11.9622 10.2318 11.9416 10.2318C11.9209 10.2318 11.9071 10.2318 11.8865 10.2249C11.8658 10.2249 11.852 10.218 11.8314 10.218C11.8107 10.218 11.7969 10.2112 11.7763 10.2112C11.7556 10.2043 11.7418 10.2043 11.7212 10.1974C11.7005 10.1905 11.6867 10.1905 11.6661 10.1836C11.6454 10.1767 11.6316 10.1699 11.6178 10.1699C11.6041 10.163 11.5834 10.1561 11.5696 10.1492C11.5558 10.1423 11.5352 10.1354 11.5214 10.1286C11.5076 10.1217 11.487 10.1148 11.4732 10.101C11.4594 10.0941 11.4388 10.0804 11.425 10.0735C11.4112 10.0666 11.3974 10.0528 11.3768 10.046C11.363 10.0391 11.3492 10.0253 11.3354 10.0115C11.3217 9.99776 11.3079 9.99088 11.2941 9.97711C11.2803 9.96334 11.2666 9.95646 11.2528 9.94269C11.239 9.92892 11.2252 9.91516 11.2115 9.90827C11.1977 9.8945 11.1839 9.88073 11.177 9.86697C11.1633 9.8532 11.1564 9.83943 11.1426 9.82566C11.1288 9.8119 11.1219 9.79813 11.1082 9.78436C11.0944 9.77059 11.0875 9.75682 11.0737 9.74306C11.0668 9.72929 11.0531 9.71552 11.0462 9.69487C11.0393 9.6811 11.0255 9.66045 11.0186 9.64668C11.0117 9.63291 11.0048 9.61226 10.9911 9.59849C10.9842 9.58473 10.9773 9.56407 10.9704 9.55031C10.9635 9.53654 10.9566 9.51589 10.9497 9.50212C10.9428 9.48835 10.936 9.4677 10.9291 9.45393C10.9222 9.43328 10.9222 9.41951 10.9153 9.39886C10.9084 9.37821 10.9084 9.36444 10.9015 9.34379C10.8946 9.32314 10.8946 9.30937 10.8946 9.28872C10.8946 9.26806 10.8877 9.2543 10.8877 9.23365C10.8877 9.21299 10.8877 9.19922 10.8809 9.17857C10.8809 9.15792 10.8809 9.14415 10.8809 9.1235C10.8809 9.10285 10.8809 9.08908 10.8809 9.06843C10.8809 9.04778 10.8809 9.03401 10.8877 9.01336C10.8877 8.99271 10.8946 8.97894 10.8946 8.95829C10.8946 8.93764 10.9015 8.92387 10.9015 8.90321C10.9084 8.88256 10.9084 8.86879 10.9153 8.84814C10.9222 8.82749 10.9222 8.81372 10.9291 8.79307C10.936 8.77242 10.9428 8.75865 10.9497 8.74488C10.9566 8.73112 10.9635 8.71046 10.9704 8.6967C10.9773 8.68293 10.9842 8.66228 10.9911 8.64851C10.9979 8.63474 11.0048 8.61409 11.0186 8.60032C11.0255 8.58655 11.0393 8.5659 11.0462 8.55213C11.0531 8.53837 11.0668 8.5246 11.0737 8.50395C11.0806 8.49018 11.0944 8.47641 11.1082 8.46264C11.1219 8.44888 11.1288 8.43511 11.1426 8.42134C11.1564 8.40757 11.1633 8.3938 11.177 8.38004C11.1908 8.36627 11.2046 8.3525 11.2115 8.33873C11.2252 8.32497 11.239 8.3112 11.2528 8.30431C11.2666 8.29055 11.2803 8.28366 11.2941 8.26989C11.3079 8.25613 11.3217 8.24924 11.3354 8.23547C11.3492 8.22171 11.363 8.21482 11.3768 8.20105C11.3905 8.19417 11.4043 8.1804 11.425 8.17352C11.4388 8.16663 11.4594 8.15286 11.4732 8.14598C11.487 8.1391 11.5076 8.13221 11.5214 8.11845C11.5352 8.11156 11.5558 8.10468 11.5696 8.0978C11.5834 8.09091 11.6041 8.08402 11.6178 8.07714C11.6316 8.07026 11.6523 8.06337 11.6661 8.05649C11.6798 8.04961 11.7005 8.0496 11.7212 8.04272C11.7418 8.03584 11.7556 8.03584 11.7763 8.02896C11.7969 8.02207 11.8107 8.02207 11.8314 8.02207C11.852 8.02207 11.8658 8.01519 11.8865 8.01519C11.9071 8.01519 11.9209 8.01518 11.9416 8.0083C11.976 8.0083 12.0173 8.0083 12.0518 8.0083C12.0724 8.0083 12.0862 8.0083 12.1069 8.01519C12.1275 8.01519 12.1413 8.02207 12.162 8.02207C12.1826 8.02207 12.1964 8.02896 12.2171 8.02896C12.2377 8.03584 12.2515 8.03584 12.2722 8.04272C12.2928 8.0496 12.3066 8.04961 12.3273 8.05649C12.341 8.06337 12.3617 8.07026 12.3755 8.07714C12.3893 8.08402 12.4099 8.09091 12.4237 8.0978C12.4375 8.10468 12.4581 8.11156 12.4719 8.11845C12.4857 8.12533 12.5063 8.13221 12.5201 8.14598C12.5339 8.15286 12.5546 8.16663 12.5683 8.17352C12.5821 8.1804 12.6028 8.19417 12.6165 8.20105C12.6303 8.20794 12.6441 8.22171 12.6579 8.23547C12.6716 8.24924 12.6854 8.25613 12.6992 8.26989C12.713 8.28366 12.7267 8.29055 12.7405 8.30431C12.7543 8.31808 12.7681 8.33185 12.7819 8.33873C12.7956 8.3525 12.8094 8.36627 12.8163 8.38004C12.8301 8.3938 12.8438 8.40757 12.8507 8.42134C12.8645 8.43511 12.8714 8.44888 12.8852 8.46264C12.8989 8.47641 12.9058 8.49018 12.9196 8.50395C12.9265 8.51771 12.9403 8.53148 12.9472 8.55213C12.954 8.5659 12.9678 8.58655 12.9747 8.60032C12.9816 8.61409 12.9885 8.63474 13.0023 8.64851C13.0091 8.66228 13.016 8.68293 13.0229 8.6967C13.0298 8.71046 13.0367 8.73112 13.0436 8.74488C13.0505 8.75865 13.0574 8.7793 13.0574 8.79307C13.0642 8.80684 13.0642 8.82749 13.0711 8.84814C13.078 8.86879 13.078 8.88256 13.0849 8.90321C13.0918 8.92387 13.0918 8.93764 13.0918 8.95829C13.0918 8.97894 13.0987 8.99271 13.0987 9.01336C13.0987 9.03401 13.0987 9.04778 13.1056 9.06843C13.1056 9.08908 13.1056 9.10285 13.1056 9.1235C13.1056 9.14415 13.1056 9.15792 13.1056 9.17857C13.1056 9.19922 13.1056 9.21299 13.0987 9.23365C13.0987 9.2543 13.0918 9.26806 13.0918 9.28872C13.0918 9.30937 13.0849 9.32314 13.0849 9.34379C13.0849 9.36444 13.078 9.37821 13.0711 9.39886C13.0642 9.41951 13.0642 9.43328 13.0574 9.45393C13.0505 9.4677 13.0436 9.48835 13.0436 9.50212C13.0367 9.51589 13.0298 9.53654 13.0229 9.55031C13.016 9.56407 13.0091 9.58473 13.0023 9.59849C12.9954 9.61226 12.9885 9.63291 12.9747 9.64668C12.9678 9.66045 12.954 9.6811 12.9472 9.69487C12.9403 9.70863 12.9265 9.72929 12.9196 9.74306C12.9127 9.75682 12.8989 9.77059 12.8852 9.78436C12.8714 9.79813 12.8645 9.8119 12.8507 9.82566C12.837 9.83943 12.8301 9.8532 12.8163 9.86697C12.8025 9.88073 12.7887 9.8945 12.7819 9.90827C12.7681 9.92204 12.7543 9.93581 12.7405 9.94269C12.7267 9.95646 12.713 9.97023 12.6992 9.97711C12.6854 9.99088 12.6716 9.99776 12.6579 10.0115C12.6441 10.0253 12.6303 10.0322 12.6165 10.046C12.6028 10.0528 12.589 10.0666 12.5683 10.0735C12.5546 10.0804 12.5339 10.0941 12.5201 10.101C12.5063 10.1079 12.4857 10.1148 12.4719 10.1286C12.4581 10.1354 12.4375 10.1423 12.4237 10.1492C12.4099 10.1561 12.3893 10.163 12.3755 10.1699C12.3617 10.1767 12.341 10.1836 12.3273 10.1836C12.3066 10.1905 12.2928 10.1905 12.2722 10.1974C12.2515 10.2043 12.2377 10.2043 12.2171 10.2112C12.1964 10.2112 12.1826 10.218 12.162 10.218C12.1413 10.218 12.1275 10.2249 12.1069 10.2249C12.0862 10.2249 12.0724 10.2249 12.0518 10.2318C12.0311 10.2318 12.0173 10.2318 11.9967 10.2318Z" fill="white"/>
<path d="M11.9967 15.9794C11.976 15.9794 11.9622 15.9794 11.9416 15.9794C11.9209 15.9794 11.9071 15.9794 11.8865 15.9725C11.8658 15.9725 11.852 15.9656 11.8314 15.9656C11.8107 15.9656 11.7969 15.9587 11.7763 15.9587C11.7556 15.9518 11.7418 15.9518 11.7212 15.945C11.7005 15.9381 11.6867 15.9381 11.6661 15.9312C11.6454 15.9243 11.6316 15.9174 11.6178 15.9105C11.6041 15.9037 11.5834 15.8968 11.5696 15.8899C11.5558 15.883 11.5352 15.8761 11.5214 15.8692C11.5076 15.8623 11.487 15.8555 11.4732 15.8417C11.4594 15.8348 11.4388 15.821 11.425 15.8142C11.4112 15.8073 11.3974 15.7935 11.3768 15.7866C11.363 15.7797 11.3492 15.766 11.3354 15.7522C11.3217 15.7384 11.3079 15.7316 11.2941 15.7178C11.2803 15.704 11.2666 15.6971 11.2528 15.6834C11.239 15.6696 11.2252 15.6558 11.2115 15.6489C11.1977 15.6352 11.1839 15.6214 11.177 15.6076C11.1633 15.5939 11.1564 15.5801 11.1426 15.5663C11.1288 15.5526 11.1219 15.5388 11.1082 15.525C11.0944 15.5113 11.0875 15.4975 11.0737 15.4837C11.0668 15.47 11.0531 15.4562 11.0462 15.4355C11.0393 15.4218 11.0255 15.4011 11.0186 15.3874C11.0117 15.3736 11.0048 15.3529 10.9911 15.3392C10.9842 15.3254 10.9773 15.3048 10.9704 15.291C10.9635 15.2772 10.9566 15.2566 10.9497 15.2428C10.9428 15.229 10.936 15.2084 10.9291 15.1946C10.9222 15.1808 10.9222 15.1602 10.9153 15.1395C10.9084 15.1189 10.9084 15.1051 10.9015 15.0845C10.8946 15.0638 10.8946 15.05 10.8946 15.0294C10.8946 15.0087 10.8877 14.995 10.8877 14.9743C10.8877 14.9537 10.8877 14.9399 10.8809 14.9192C10.8809 14.8986 10.8809 14.8848 10.8809 14.8642C10.8809 14.8435 10.8809 14.8298 10.8809 14.8091C10.8809 14.7885 10.8809 14.7747 10.8877 14.754C10.8877 14.7334 10.8946 14.7196 10.8946 14.699C10.8946 14.6783 10.9015 14.6645 10.9015 14.6439C10.9084 14.6232 10.9084 14.6095 10.9153 14.5888C10.9222 14.5682 10.9222 14.5544 10.9291 14.5337C10.936 14.52 10.9428 14.4993 10.9497 14.4856C10.9566 14.4718 10.9635 14.4511 10.9704 14.4374C10.9773 14.4236 10.9842 14.403 10.9911 14.3892C10.9979 14.3754 11.0048 14.3548 11.0186 14.341C11.0255 14.3272 11.0393 14.3066 11.0462 14.2928C11.0531 14.279 11.0668 14.2584 11.0737 14.2446C11.0806 14.2309 11.0944 14.2171 11.1082 14.2033C11.1219 14.1895 11.1288 14.1758 11.1426 14.162C11.1564 14.1482 11.1633 14.1345 11.177 14.1207C11.1908 14.1069 11.2046 14.0932 11.2115 14.0794C11.2252 14.0656 11.239 14.0519 11.2528 14.045C11.2666 14.0312 11.2803 14.0175 11.2941 14.0106C11.3079 13.9968 11.3217 13.9899 11.3354 13.9761C11.3492 13.9624 11.363 13.9555 11.3768 13.9417C11.3905 13.9348 11.4043 13.9211 11.425 13.9142C11.4388 13.9073 11.4594 13.8935 11.4732 13.8867C11.487 13.8798 11.5076 13.8729 11.5214 13.8591C11.5352 13.8522 11.5558 13.8454 11.5696 13.8385C11.5834 13.8316 11.6041 13.8247 11.6178 13.8178C11.6316 13.8109 11.6523 13.804 11.6661 13.804C11.6798 13.7972 11.7005 13.7972 11.7212 13.7903C11.7418 13.7834 11.7556 13.7834 11.7763 13.7765C11.7969 13.7765 11.8107 13.7696 11.8314 13.7696C11.852 13.7696 11.8658 13.7627 11.8865 13.7627C11.9071 13.7627 11.9209 13.7627 11.9416 13.7559C11.976 13.7559 12.0173 13.7559 12.0518 13.7559C12.0724 13.7559 12.0862 13.7559 12.1069 13.7627C12.1275 13.7627 12.1413 13.7696 12.162 13.7696C12.1826 13.7696 12.1964 13.7765 12.2171 13.7765C12.2377 13.7834 12.2515 13.7834 12.2722 13.7903C12.2928 13.7972 12.3066 13.7972 12.3273 13.804C12.341 13.8109 12.3617 13.8178 12.3755 13.8178C12.3893 13.8247 12.4099 13.8316 12.4237 13.8385C12.4375 13.8454 12.4581 13.8522 12.4719 13.8591C12.4857 13.866 12.5063 13.8729 12.5201 13.8867C12.5339 13.8935 12.5546 13.9073 12.5683 13.9142C12.5821 13.9211 12.6028 13.9348 12.6165 13.9417C12.6303 13.9486 12.6441 13.9624 12.6579 13.9761C12.6716 13.9899 12.6854 13.9968 12.6992 14.0106C12.713 14.0243 12.7267 14.0312 12.7405 14.045C12.7543 14.0588 12.7681 14.0725 12.7819 14.0794C12.7956 14.0932 12.8094 14.1069 12.8163 14.1207C12.8301 14.1345 12.8438 14.1482 12.8507 14.162C12.8645 14.1758 12.8714 14.1895 12.8852 14.2033C12.8989 14.2171 12.9058 14.2309 12.9196 14.2446C12.9265 14.2584 12.9403 14.2722 12.9472 14.2928C12.954 14.3066 12.9678 14.3272 12.9747 14.341C12.9816 14.3548 12.9885 14.3754 13.0023 14.3892C13.016 14.403 13.016 14.4236 13.0229 14.4374C13.0298 14.4511 13.0367 14.4718 13.0436 14.4856C13.0505 14.4993 13.0574 14.52 13.0574 14.5337C13.0642 14.5544 13.0642 14.5682 13.0711 14.5888C13.078 14.6095 13.078 14.6232 13.0849 14.6439C13.0918 14.6645 13.0918 14.6783 13.0918 14.699C13.0918 14.7196 13.0987 14.7334 13.0987 14.754C13.0987 14.7747 13.0987 14.7885 13.1056 14.8091C13.1056 14.8298 13.1056 14.8435 13.1056 14.8642C13.1056 14.8848 13.1056 14.8986 13.1056 14.9192C13.1056 14.9399 13.1056 14.9537 13.0987 14.9743C13.0987 14.995 13.0918 15.0087 13.0918 15.0294C13.0918 15.05 13.0849 15.0638 13.0849 15.0845C13.0849 15.1051 13.078 15.1189 13.0711 15.1395C13.0642 15.1602 13.0642 15.174 13.0574 15.1946C13.0505 15.2153 13.0436 15.229 13.0436 15.2428C13.0367 15.2566 13.0298 15.2772 13.0229 15.291C13.016 15.3048 13.0091 15.3254 13.0023 15.3392C12.9954 15.3529 12.9885 15.3736 12.9747 15.3874C12.9609 15.4011 12.954 15.4218 12.9472 15.4355C12.9403 15.4493 12.9265 15.4631 12.9196 15.4837C12.9127 15.4975 12.8989 15.5113 12.8852 15.525C12.8714 15.5388 12.8645 15.5526 12.8507 15.5663C12.837 15.5801 12.8301 15.5939 12.8163 15.6076C12.8025 15.6214 12.7887 15.6352 12.7819 15.6489C12.7681 15.6627 12.7543 15.6765 12.7405 15.6834C12.7267 15.6971 12.713 15.704 12.6992 15.7178C12.6854 15.7316 12.6716 15.7384 12.6579 15.7522C12.6441 15.766 12.6303 15.7729 12.6165 15.7866C12.6028 15.7935 12.589 15.8073 12.5683 15.8142C12.5546 15.821 12.5339 15.8348 12.5201 15.8417C12.5063 15.8486 12.4857 15.8555 12.4719 15.8692C12.4581 15.8761 12.4375 15.883 12.4237 15.8899C12.4099 15.8968 12.3893 15.9037 12.3755 15.9105C12.3617 15.9174 12.341 15.9243 12.3273 15.9312C12.3066 15.9381 12.2928 15.9381 12.2722 15.945C12.2515 15.9518 12.2377 15.9518 12.2171 15.9587C12.1964 15.9656 12.1826 15.9656 12.162 15.9656C12.1413 15.9656 12.1275 15.9725 12.1069 15.9725C12.0862 15.9725 12.0724 15.9725 12.0518 15.9794C12.0311 15.9794 12.0173 15.9794 11.9967 15.9794Z" fill="white"/>
<path d="M14.5931 10.2322C14.5655 10.2322 14.538 10.2322 14.5104 10.2253C14.4829 10.2253 14.4553 10.2184 14.4278 10.2115C14.4002 10.2046 14.3727 10.1977 14.352 10.1909C14.3245 10.184 14.2969 10.1771 14.2763 10.1633C14.2487 10.1564 14.2281 10.1427 14.2005 10.1289C14.1798 10.1151 14.1523 10.1014 14.1316 10.0876C14.111 10.0738 14.0834 10.0532 14.0628 10.0394C14.0421 10.0256 14.0214 10.005 14.0008 9.98434C13.9801 9.96369 13.9663 9.94304 13.9457 9.92239C13.9319 9.90173 13.9112 9.88108 13.8974 9.85355C13.8837 9.8329 13.8699 9.80536 13.8561 9.78471C13.8423 9.76406 13.8286 9.73652 13.8217 9.70898C13.8148 9.68145 13.801 9.6608 13.7941 9.63326C13.7872 9.60572 13.7804 9.57819 13.7735 9.55753C13.7666 9.53 13.7666 9.50247 13.7597 9.47493C13.7597 9.44739 13.7528 9.41986 13.7528 9.39232C13.7528 9.36479 13.7528 9.33725 13.7597 9.30971C13.7597 9.28218 13.7666 9.25464 13.7735 9.22711C13.7804 9.19957 13.7872 9.17204 13.7941 9.15138C13.801 9.12385 13.8079 9.10319 13.8217 9.07566C13.8355 9.04812 13.8423 9.02747 13.8561 8.99994C13.8699 8.97928 13.8837 8.95175 13.8974 8.9311C13.9112 8.91044 13.9319 8.88979 13.9457 8.86226C13.9663 8.84161 13.9801 8.82095 14.0008 8.8003C14.0214 8.77965 14.0421 8.76588 14.0628 8.74523C14.0834 8.73146 14.1041 8.71081 14.1316 8.69704C14.1523 8.68327 14.1798 8.66951 14.2005 8.65574C14.2212 8.64197 14.2487 8.6282 14.2763 8.62132C14.3038 8.61444 14.3245 8.60067 14.352 8.59378C14.3796 8.5869 14.4071 8.58001 14.4278 8.57313C14.4553 8.56625 14.4829 8.56625 14.5104 8.55936C14.5656 8.55248 14.6207 8.55248 14.6758 8.55936C14.7033 8.55936 14.7309 8.56625 14.7584 8.57313C14.786 8.58001 14.8135 8.5869 14.8342 8.59378C14.8617 8.60067 14.8893 8.61444 14.9099 8.62132C14.9375 8.63509 14.9581 8.64197 14.9857 8.65574C15.0064 8.66951 15.0339 8.68327 15.0546 8.69704C15.0752 8.71081 15.1028 8.73146 15.1234 8.74523C15.1441 8.76588 15.1648 8.77965 15.1854 8.8003C15.2061 8.82095 15.2199 8.84161 15.2405 8.86226C15.2543 8.88291 15.275 8.90356 15.2888 8.9311C15.3025 8.95175 15.3163 8.97928 15.3301 8.99994C15.3439 9.02059 15.3576 9.04812 15.3645 9.07566C15.3714 9.10319 15.3852 9.12385 15.3921 9.15138C15.399 9.17892 15.4058 9.20645 15.4127 9.22711C15.4196 9.25464 15.4196 9.28218 15.4265 9.30971C15.4265 9.33725 15.4334 9.36479 15.4334 9.39232C15.4334 9.41986 15.4334 9.44739 15.4265 9.47493C15.4265 9.50247 15.4196 9.53 15.4127 9.55753C15.4058 9.58507 15.399 9.61261 15.3921 9.63326C15.3852 9.6608 15.3783 9.68145 15.3645 9.70898C15.3507 9.73652 15.3439 9.75717 15.3301 9.78471C15.3163 9.80536 15.3025 9.8329 15.2888 9.85355C15.275 9.8742 15.2543 9.89485 15.2405 9.92239C15.2199 9.94304 15.2061 9.96369 15.1854 9.98434C15.1648 10.005 15.1441 10.0188 15.1234 10.0394C15.1028 10.0601 15.0821 10.0738 15.0546 10.0876C15.0339 10.1014 15.0064 10.1151 14.9857 10.1289C14.965 10.1427 14.9375 10.1564 14.9099 10.1633C14.8824 10.1771 14.8617 10.184 14.8342 10.1909C14.8066 10.1977 14.7791 10.2046 14.7584 10.2115C14.7309 10.2184 14.7033 10.2184 14.6758 10.2253C14.6482 10.2322 14.6207 10.2322 14.5931 10.2322Z" fill="white"/>
<path d="M14.5931 15.4216C14.5655 15.4216 14.538 15.4216 14.5104 15.4147C14.4829 15.4147 14.4553 15.4078 14.4278 15.401C14.4002 15.3941 14.3727 15.3872 14.352 15.3803C14.3245 15.3734 14.2969 15.3597 14.2763 15.3528C14.2487 15.339 14.2281 15.3321 14.2005 15.3184C14.1798 15.3046 14.1523 15.2908 14.1316 15.2771C14.111 15.2633 14.0834 15.2426 14.0628 15.2289C14.0421 15.2082 14.0214 15.1944 14.0008 15.1738C13.9801 15.1531 13.9663 15.1325 13.9457 15.1118C13.9319 15.0912 13.9112 15.0705 13.8974 15.043C13.8837 15.0223 13.8699 14.9948 13.8561 14.9742C13.8423 14.9535 13.8286 14.926 13.8217 14.8984C13.8148 14.8709 13.801 14.8502 13.7941 14.8227C13.7872 14.7952 13.7804 14.7676 13.7735 14.747C13.7666 14.7195 13.7666 14.6919 13.7597 14.6644C13.7597 14.6368 13.7528 14.6093 13.7528 14.5818C13.7528 14.5542 13.7528 14.5267 13.7597 14.4992C13.7597 14.4716 13.7666 14.4441 13.7735 14.4166C13.7804 14.389 13.7872 14.3615 13.7941 14.3408C13.801 14.3133 13.8079 14.2926 13.8217 14.2651C13.8355 14.2376 13.8423 14.2169 13.8561 14.1894C13.8699 14.1687 13.8837 14.1412 13.8974 14.1206C13.9112 14.0999 13.9319 14.0792 13.9457 14.0517C13.9663 14.0311 13.9801 14.0104 14.0008 13.9898C14.0214 13.9691 14.0421 13.9553 14.0628 13.9347C14.0834 13.9209 14.1041 13.9003 14.1316 13.8865C14.1523 13.8727 14.1798 13.859 14.2005 13.8452C14.2212 13.8314 14.2487 13.8177 14.2763 13.8108C14.3038 13.797 14.3245 13.7901 14.352 13.7832C14.3796 13.7764 14.4071 13.7695 14.4278 13.7626C14.4553 13.7557 14.4829 13.7557 14.5104 13.7488C14.5656 13.7419 14.6207 13.7419 14.6758 13.7488C14.7033 13.7488 14.7309 13.7557 14.7584 13.7626C14.786 13.7695 14.8135 13.7764 14.8342 13.7832C14.8617 13.7901 14.8893 13.797 14.9099 13.8108C14.9375 13.8177 14.9581 13.8314 14.9857 13.8452C15.0064 13.859 15.0339 13.8727 15.0546 13.8865C15.0752 13.9003 15.1028 13.9209 15.1234 13.9347C15.1441 13.9485 15.1648 13.9691 15.1854 13.9898C15.2061 14.0104 15.2199 14.0311 15.2405 14.0517C15.2543 14.0724 15.275 14.093 15.2888 14.1206C15.3025 14.1412 15.3163 14.1687 15.3301 14.1894C15.3439 14.21 15.3576 14.2376 15.3645 14.2651C15.3714 14.2926 15.3852 14.3133 15.3921 14.3408C15.399 14.3684 15.4058 14.3959 15.4127 14.4166C15.4196 14.4441 15.4196 14.4716 15.4265 14.4992C15.4265 14.5267 15.4334 14.5542 15.4334 14.5818C15.4334 14.6093 15.4334 14.6368 15.4265 14.6644C15.4265 14.6919 15.4196 14.7195 15.4127 14.747C15.4058 14.7745 15.399 14.8021 15.3921 14.8227C15.3852 14.8502 15.3783 14.8709 15.3645 14.8984C15.3507 14.926 15.3439 14.9466 15.3301 14.9742C15.3163 14.9948 15.3025 15.0223 15.2888 15.043C15.275 15.0636 15.2543 15.0843 15.2405 15.1118C15.2199 15.1325 15.2061 15.1531 15.1854 15.1738C15.1648 15.1944 15.1441 15.2082 15.1234 15.2289C15.1028 15.2426 15.0821 15.2633 15.0546 15.2771C15.0339 15.2908 15.0064 15.3046 14.9857 15.3184C14.965 15.3321 14.9375 15.3459 14.9099 15.3528C14.8824 15.3597 14.8617 15.3734 14.8342 15.3803C14.8066 15.3872 14.7791 15.3941 14.7584 15.401C14.7309 15.4078 14.7033 15.4078 14.6758 15.4147C14.6482 15.4216 14.6207 15.4216 14.5931 15.4216Z" fill="white"/>
<path d="M9.39974 10.2322C9.37219 10.2322 9.34464 10.2322 9.31709 10.2253C9.28954 10.2253 9.26199 10.2184 9.23444 10.2115C9.20689 10.2046 9.17934 10.1977 9.15867 10.1909C9.13112 10.184 9.11046 10.1771 9.08291 10.1633C9.05536 10.1564 9.0347 10.1427 9.00715 10.1289C8.98648 10.1151 8.95893 10.1014 8.93827 10.0876C8.91761 10.0738 8.89694 10.0532 8.86939 10.0394C8.84873 10.0256 8.82806 10.005 8.8074 9.98434C8.78674 9.96369 8.77296 9.94304 8.7523 9.92239C8.73853 9.90173 8.71786 9.88108 8.70409 9.85355C8.69031 9.8329 8.67654 9.80536 8.66276 9.78471C8.64899 9.76406 8.63521 9.73652 8.62832 9.70898C8.61455 9.68145 8.60766 9.6608 8.60077 9.63326C8.59388 9.60572 8.587 9.57819 8.58011 9.55753C8.57322 9.53 8.57322 9.50247 8.56633 9.47493C8.56633 9.44739 8.55945 9.41986 8.55945 9.39232C8.55945 9.36479 8.55945 9.33725 8.56633 9.30971C8.56633 9.28218 8.57322 9.25464 8.58011 9.22711C8.587 9.19957 8.59388 9.17204 8.60077 9.15138C8.60766 9.12385 8.61455 9.10319 8.62832 9.07566C8.63521 9.04812 8.64899 9.02747 8.66276 8.99994C8.67654 8.97928 8.69031 8.95175 8.70409 8.9311C8.71786 8.91044 8.73853 8.88979 8.7523 8.86226C8.76608 8.84161 8.78674 8.82095 8.8074 8.8003C8.82806 8.77965 8.84873 8.76588 8.86939 8.74523C8.89006 8.73146 8.91072 8.71081 8.93827 8.69704C8.95893 8.68327 8.98648 8.66951 9.00715 8.65574C9.02781 8.64197 9.05536 8.6282 9.08291 8.62132C9.11046 8.61444 9.13112 8.60067 9.15867 8.59378C9.18622 8.5869 9.21377 8.58001 9.23444 8.57313C9.26199 8.56625 9.28954 8.56625 9.31709 8.55936C9.37219 8.55248 9.42729 8.55248 9.48239 8.55936C9.50994 8.55936 9.53749 8.56625 9.56504 8.57313C9.59259 8.58001 9.62014 8.5869 9.64081 8.59378C9.66836 8.60067 9.68902 8.61444 9.71657 8.62132C9.74412 8.63509 9.76479 8.64197 9.79234 8.65574C9.813 8.66951 9.84055 8.68327 9.86121 8.69704C9.88188 8.71081 9.90254 8.73146 9.93009 8.74523C9.95075 8.76588 9.97142 8.77965 9.99208 8.8003C10.0127 8.82095 10.0265 8.84161 10.0472 8.86226C10.061 8.88291 10.0816 8.90356 10.0954 8.9311C10.1092 8.95175 10.1229 8.97928 10.1367 8.99994C10.1505 9.02059 10.1643 9.04812 10.1712 9.07566C10.1849 9.10319 10.1918 9.12385 10.1987 9.15138C10.2056 9.17892 10.2125 9.20645 10.2194 9.22711C10.2263 9.25464 10.2263 9.28218 10.2331 9.30971C10.2331 9.33725 10.24 9.36479 10.24 9.39232C10.24 9.41986 10.24 9.44739 10.2331 9.47493C10.2331 9.50247 10.2263 9.53 10.2194 9.55753C10.2125 9.58507 10.2056 9.61261 10.1987 9.63326C10.1918 9.6608 10.1849 9.68145 10.1712 9.70898C10.1574 9.73652 10.1505 9.75717 10.1367 9.78471C10.1229 9.80536 10.1092 9.8329 10.0954 9.85355C10.0816 9.8742 10.061 9.89485 10.0472 9.92239C10.0265 9.94304 10.0127 9.96369 9.99208 9.98434C9.97142 10.005 9.95075 10.0188 9.93009 10.0394C9.90943 10.0601 9.88876 10.0738 9.86121 10.0876C9.84055 10.1014 9.813 10.1151 9.79234 10.1289C9.77167 10.1427 9.74412 10.1564 9.71657 10.1633C9.68902 10.1771 9.66836 10.184 9.64081 10.1909C9.61326 10.1977 9.58571 10.2046 9.56504 10.2115C9.53749 10.2184 9.50994 10.2184 9.48239 10.2253C9.45484 10.2322 9.42729 10.2322 9.39974 10.2322Z" fill="white"/>
<path d="M9.39974 15.4216C9.37219 15.4216 9.34464 15.4216 9.31709 15.4147C9.28954 15.4147 9.26199 15.4078 9.23444 15.401C9.20689 15.3941 9.17934 15.3872 9.15867 15.3803C9.13112 15.3734 9.11046 15.3597 9.08291 15.3528C9.05536 15.339 9.0347 15.3321 9.00715 15.3184C8.98648 15.3046 8.95893 15.2908 8.93827 15.2771C8.91761 15.2633 8.89694 15.2426 8.86939 15.2289C8.84873 15.2082 8.82806 15.1944 8.8074 15.1738C8.78674 15.1531 8.77296 15.1325 8.7523 15.1118C8.73853 15.0912 8.71786 15.0705 8.70409 15.043C8.69031 15.0223 8.67654 14.9948 8.66276 14.9742C8.64899 14.9535 8.63521 14.926 8.62832 14.8984C8.61455 14.8709 8.60766 14.8502 8.60077 14.8227C8.59388 14.7952 8.587 14.7676 8.58011 14.747C8.57322 14.7195 8.57322 14.6919 8.56633 14.6644C8.56633 14.6368 8.55945 14.6093 8.55945 14.5818C8.55945 14.5542 8.55945 14.5267 8.56633 14.4992C8.56633 14.4716 8.57322 14.4441 8.58011 14.4166C8.587 14.389 8.59388 14.3615 8.60077 14.3408C8.60766 14.3133 8.61455 14.2926 8.62832 14.2651C8.63521 14.2376 8.64899 14.2169 8.66276 14.1894C8.67654 14.1687 8.69031 14.1412 8.70409 14.1205C8.71786 14.0999 8.73853 14.0792 8.7523 14.0517C8.76608 14.0311 8.78674 14.0104 8.8074 13.9898C8.82806 13.9691 8.84873 13.9553 8.86939 13.9347C8.89006 13.9209 8.91072 13.9003 8.93827 13.8865C8.95893 13.8727 8.98648 13.859 9.00715 13.8452C9.02781 13.8314 9.05536 13.8177 9.08291 13.8108C9.11046 13.797 9.13112 13.7901 9.15867 13.7832C9.18622 13.7764 9.21377 13.7695 9.23444 13.7626C9.26199 13.7557 9.28954 13.7557 9.31709 13.7488C9.37219 13.7419 9.42729 13.7419 9.48239 13.7488C9.50994 13.7488 9.53749 13.7557 9.56504 13.7626C9.59259 13.7695 9.62014 13.7764 9.64081 13.7832C9.66836 13.7901 9.68902 13.797 9.71657 13.8108C9.74412 13.8177 9.76479 13.8314 9.79234 13.8452C9.813 13.859 9.84055 13.8727 9.86121 13.8865C9.88188 13.9003 9.90254 13.9209 9.93009 13.9347C9.95075 13.9485 9.97142 13.9691 9.99208 13.9898C10.0127 14.0104 10.0265 14.0311 10.0472 14.0517C10.061 14.0724 10.0816 14.093 10.0954 14.1205C10.1092 14.1412 10.1229 14.1687 10.1367 14.1894C10.1505 14.21 10.1643 14.2376 10.1712 14.2651C10.1849 14.2926 10.1918 14.3133 10.1987 14.3408C10.2056 14.3684 10.2125 14.3959 10.2194 14.4166C10.2263 14.4441 10.2263 14.4716 10.2331 14.4992C10.2331 14.5267 10.24 14.5542 10.24 14.5818C10.24 14.6093 10.24 14.6368 10.2331 14.6644C10.2331 14.6919 10.2263 14.7195 10.2194 14.747C10.2125 14.7745 10.2056 14.8021 10.1987 14.8227C10.1918 14.8502 10.1849 14.8709 10.1712 14.8984C10.1574 14.926 10.1505 14.9466 10.1367 14.9742C10.1229 14.9948 10.1092 15.0223 10.0954 15.043C10.0816 15.0636 10.061 15.0843 10.0472 15.1118C10.0265 15.1325 10.0127 15.1531 9.99208 15.1738C9.97142 15.1944 9.95075 15.2082 9.93009 15.2289C9.90943 15.2426 9.88876 15.2633 9.86121 15.2771C9.84055 15.2908 9.813 15.3046 9.79234 15.3184C9.77167 15.3321 9.74412 15.3459 9.71657 15.3528C9.68902 15.3597 9.66836 15.3734 9.64081 15.3803C9.61326 15.3872 9.58571 15.3941 9.56504 15.401C9.53749 15.4078 9.50994 15.4078 9.48239 15.4147C9.45484 15.4216 9.42729 15.4216 9.39974 15.4216Z" fill="white"/>
<path d="M17.2654 9.9562C17.2447 9.9562 17.2309 9.9562 17.2103 9.9562C17.1896 9.9562 17.1758 9.94932 17.1552 9.94932C17.1207 9.94243 17.0863 9.92867 17.0518 9.9149C17.0174 9.90113 16.983 9.88736 16.9554 9.86671C16.9416 9.85982 16.9279 9.84606 16.9141 9.83229C16.9003 9.81852 16.8865 9.81164 16.8728 9.79787C16.859 9.7841 16.8452 9.77034 16.8383 9.75657C16.8246 9.7428 16.8177 9.72903 16.8039 9.71527C16.7832 9.68773 16.7695 9.65331 16.7557 9.61889C16.7419 9.58447 16.7281 9.55005 16.7212 9.51563C16.7144 9.49498 16.7144 9.48121 16.7144 9.46056C16.7144 9.43991 16.7144 9.42614 16.7144 9.40549C16.7144 9.38484 16.7144 9.37106 16.7144 9.35041C16.7144 9.32976 16.7212 9.31599 16.7212 9.29534C16.7281 9.26092 16.7419 9.2265 16.7557 9.19208C16.7695 9.15766 16.7832 9.12325 16.8039 9.09571C16.8108 9.08194 16.8246 9.06817 16.8383 9.0544C16.8521 9.04064 16.859 9.02687 16.8728 9.0131C16.8865 8.99933 16.9003 8.98557 16.9141 8.97868C16.9279 8.96491 16.9416 8.95803 16.9554 8.94426C16.983 8.92361 17.0174 8.90984 17.0518 8.89607C17.0863 8.88231 17.1207 8.86854 17.1552 8.86165C17.1758 8.85477 17.1896 8.85477 17.2103 8.85477C17.2447 8.84789 17.286 8.84789 17.3205 8.85477C17.3411 8.85477 17.3549 8.86165 17.3756 8.86165C17.41 8.86854 17.4444 8.88231 17.4789 8.89607C17.5133 8.90984 17.5478 8.93049 17.5753 8.94426C17.5891 8.95115 17.6029 8.96491 17.6166 8.97868C17.6304 8.99245 17.6442 8.99933 17.658 9.0131C17.7613 9.11636 17.8233 9.26093 17.8233 9.40549C17.8233 9.42614 17.8233 9.43991 17.8233 9.46056C17.8233 9.48121 17.8164 9.49498 17.8164 9.51563C17.8095 9.55005 17.7957 9.58447 17.7819 9.61889C17.7682 9.65331 17.7475 9.68773 17.7337 9.71527C17.7268 9.72903 17.7131 9.7428 17.6993 9.75657C17.6855 9.77034 17.6786 9.7841 17.6649 9.79787C17.6511 9.81164 17.6373 9.82541 17.6235 9.83229C17.6097 9.84606 17.596 9.85294 17.5822 9.86671C17.5546 9.88736 17.5202 9.90113 17.4858 9.9149C17.4513 9.92867 17.4169 9.94243 17.3825 9.94932C17.3618 9.9562 17.348 9.9562 17.3274 9.9562C17.2998 9.9562 17.286 9.9562 17.2654 9.9562Z" fill="white"/>
<path d="M17.2654 15.1471C17.2447 15.1471 17.2309 15.1471 17.2103 15.1471C17.1896 15.1471 17.1758 15.1402 17.1552 15.1402C17.1207 15.1334 17.0863 15.1196 17.0518 15.1058C17.0174 15.0921 16.983 15.0714 16.9554 15.0576C16.9416 15.0507 16.9279 15.037 16.9141 15.0232C16.9003 15.0094 16.8865 15.0026 16.8728 14.9888C16.859 14.975 16.8452 14.9613 16.8383 14.9475C16.8246 14.9337 16.8177 14.92 16.8039 14.9062C16.7832 14.8786 16.7695 14.8442 16.7557 14.8098C16.7419 14.7754 16.7281 14.741 16.7212 14.7066C16.7144 14.6859 16.7144 14.6721 16.7144 14.6515C16.7144 14.6308 16.7144 14.6171 16.7144 14.5964C16.7144 14.5758 16.7144 14.562 16.7144 14.5413C16.7144 14.5207 16.7212 14.5069 16.7212 14.4863C16.7281 14.4518 16.7419 14.4174 16.7557 14.383C16.7695 14.3486 16.7832 14.3142 16.8039 14.2866C16.8108 14.2729 16.8246 14.2591 16.8383 14.2453C16.8521 14.2316 16.859 14.2178 16.8728 14.204C16.8865 14.1903 16.9003 14.1765 16.9141 14.1696C16.9279 14.1558 16.9416 14.1489 16.9554 14.1352C16.983 14.1145 17.0174 14.1008 17.0518 14.087C17.0863 14.0732 17.1207 14.0595 17.1552 14.0526C17.1758 14.0457 17.1896 14.0457 17.2103 14.0457C17.2447 14.0388 17.286 14.0388 17.3205 14.0457C17.3411 14.0457 17.3549 14.0526 17.3756 14.0526C17.41 14.0595 17.4444 14.0732 17.4789 14.087C17.5133 14.1008 17.5478 14.1145 17.5753 14.1352C17.5891 14.1421 17.6029 14.1558 17.6166 14.1696C17.6304 14.1834 17.6442 14.1903 17.658 14.204C17.6717 14.2178 17.6855 14.2316 17.6924 14.2453C17.7062 14.2591 17.7131 14.2729 17.7268 14.2866C17.7475 14.3142 17.7613 14.3486 17.7751 14.383C17.7888 14.4174 17.8026 14.4518 17.8095 14.4863C17.8164 14.5069 17.8164 14.5207 17.8164 14.5413C17.8164 14.562 17.8164 14.5758 17.8164 14.5964C17.8164 14.6171 17.8164 14.6308 17.8164 14.6515C17.8164 14.6721 17.8095 14.6859 17.8095 14.7066C17.8026 14.741 17.7888 14.7754 17.7751 14.8098C17.7613 14.8442 17.7406 14.8786 17.7268 14.9062C17.72 14.92 17.7062 14.9337 17.6924 14.9475C17.6786 14.9613 17.6717 14.975 17.658 14.9888C17.6442 15.0026 17.6304 15.0163 17.6166 15.0232C17.6029 15.037 17.5891 15.0439 17.5753 15.0576C17.5478 15.0783 17.5133 15.0921 17.4789 15.1058C17.4444 15.1196 17.41 15.1334 17.3756 15.1402C17.3549 15.1471 17.3411 15.1471 17.3205 15.1471C17.2998 15.1471 17.286 15.1471 17.2654 15.1471Z" fill="white"/>
<path d="M6.72765 9.9562C6.70698 9.9562 6.69321 9.9562 6.67255 9.9562C6.65188 9.9562 6.63811 9.94932 6.61744 9.94932C6.58301 9.94243 6.54857 9.92867 6.51413 9.9149C6.47969 9.90113 6.44525 9.88736 6.4177 9.86671C6.40393 9.85982 6.39015 9.84606 6.37638 9.83229C6.3626 9.81852 6.34883 9.81164 6.33505 9.79787C6.32128 9.7841 6.3075 9.77034 6.30061 9.75657C6.28684 9.7428 6.27995 9.72903 6.26617 9.71527C6.24551 9.68773 6.23174 9.65331 6.21796 9.61889C6.20419 9.58447 6.19041 9.55005 6.18352 9.51563C6.17664 9.49498 6.17664 9.48121 6.17664 9.46056C6.17664 9.43991 6.17664 9.42614 6.17664 9.40549C6.17664 9.38484 6.17664 9.37106 6.17664 9.35041C6.17664 9.32976 6.18352 9.31599 6.18352 9.29534C6.19041 9.26092 6.20419 9.2265 6.21796 9.19208C6.23174 9.15766 6.24551 9.12325 6.26617 9.09571C6.27306 9.08194 6.28684 9.06817 6.30061 9.0544C6.31439 9.04064 6.32128 9.02687 6.33505 9.0131C6.34883 8.99933 6.3626 8.98557 6.37638 8.97868C6.39015 8.96491 6.40393 8.95803 6.4177 8.94426C6.44525 8.92361 6.47969 8.90984 6.51413 8.89607C6.54857 8.88231 6.58301 8.86854 6.61744 8.86165C6.63811 8.85477 6.65188 8.85477 6.67255 8.85477C6.70698 8.84789 6.74831 8.84789 6.78275 8.85477C6.80341 8.85477 6.81719 8.86165 6.83785 8.86165C6.87229 8.86854 6.90673 8.88231 6.94116 8.89607C6.9756 8.90984 7.01004 8.93049 7.03759 8.94426C7.05137 8.95115 7.06514 8.96491 7.07892 8.97868C7.09269 8.99245 7.10647 8.99933 7.12024 9.0131C7.13402 9.02687 7.14779 9.04064 7.15468 9.0544C7.16846 9.06817 7.17534 9.08194 7.18912 9.09571C7.20978 9.12325 7.22356 9.15766 7.23733 9.19208C7.25111 9.2265 7.26488 9.26092 7.27177 9.29534C7.27866 9.31599 7.27866 9.32976 7.27866 9.35041C7.27866 9.37106 7.27866 9.38484 7.27866 9.40549C7.27866 9.42614 7.27866 9.43991 7.27866 9.46056C7.27866 9.48121 7.27177 9.49498 7.27177 9.51563C7.26488 9.55005 7.25111 9.58447 7.23733 9.61889C7.22356 9.65331 7.2029 9.68085 7.18912 9.71527C7.18223 9.72903 7.16846 9.7428 7.15468 9.75657C7.14091 9.77034 7.13402 9.7841 7.12024 9.79787C7.10647 9.81164 7.09269 9.82541 7.07892 9.83229C7.06514 9.84606 7.05137 9.85294 7.03759 9.86671C7.01004 9.88736 6.9756 9.90113 6.94116 9.9149C6.90673 9.92867 6.87229 9.94243 6.83785 9.94932C6.81719 9.9562 6.80341 9.9562 6.78275 9.9562C6.76209 9.9562 6.74831 9.9562 6.72765 9.9562Z" fill="white"/>
<path d="M6.72765 15.1465C6.70698 15.1465 6.69321 15.1465 6.67255 15.1465C6.65188 15.1465 6.63811 15.1396 6.61744 15.1396C6.58301 15.1327 6.54857 15.1189 6.51413 15.1052C6.47969 15.0914 6.44525 15.0707 6.4177 15.057C6.40393 15.0501 6.39015 15.0363 6.37638 15.0226C6.3626 15.0088 6.34883 15.0019 6.33505 14.9881C6.32128 14.9744 6.3075 14.9606 6.30061 14.9468C6.28684 14.9331 6.27995 14.9193 6.26617 14.9055C6.24551 14.878 6.23174 14.8436 6.21796 14.8092C6.20419 14.7747 6.19041 14.7403 6.18352 14.7059C6.17664 14.6853 6.17664 14.6715 6.17664 14.6508C6.17664 14.6302 6.17664 14.6164 6.17664 14.5958C6.17664 14.5751 6.17664 14.5613 6.17664 14.5407C6.17664 14.52 6.18352 14.5063 6.18352 14.4856C6.19041 14.4512 6.20419 14.4168 6.21796 14.3824C6.23174 14.3479 6.24551 14.3135 6.26617 14.286C6.27306 14.2722 6.28684 14.2584 6.30061 14.2447C6.31439 14.2309 6.32128 14.2171 6.33505 14.2034C6.34883 14.1896 6.3626 14.1758 6.37638 14.169C6.39015 14.1552 6.40393 14.1483 6.4177 14.1345C6.44525 14.1139 6.47969 14.1001 6.51413 14.0863C6.54857 14.0726 6.58301 14.0588 6.61744 14.0519C6.63811 14.045 6.65188 14.045 6.67255 14.045C6.83785 14.0313 7.00315 14.0863 7.12024 14.2034C7.13402 14.2171 7.14779 14.2309 7.15468 14.2447C7.16846 14.2584 7.17534 14.2722 7.18912 14.286C7.20978 14.3135 7.22356 14.3479 7.23733 14.3824C7.25111 14.4168 7.26488 14.4512 7.27177 14.4856C7.27866 14.5063 7.27866 14.52 7.27866 14.5407C7.27866 14.5613 7.27866 14.5751 7.27866 14.5958C7.27866 14.6164 7.27866 14.6302 7.27866 14.6508C7.27866 14.6715 7.27177 14.6853 7.27177 14.7059C7.26488 14.7403 7.25111 14.7747 7.23733 14.8092C7.22356 14.8436 7.2029 14.878 7.18912 14.9055C7.18223 14.9193 7.16846 14.9331 7.15468 14.9468C7.14091 14.9606 7.13402 14.9744 7.12024 14.9881C7.10647 15.0019 7.09269 15.0157 7.07892 15.0226C7.06514 15.0363 7.05137 15.0432 7.03759 15.057C7.01004 15.0776 6.9756 15.0914 6.94116 15.1052C6.90673 15.1189 6.87229 15.1327 6.83785 15.1396C6.81719 15.1465 6.80341 15.1465 6.78275 15.1465C6.76209 15.1465 6.74831 15.1465 6.72765 15.1465Z" fill="white"/>
<path d="M14.772 7.18228C14.7513 7.18228 14.7375 7.18228 14.7169 7.18228C14.6962 7.18228 14.6824 7.1754 14.6618 7.1754C14.6273 7.16851 14.5929 7.15474 14.5584 7.14098C14.524 7.12721 14.4896 7.10655 14.462 7.09279C14.4482 7.0859 14.4345 7.07214 14.4207 7.05837C14.4069 7.0446 14.3931 7.03772 14.3794 7.02395C14.3656 7.01018 14.3518 6.99641 14.3449 6.98265C14.3312 6.96888 14.3243 6.95511 14.3105 6.94134C14.2898 6.9138 14.276 6.87939 14.2623 6.84497C14.2485 6.81055 14.2347 6.77613 14.2278 6.74171C14.2209 6.72106 14.2209 6.70729 14.2209 6.68664C14.2209 6.66599 14.2209 6.65221 14.2209 6.63156C14.2209 6.61091 14.2209 6.59714 14.2209 6.57649C14.2209 6.55584 14.2278 6.54207 14.2278 6.52142C14.2347 6.487 14.2485 6.45258 14.2623 6.41816C14.276 6.38374 14.2898 6.34932 14.3105 6.32178C14.3174 6.30802 14.3312 6.29425 14.3449 6.28048C14.3587 6.26671 14.3656 6.25295 14.3794 6.23918C14.3931 6.22541 14.4069 6.21164 14.4207 6.20476C14.4345 6.19099 14.4482 6.18411 14.462 6.17034C14.4896 6.14969 14.524 6.13592 14.5584 6.12215C14.5929 6.10838 14.6273 6.09462 14.6618 6.08773C14.6824 6.08085 14.6962 6.08085 14.7169 6.08085C14.7513 6.07396 14.7926 6.07396 14.8271 6.08085C14.8477 6.08085 14.8615 6.08773 14.8822 6.08773C14.9166 6.09462 14.951 6.10838 14.9855 6.12215C15.0199 6.13592 15.0544 6.14969 15.0819 6.17034C15.0957 6.17723 15.1095 6.19099 15.1232 6.20476C15.137 6.21853 15.1508 6.22541 15.1646 6.23918C15.1783 6.25295 15.1921 6.26671 15.199 6.28048C15.2128 6.29425 15.2197 6.30802 15.2334 6.32178C15.2541 6.34932 15.2679 6.38374 15.2816 6.41816C15.2954 6.45258 15.3092 6.487 15.3161 6.52142C15.323 6.54207 15.323 6.55584 15.323 6.57649C15.323 6.59714 15.323 6.61091 15.323 6.63156C15.323 6.65221 15.323 6.66599 15.323 6.68664C15.323 6.70729 15.3161 6.72106 15.3161 6.74171C15.3092 6.77613 15.2954 6.81055 15.2816 6.84497C15.2679 6.87939 15.2541 6.9138 15.2334 6.94134C15.2265 6.95511 15.2128 6.96888 15.199 6.98265C15.1852 6.99641 15.1783 7.01018 15.1646 7.02395C15.1508 7.03772 15.137 7.05148 15.1232 7.05837C15.1095 7.07214 15.0957 7.07902 15.0819 7.09279C15.0544 7.11344 15.0199 7.12721 14.9855 7.14098C14.951 7.15474 14.9166 7.16851 14.8822 7.1754C14.8615 7.18228 14.8477 7.18228 14.8271 7.18228C14.8064 7.18228 14.7857 7.18228 14.772 7.18228Z" fill="white"/>
<path d="M9.22106 7.18163C9.20039 7.18163 9.18662 7.18163 9.16596 7.18163C9.14529 7.18163 9.13152 7.17475 9.11086 7.17475C9.07642 7.16786 9.04198 7.15409 9.00754 7.14033C8.9731 7.12656 8.93866 7.10591 8.91111 7.09214C8.89734 7.08525 8.88356 7.07149 8.86979 7.05772C8.85601 7.04395 8.84224 7.03707 8.82846 7.0233C8.81469 7.00953 8.80091 6.99576 8.79402 6.982C8.78025 6.96823 8.77336 6.95446 8.75958 6.94069C8.73892 6.91315 8.72515 6.87874 8.71137 6.84432C8.69759 6.8099 8.68382 6.77548 8.67693 6.74106C8.67004 6.72041 8.67004 6.70664 8.67004 6.68599C8.67004 6.66534 8.67004 6.65156 8.67004 6.63091C8.67004 6.61026 8.67004 6.59649 8.67004 6.57584C8.67004 6.55519 8.67693 6.54142 8.67693 6.52077C8.68382 6.48635 8.69759 6.45193 8.71137 6.41751C8.72515 6.38309 8.73892 6.34867 8.75958 6.32114C8.76647 6.30737 8.78025 6.2936 8.79402 6.27983C8.8078 6.26607 8.81469 6.2523 8.82846 6.23853C8.84224 6.22476 8.85601 6.211 8.86979 6.20411C8.88356 6.19034 8.89734 6.18346 8.91111 6.16969C8.93866 6.14904 8.9731 6.13527 9.00754 6.1215C9.04198 6.10774 9.07642 6.09397 9.11086 6.08708C9.13152 6.0802 9.14529 6.0802 9.16596 6.0802C9.33126 6.06643 9.49656 6.1215 9.61365 6.23853C9.62743 6.2523 9.6412 6.26607 9.64809 6.27983C9.66187 6.2936 9.66875 6.30737 9.68253 6.32114C9.70319 6.34867 9.71697 6.38309 9.73074 6.41751C9.74452 6.45193 9.75829 6.48635 9.76518 6.52077C9.77207 6.54142 9.77207 6.55519 9.77207 6.57584C9.77207 6.59649 9.77207 6.61026 9.77207 6.63091C9.77207 6.65156 9.77207 6.66534 9.77207 6.68599C9.77207 6.70664 9.76518 6.72041 9.76518 6.74106C9.75829 6.77548 9.74452 6.8099 9.73074 6.84432C9.71697 6.87874 9.6963 6.91315 9.68253 6.94069C9.67564 6.95446 9.66187 6.96823 9.64809 6.982C9.63432 6.99576 9.62743 7.00953 9.61365 7.0233C9.59988 7.03707 9.5861 7.05083 9.57233 7.05772C9.55855 7.07149 9.54478 7.07837 9.531 7.09214C9.50345 7.11279 9.46901 7.12656 9.43457 7.14033C9.40014 7.15409 9.3657 7.16786 9.33126 7.17475C9.3106 7.18163 9.29682 7.18163 9.27616 7.18163C9.26238 7.18163 9.24172 7.18163 9.22106 7.18163Z" fill="white"/>
<path d="M14.772 17.9215C14.7513 17.9215 14.7375 17.9215 14.7169 17.9215C14.6962 17.9215 14.6824 17.9147 14.6618 17.9147C14.6273 17.9078 14.5929 17.894 14.5584 17.8802C14.524 17.8665 14.4896 17.8527 14.462 17.832C14.4482 17.8252 14.4345 17.8114 14.4207 17.7976C14.4069 17.7839 14.3931 17.777 14.3794 17.7632C14.3656 17.7494 14.3518 17.7357 14.3449 17.7219C14.3312 17.7081 14.3243 17.6944 14.3105 17.6806C14.2898 17.6531 14.276 17.6186 14.2623 17.5842C14.2485 17.5498 14.2347 17.5154 14.2278 17.481C14.2209 17.4603 14.2209 17.4465 14.2209 17.4259C14.2209 17.4052 14.2209 17.3915 14.2209 17.3708C14.2209 17.3502 14.2209 17.3364 14.2209 17.3157C14.2209 17.2951 14.2278 17.2813 14.2278 17.2607C14.2347 17.2263 14.2485 17.1918 14.2623 17.1574C14.276 17.123 14.2898 17.0886 14.3105 17.061C14.3174 17.0473 14.3312 17.0335 14.3449 17.0197C14.3587 17.006 14.3656 16.9922 14.3794 16.9784C14.3931 16.9647 14.4069 16.9509 14.4207 16.944C14.4345 16.9303 14.4482 16.9234 14.462 16.9096C14.4896 16.8889 14.524 16.8752 14.5584 16.8614C14.5929 16.8476 14.6273 16.8339 14.6618 16.827C14.6824 16.8201 14.6962 16.8201 14.7169 16.8201C14.7513 16.8132 14.7926 16.8132 14.8271 16.8201C14.8477 16.8201 14.8615 16.827 14.8822 16.827C14.9166 16.8339 14.951 16.8476 14.9855 16.8614C15.0199 16.8752 15.0544 16.8958 15.0819 16.9096C15.0957 16.9165 15.1095 16.9303 15.1232 16.944C15.137 16.9578 15.1508 16.9647 15.1646 16.9784C15.1783 16.9922 15.1921 17.006 15.199 17.0197C15.2128 17.0335 15.2197 17.0473 15.2334 17.061C15.2541 17.0886 15.2679 17.123 15.2816 17.1574C15.2954 17.1918 15.3092 17.2263 15.3161 17.2607C15.323 17.2813 15.323 17.2951 15.323 17.3157C15.323 17.3364 15.323 17.3502 15.323 17.3708C15.323 17.3915 15.323 17.4052 15.323 17.4259C15.323 17.4465 15.3161 17.4603 15.3161 17.481C15.3092 17.5154 15.2954 17.5498 15.2816 17.5842C15.2679 17.6186 15.2541 17.6462 15.2334 17.6806C15.2265 17.6944 15.2128 17.7081 15.199 17.7219C15.1852 17.7357 15.1783 17.7494 15.1646 17.7632C15.1508 17.777 15.137 17.7907 15.1232 17.7976C15.1095 17.8114 15.0957 17.8183 15.0819 17.832C15.0544 17.8527 15.0199 17.8665 14.9855 17.8802C14.951 17.894 14.9166 17.9078 14.8822 17.9147C14.8615 17.9215 14.8477 17.9215 14.8271 17.9215C14.8064 17.9147 14.7857 17.9215 14.772 17.9215Z" fill="white"/>
<path d="M9.22106 17.9204C9.20039 17.9204 9.18662 17.9204 9.16596 17.9204C9.14529 17.9204 9.13152 17.9135 9.11086 17.9135C9.07642 17.9066 9.04198 17.8929 9.00754 17.8791C8.9731 17.8653 8.93866 17.8516 8.91111 17.8309C8.89734 17.824 8.88356 17.8103 8.86979 17.7965C8.85601 17.7827 8.84224 17.7758 8.82846 17.7621C8.81469 17.7483 8.80091 17.7345 8.79402 17.7208C8.78025 17.707 8.77336 17.6932 8.75958 17.6795C8.73892 17.6519 8.72515 17.6175 8.71137 17.5831C8.69759 17.5487 8.68382 17.5142 8.67693 17.4798C8.67004 17.4592 8.67004 17.4454 8.67004 17.4248C8.67004 17.4041 8.67004 17.3903 8.67004 17.3697C8.67004 17.349 8.67004 17.3353 8.67004 17.3146C8.67004 17.294 8.67693 17.2802 8.67693 17.2595C8.68382 17.2251 8.69759 17.1907 8.71137 17.1563C8.72515 17.1219 8.73892 17.0874 8.75958 17.0599C8.76647 17.0461 8.78025 17.0324 8.79402 17.0186C8.8078 17.0048 8.81469 16.9911 8.82846 16.9773C8.84224 16.9635 8.85601 16.9498 8.86979 16.9429C8.88356 16.9291 8.89734 16.9222 8.91111 16.9085C8.93866 16.8878 8.9731 16.874 9.00754 16.8603C9.04198 16.8465 9.07642 16.8327 9.11086 16.8259C9.13152 16.819 9.14529 16.819 9.16596 16.819C9.33126 16.8052 9.49656 16.8603 9.61365 16.9773C9.62743 16.9911 9.6412 17.0048 9.64809 17.0186C9.66187 17.0324 9.66875 17.0461 9.68253 17.0599C9.70319 17.0874 9.71697 17.1219 9.73074 17.1563C9.74452 17.1907 9.75829 17.2251 9.76518 17.2595C9.77207 17.2802 9.77207 17.294 9.77207 17.3146C9.77207 17.3353 9.77207 17.349 9.77207 17.3697C9.77207 17.3903 9.77207 17.4041 9.77207 17.4248C9.77207 17.4454 9.76518 17.4592 9.76518 17.4798C9.75829 17.5142 9.74452 17.5487 9.73074 17.5831C9.71697 17.6175 9.6963 17.645 9.68253 17.6795C9.67564 17.6932 9.66187 17.707 9.64809 17.7208C9.63432 17.7345 9.62743 17.7483 9.61365 17.7621C9.59988 17.7758 9.5861 17.7896 9.57233 17.7965C9.55855 17.8103 9.54478 17.8171 9.531 17.8309C9.50345 17.8516 9.46901 17.8653 9.43457 17.8791C9.40014 17.8929 9.3657 17.9066 9.33126 17.9135C9.3106 17.9204 9.29682 17.9204 9.27616 17.9204C9.26238 17.9135 9.24172 17.9204 9.22106 17.9204Z" fill="white"/>
<path d="M11.9964 18.4724C11.9689 18.4724 11.9413 18.4724 11.9138 18.4655C11.8862 18.4655 11.8587 18.4586 11.8311 18.4517C11.8036 18.4449 11.776 18.438 11.7554 18.4311C11.7278 18.4242 11.7071 18.4173 11.6796 18.4036C11.652 18.3967 11.6314 18.3829 11.6038 18.3691C11.5832 18.3554 11.5556 18.3416 11.5349 18.3278C11.5143 18.3141 11.4936 18.2934 11.4661 18.2796C11.4454 18.2659 11.4247 18.2452 11.4041 18.2246C11.3834 18.2039 11.3696 18.1833 11.349 18.1626C11.3352 18.142 11.3145 18.1213 11.3008 18.0938C11.287 18.0731 11.2732 18.0456 11.2594 18.0249C11.2457 18.0043 11.2319 17.9768 11.225 17.9492C11.2112 17.9217 11.2043 17.901 11.1975 17.8735C11.1906 17.846 11.1837 17.8184 11.1768 17.7978C11.1699 17.7702 11.1699 17.7427 11.163 17.7152C11.163 17.6876 11.1561 17.6601 11.1561 17.6326C11.1561 17.605 11.1561 17.5775 11.163 17.5499C11.163 17.5224 11.1699 17.4949 11.1768 17.4673C11.1837 17.4398 11.1906 17.4123 11.1975 17.3916C11.2043 17.3641 11.2112 17.3434 11.225 17.3159C11.2388 17.2884 11.2457 17.2677 11.2594 17.2402C11.2732 17.2195 11.287 17.192 11.3008 17.1713C11.3145 17.1507 11.3352 17.13 11.349 17.1025C11.3696 17.0818 11.3834 17.0612 11.4041 17.0405C11.4247 17.0199 11.4454 17.0061 11.4661 16.9855C11.4867 16.9717 11.5074 16.951 11.5349 16.9373C11.5556 16.9235 11.5832 16.9097 11.6038 16.896C11.6245 16.8822 11.652 16.8684 11.6796 16.8616C11.7071 16.8478 11.7278 16.8409 11.7554 16.834C11.7829 16.8271 11.8105 16.8202 11.8311 16.8134C11.8587 16.8065 11.8862 16.8065 11.9138 16.7996C11.9689 16.7927 12.024 16.7927 12.0791 16.7996C12.1066 16.7996 12.1342 16.8065 12.1617 16.8134C12.1893 16.8202 12.2168 16.8271 12.2375 16.834C12.265 16.8409 12.2857 16.8478 12.3133 16.8616C12.3408 16.8684 12.3615 16.8822 12.389 16.896C12.4097 16.9097 12.4372 16.9235 12.4579 16.9373C12.4786 16.951 12.4992 16.9717 12.5268 16.9855C12.5474 17.0061 12.5681 17.0199 12.5888 17.0405C12.6094 17.0612 12.6232 17.0818 12.6439 17.1025C12.6645 17.1231 12.6783 17.1438 12.6921 17.1713C12.7059 17.192 12.7196 17.2195 12.7334 17.2402C12.7472 17.2608 12.7609 17.2884 12.7678 17.3159C12.7816 17.3434 12.7885 17.3641 12.7954 17.3916C12.8023 17.4192 12.8092 17.4467 12.8161 17.4673C12.8229 17.4949 12.8229 17.5224 12.8298 17.5499C12.8298 17.5775 12.8367 17.605 12.8367 17.6326C12.8367 17.6601 12.8367 17.6876 12.8298 17.7152C12.8298 17.7427 12.8229 17.7702 12.8161 17.7978C12.8092 17.8253 12.8023 17.8528 12.7954 17.8735C12.7885 17.901 12.7816 17.9217 12.7678 17.9492C12.7609 17.9768 12.7472 17.9974 12.7334 18.0249C12.7196 18.0456 12.7059 18.0731 12.6921 18.0938C12.6783 18.1144 12.6576 18.1351 12.6439 18.1626C12.6301 18.1833 12.6094 18.2039 12.5888 18.2246C12.5681 18.2452 12.5474 18.259 12.5268 18.2796C12.5061 18.2934 12.4854 18.3141 12.4579 18.3278C12.4372 18.3416 12.4097 18.3554 12.389 18.3691C12.3684 18.3829 12.3408 18.3967 12.3133 18.4036C12.2857 18.4173 12.265 18.4242 12.2375 18.4311C12.2099 18.438 12.1824 18.4449 12.1617 18.4517C12.1342 18.4586 12.1066 18.4586 12.0791 18.4655C12.0515 18.4724 12.024 18.4724 11.9964 18.4724Z" fill="white"/>
<path d="M11.9964 7.18138C11.9689 7.18138 11.9413 7.18138 11.9138 7.1745C11.8862 7.1745 11.8587 7.16761 11.8311 7.16073C11.8036 7.15384 11.776 7.14696 11.7554 7.14008C11.7278 7.13319 11.7071 7.12631 11.6796 7.11254C11.652 7.10566 11.6314 7.09189 11.6038 7.07812C11.5832 7.06435 11.5556 7.05059 11.5349 7.03682C11.5143 7.02305 11.4936 7.0024 11.4661 6.98863C11.4454 6.96798 11.4247 6.95421 11.4041 6.93356C11.3834 6.91291 11.3696 6.89225 11.349 6.8716C11.3352 6.85095 11.3145 6.8303 11.3008 6.80276C11.287 6.78211 11.2732 6.75457 11.2594 6.73392C11.2457 6.71327 11.2319 6.68574 11.225 6.6582C11.2112 6.63066 11.2043 6.61001 11.1975 6.58248C11.1906 6.55494 11.1837 6.5274 11.1768 6.50675C11.1699 6.47922 11.1699 6.45168 11.163 6.42414C11.163 6.39661 11.1561 6.36908 11.1561 6.34154C11.1561 6.314 11.1561 6.28647 11.163 6.25893C11.163 6.2314 11.1699 6.20386 11.1768 6.17632C11.1837 6.14879 11.1906 6.12125 11.1975 6.1006C11.2043 6.07307 11.2112 6.05241 11.225 6.02488C11.2388 5.99734 11.2457 5.97669 11.2594 5.94916C11.2732 5.9285 11.287 5.90097 11.3008 5.88032C11.3145 5.85966 11.3352 5.83901 11.349 5.81148C11.3696 5.79082 11.3834 5.77017 11.4041 5.74952C11.4247 5.72887 11.4454 5.7151 11.4661 5.69445C11.4867 5.6738 11.5074 5.66003 11.5349 5.64626C11.5556 5.63249 11.5832 5.61873 11.6038 5.60496C11.6245 5.59119 11.652 5.57742 11.6796 5.57054C11.7071 5.55677 11.7278 5.54988 11.7554 5.543C11.7829 5.53612 11.8105 5.52923 11.8311 5.52235C11.8587 5.51547 11.8862 5.51546 11.9138 5.50858C11.9689 5.5017 12.024 5.5017 12.0791 5.50858C12.1066 5.50858 12.1342 5.51547 12.1617 5.52235C12.1893 5.52923 12.2168 5.53612 12.2375 5.543C12.265 5.54988 12.2857 5.55677 12.3133 5.57054C12.3408 5.57742 12.3615 5.59119 12.389 5.60496C12.4097 5.61873 12.4372 5.63249 12.4579 5.64626C12.4786 5.66003 12.4992 5.68068 12.5268 5.69445C12.5543 5.70822 12.5681 5.72887 12.5888 5.74952C12.6094 5.77017 12.6232 5.79082 12.6439 5.81148C12.6645 5.83213 12.6783 5.85278 12.6921 5.88032C12.7059 5.90097 12.7196 5.9285 12.7334 5.94916C12.7472 5.96981 12.7609 5.99734 12.7678 6.02488C12.7816 6.05241 12.7885 6.07307 12.7954 6.1006C12.8023 6.12814 12.8092 6.15567 12.8161 6.17632C12.8229 6.20386 12.8229 6.2314 12.8298 6.25893C12.8298 6.28647 12.8367 6.314 12.8367 6.34154C12.8367 6.36908 12.8367 6.39661 12.8298 6.42414C12.8298 6.45168 12.8229 6.47922 12.8161 6.50675C12.8092 6.53429 12.8023 6.56183 12.7954 6.58248C12.7885 6.61001 12.7816 6.63066 12.7678 6.6582C12.7609 6.68574 12.7472 6.70639 12.7334 6.73392C12.7196 6.75457 12.7059 6.78211 12.6921 6.80276C12.6783 6.82341 12.6576 6.84407 12.6439 6.8716C12.6301 6.89225 12.6094 6.91291 12.5888 6.93356C12.5681 6.95421 12.5474 6.96798 12.5268 6.98863C12.5061 7.0024 12.4854 7.02305 12.4579 7.03682C12.4372 7.05059 12.4097 7.06435 12.389 7.07812C12.3684 7.09189 12.3408 7.10566 12.3133 7.11254C12.2857 7.12631 12.265 7.13319 12.2375 7.14008C12.2099 7.14696 12.1824 7.15384 12.1617 7.16073C12.1342 7.16761 12.1066 7.16761 12.0791 7.1745C12.0515 7.18138 12.024 7.18138 11.9964 7.18138Z" fill="white"/>
<path d="M17.6441 12.8269C17.6166 12.8269 17.589 12.8269 17.5615 12.82C17.5339 12.82 17.5064 12.8131 17.4788 12.8062C17.4513 12.7994 17.4237 12.7925 17.4031 12.7856C17.3755 12.7787 17.3548 12.7718 17.3273 12.758C17.2997 12.7443 17.2791 12.7374 17.2515 12.7236C17.2309 12.7099 17.2033 12.6961 17.1827 12.6823C17.162 12.6686 17.1413 12.6479 17.1138 12.6341C17.0931 12.6135 17.0725 12.5997 17.0518 12.5791C17.0311 12.5584 17.0174 12.5378 16.9967 12.5171C16.9829 12.4965 16.9622 12.4758 16.9485 12.4483C16.9347 12.4276 16.9209 12.4001 16.9071 12.3794C16.8934 12.3588 16.8796 12.3312 16.8727 12.3037C16.8589 12.2762 16.852 12.2555 16.8452 12.228C16.8383 12.2005 16.8314 12.1729 16.8245 12.1523C16.8176 12.1247 16.8176 12.0972 16.8107 12.0697C16.8107 12.0421 16.8038 12.0146 16.8038 11.987C16.8038 11.9595 16.8038 11.932 16.8107 11.9044C16.8107 11.8769 16.8176 11.8494 16.8245 11.8218C16.8314 11.7943 16.8383 11.7668 16.8452 11.7461C16.852 11.7186 16.8589 11.691 16.8727 11.6704C16.8796 11.6428 16.8934 11.6222 16.9071 11.5947C16.9209 11.574 16.9347 11.5465 16.9485 11.5258C16.9622 11.5052 16.9829 11.4776 16.9967 11.457C17.0105 11.4363 17.0311 11.4157 17.0518 11.395C17.0725 11.3744 17.0931 11.3606 17.1138 11.34C17.1344 11.3262 17.1551 11.3055 17.1827 11.2918C17.2033 11.278 17.2309 11.2642 17.2515 11.2505C17.2722 11.2367 17.2997 11.2229 17.3273 11.216C17.3548 11.2092 17.3755 11.1954 17.4031 11.1885C17.4306 11.1816 17.4582 11.1747 17.4788 11.1679C17.5064 11.161 17.5339 11.161 17.5615 11.1541C17.6166 11.1472 17.6717 11.1472 17.7268 11.1541C17.7543 11.1541 17.7819 11.161 17.8094 11.1679C17.837 11.1747 17.8645 11.1816 17.8852 11.1885C17.9127 11.1954 17.9334 11.2023 17.961 11.216C17.9885 11.2298 18.0092 11.2367 18.0367 11.2505C18.0643 11.2642 18.0849 11.278 18.1056 11.2918C18.1263 11.3055 18.1469 11.3262 18.1745 11.34C18.1951 11.3606 18.2158 11.3744 18.2365 11.395C18.2571 11.4157 18.2709 11.4363 18.2916 11.457C18.3053 11.4776 18.326 11.4983 18.3398 11.5258C18.3536 11.5465 18.3673 11.574 18.3811 11.5947C18.3949 11.6153 18.4087 11.6428 18.4155 11.6704C18.4224 11.6979 18.4362 11.7186 18.4431 11.7461C18.45 11.7736 18.4569 11.8012 18.4638 11.8218C18.4706 11.8494 18.4706 11.8769 18.4775 11.9044C18.4775 11.932 18.4844 11.9595 18.4844 11.987C18.4844 12.0146 18.4844 12.0421 18.4775 12.0697C18.4775 12.0972 18.4706 12.1247 18.4638 12.1523C18.4569 12.1798 18.45 12.2073 18.4431 12.228C18.4362 12.2555 18.4224 12.2831 18.4155 12.3037C18.4018 12.3312 18.3949 12.3519 18.3811 12.3794C18.3673 12.4001 18.3536 12.4276 18.3398 12.4483C18.326 12.4689 18.3053 12.4965 18.2916 12.5171C18.2709 12.5378 18.2571 12.5584 18.2365 12.5791C18.2158 12.5997 18.1951 12.6135 18.1745 12.6341C18.1538 12.6479 18.1331 12.6686 18.1056 12.6823C18.0849 12.6961 18.0574 12.7099 18.0367 12.7236C18.0161 12.7374 17.9885 12.7512 17.961 12.758C17.9334 12.7649 17.9127 12.7787 17.8852 12.7856C17.8576 12.7925 17.8301 12.7994 17.8094 12.8062C17.7819 12.8131 17.7543 12.8131 17.7268 12.82C17.6992 12.8269 17.6717 12.8269 17.6441 12.8269Z" fill="white"/>
<path d="M6.34872 12.8269C6.32117 12.8269 6.29361 12.8269 6.26606 12.82C6.23851 12.82 6.21096 12.8131 6.18341 12.8062C6.15586 12.7994 6.12831 12.7925 6.10765 12.7856C6.0801 12.7787 6.05255 12.7718 6.03188 12.758C6.00433 12.7443 5.98367 12.7374 5.95612 12.7236C5.93546 12.7099 5.90791 12.6961 5.88724 12.6823C5.86658 12.6686 5.83903 12.6479 5.81837 12.6341C5.7977 12.6135 5.77704 12.5997 5.75638 12.5791C5.73572 12.5584 5.72194 12.5378 5.70128 12.5171C5.68061 12.4965 5.66684 12.4758 5.65306 12.4483C5.63929 12.4276 5.62551 12.4001 5.61174 12.3794C5.59796 12.3588 5.58419 12.3312 5.5773 12.3037C5.57041 12.2762 5.55664 12.2555 5.54975 12.228C5.54286 12.2005 5.53597 12.1729 5.52909 12.1523C5.5222 12.1247 5.5222 12.0972 5.51531 12.0697C5.51531 12.0421 5.50842 12.0146 5.50842 11.987C5.50842 11.9595 5.50842 11.932 5.51531 11.9044C5.51531 11.8769 5.5222 11.8494 5.52909 11.8218C5.53597 11.7943 5.54286 11.7668 5.54975 11.7461C5.55664 11.7186 5.56352 11.691 5.5773 11.6704C5.59107 11.6428 5.59796 11.6222 5.61174 11.5947C5.62551 11.574 5.63929 11.5465 5.65306 11.5258C5.66684 11.5052 5.6875 11.4776 5.70128 11.457C5.71505 11.4363 5.73572 11.4157 5.75638 11.395C5.77704 11.3744 5.7977 11.3606 5.81837 11.34C5.83903 11.3262 5.85969 11.3055 5.88724 11.2918C5.90791 11.278 5.93546 11.2642 5.95612 11.2505C5.97678 11.2367 6.00433 11.2229 6.03188 11.216C6.05944 11.2092 6.0801 11.1954 6.10765 11.1885C6.1352 11.1816 6.16275 11.1747 6.18341 11.1679C6.21096 11.161 6.23851 11.161 6.26606 11.1541C6.32117 11.1472 6.37627 11.1472 6.43137 11.1541C6.45892 11.1541 6.48647 11.161 6.51402 11.1679C6.54157 11.1747 6.56912 11.1816 6.58978 11.1885C6.61734 11.1954 6.638 11.2023 6.66555 11.216C6.6931 11.2298 6.71376 11.2367 6.74131 11.2505C6.76886 11.2642 6.78953 11.278 6.81019 11.2918C6.83085 11.3055 6.8584 11.3262 6.87907 11.34C6.89973 11.3606 6.92039 11.3744 6.94105 11.395C6.96172 11.4157 6.97549 11.4363 6.99616 11.457C7.00993 11.4776 7.03059 11.4983 7.04437 11.5258C7.05814 11.5465 7.07192 11.574 7.0857 11.5947C7.09947 11.6153 7.11325 11.6428 7.12013 11.6704C7.12702 11.6979 7.1408 11.7186 7.14768 11.7461C7.15457 11.7736 7.16146 11.8012 7.16835 11.8218C7.17523 11.8494 7.17523 11.8769 7.18212 11.9044C7.18212 11.932 7.18901 11.9595 7.18901 11.987C7.18901 12.0146 7.18901 12.0421 7.18212 12.0697C7.18212 12.0972 7.17523 12.1247 7.16835 12.1523C7.16146 12.1798 7.15457 12.2073 7.14768 12.228C7.1408 12.2555 7.13391 12.2831 7.12013 12.3037C7.10636 12.3312 7.09947 12.3519 7.0857 12.3794C7.07192 12.4001 7.05814 12.4276 7.04437 12.4483C7.03059 12.4689 7.00993 12.4965 6.99616 12.5171C6.97549 12.5378 6.96172 12.5584 6.94105 12.5791C6.92039 12.5997 6.89973 12.6135 6.87907 12.6341C6.8584 12.6479 6.83774 12.6686 6.81019 12.6823C6.78953 12.6961 6.76198 12.7099 6.74131 12.7236C6.72065 12.7374 6.6931 12.7512 6.66555 12.758C6.638 12.7649 6.61734 12.7787 6.58978 12.7856C6.56223 12.7925 6.53468 12.7994 6.51402 12.8062C6.48647 12.8131 6.45892 12.8131 6.43137 12.82C6.40382 12.8269 6.37627 12.8269 6.34872 12.8269Z" fill="white"/>
<path d="M16.9899 17.3633C16.9141 17.3633 16.8452 17.3358 16.797 17.2807C16.7488 17.2325 16.7144 17.1568 16.7144 17.088C16.7144 17.0122 16.7419 16.9434 16.797 16.8952C16.859 16.8333 16.9554 16.7988 17.045 16.8195C17.0656 16.8264 17.0794 16.8264 17.1001 16.8332C17.1138 16.8401 17.1345 16.847 17.1483 16.8608C17.1621 16.8677 17.1758 16.8814 17.1896 16.8952C17.2378 16.9434 17.2723 17.0191 17.2723 17.088C17.2723 17.1568 17.2447 17.2325 17.1896 17.2807C17.1345 17.3358 17.0587 17.3633 16.9899 17.3633Z" fill="white"/>
<path d="M7.00285 17.3631C6.98219 17.3631 6.96841 17.3631 6.94775 17.3562C6.92709 17.3493 6.91331 17.3493 6.89265 17.3424C6.87887 17.3355 6.85821 17.3286 6.84444 17.3149C6.83066 17.308 6.81689 17.2942 6.80311 17.2804C6.78934 17.2667 6.77556 17.2529 6.76867 17.2391C6.76178 17.2254 6.74801 17.2047 6.74112 17.191C6.73423 17.1772 6.72735 17.1565 6.72735 17.1359C6.72046 17.1152 6.72046 17.1015 6.72046 17.0808C6.72046 17.0602 6.72046 17.0464 6.72735 17.0257C6.73423 17.0051 6.73423 16.9913 6.74112 16.9707C6.74801 16.9569 6.7549 16.9362 6.76867 16.9225C6.77556 16.9087 6.78934 16.8949 6.80311 16.8812C6.81689 16.8674 6.83066 16.8536 6.84444 16.8468C6.85821 16.8399 6.87199 16.8261 6.89265 16.8192C6.90643 16.8123 6.92709 16.8055 6.94775 16.8055C6.98219 16.7986 7.01663 16.7986 7.05795 16.8055C7.07862 16.8123 7.09239 16.8123 7.11305 16.8192C7.12683 16.8261 7.14749 16.833 7.16127 16.8468C7.17504 16.8536 7.18882 16.8674 7.20259 16.8812C7.21637 16.8949 7.23015 16.9087 7.23703 16.9225C7.24392 16.9362 7.2577 16.9569 7.26458 16.9707C7.27147 16.9844 7.27836 17.0051 7.27836 17.0257C7.28525 17.0464 7.28525 17.0602 7.28525 17.0808C7.28525 17.1015 7.28525 17.1152 7.27836 17.1359C7.27836 17.1565 7.27147 17.1703 7.26458 17.191C7.2577 17.2047 7.25081 17.2254 7.23703 17.2391C7.23015 17.2529 7.21637 17.2667 7.20259 17.2804C7.18882 17.2942 7.17504 17.308 7.16127 17.3149C7.14749 17.3217 7.12683 17.3355 7.11305 17.3424C7.09928 17.3493 7.07862 17.3562 7.05795 17.3562C7.04418 17.3631 7.02352 17.3631 7.00285 17.3631Z" fill="white"/>
<path d="M16.9899 7.1819C16.9141 7.1819 16.8452 7.15437 16.797 7.0993C16.7832 7.08553 16.7695 7.07176 16.7626 7.05799C16.7557 7.04422 16.7419 7.02357 16.735 7.0098C16.7281 6.99603 16.7212 6.97538 16.7212 6.95473C16.7144 6.93408 16.7144 6.92031 16.7144 6.89966C16.7144 6.87901 16.7144 6.86524 16.7212 6.84459C16.7281 6.82394 16.7281 6.81017 16.735 6.78952C16.7419 6.77575 16.7488 6.7551 16.7626 6.74133C16.7695 6.72756 16.7832 6.71379 16.797 6.70003C16.8108 6.68626 16.8246 6.67249 16.8383 6.66561C16.8521 6.65872 16.8659 6.64496 16.8865 6.63807C16.9003 6.63119 16.921 6.6243 16.9416 6.6243C16.9761 6.61742 17.0105 6.61742 17.0518 6.6243C17.0725 6.63119 17.0863 6.63119 17.107 6.63807C17.1207 6.64496 17.1414 6.65184 17.1552 6.66561C17.1689 6.67249 17.1827 6.68626 17.1965 6.70003C17.2103 6.71379 17.224 6.72756 17.2309 6.74133C17.2378 6.7551 17.2516 6.77575 17.2585 6.78952C17.2654 6.80329 17.2723 6.82394 17.2723 6.84459C17.2791 6.86524 17.2791 6.87901 17.2791 6.89966C17.2791 6.92031 17.2791 6.93408 17.2723 6.95473C17.2723 6.97538 17.2654 6.98915 17.2585 7.0098C17.2516 7.02357 17.2447 7.04422 17.2309 7.05799C17.224 7.07176 17.2103 7.08553 17.1965 7.0993C17.1345 7.15437 17.0587 7.1819 16.9899 7.1819Z" fill="white"/>
<path d="M7.00329 7.18186C6.92753 7.18186 6.85865 7.15432 6.81043 7.09925C6.79666 7.08548 6.78288 7.07171 6.776 7.05794C6.76911 7.04418 6.75533 7.02352 6.74845 7.00976C6.74156 6.99599 6.73467 6.97534 6.73467 6.95469C6.72778 6.93403 6.72778 6.92027 6.72778 6.89962C6.72778 6.82389 6.75533 6.75505 6.81043 6.70687C6.82421 6.6931 6.83798 6.67933 6.85176 6.67245C6.86554 6.66556 6.87931 6.65179 6.89997 6.64491C6.91375 6.63802 6.93441 6.63114 6.95507 6.63114C6.98951 6.62426 7.03084 6.62426 7.06528 6.63114C7.08594 6.63802 7.09972 6.63802 7.12038 6.64491C7.13415 6.65179 7.15482 6.65868 7.16859 6.67245C7.18237 6.67933 7.19614 6.6931 7.20992 6.70687C7.25813 6.75505 7.29257 6.83078 7.29257 6.89962C7.29257 6.92027 7.29257 6.93403 7.28568 6.95469C7.28568 6.97534 7.27879 6.9891 7.27191 7.00976C7.26502 7.02352 7.25813 7.04418 7.24436 7.05794C7.23747 7.07171 7.22369 7.08548 7.20992 7.09925C7.14793 7.15432 7.07905 7.18186 7.00329 7.18186Z" fill="white"/>
<path d="M11.9964 19.9997C11.962 19.9997 11.9275 19.9859 11.9 19.9584C11.8724 19.9308 11.8586 19.8964 11.8586 19.862C11.8586 19.8276 11.8724 19.7932 11.9 19.7656C11.9482 19.7174 12.0446 19.7174 12.0928 19.7656C12.1204 19.7932 12.1341 19.8276 12.1341 19.862C12.1341 19.8964 12.1204 19.9308 12.0928 19.9584C12.0722 19.979 12.0308 19.9997 11.9964 19.9997Z" fill="white"/>
<path d="M14.7722 19.9997C14.7653 19.9997 14.7515 19.9997 14.7446 19.9997C14.7377 19.9997 14.7239 19.9928 14.7171 19.9928C14.7102 19.9928 14.7033 19.986 14.6964 19.9791C14.6895 19.9722 14.6826 19.9653 14.6757 19.9584C14.6482 19.9309 14.6344 19.8965 14.6344 19.862C14.6344 19.8552 14.6344 19.8414 14.6344 19.8345C14.6344 19.8276 14.6413 19.8139 14.6413 19.807C14.6482 19.8001 14.6482 19.7932 14.6551 19.7863C14.662 19.7794 14.6688 19.7726 14.6688 19.7657C14.6757 19.7588 14.6826 19.7519 14.6895 19.7519C14.6964 19.745 14.7033 19.745 14.7102 19.7381C14.7171 19.7381 14.7239 19.7312 14.7377 19.7312C14.7859 19.7244 14.8273 19.7381 14.8617 19.7657C14.8686 19.7726 14.8755 19.7794 14.8755 19.7863C14.8824 19.7932 14.8824 19.8001 14.8892 19.807C14.8892 19.8139 14.8961 19.8207 14.8961 19.8345C14.8961 19.8414 14.8961 19.8552 14.8961 19.862C14.8961 19.8965 14.8824 19.9309 14.8548 19.9584C14.841 19.9791 14.8066 19.9997 14.7722 19.9997Z" fill="white"/>
<path d="M9.22064 19.9997C9.21375 19.9997 9.19998 19.9997 9.19309 19.9997C9.1862 19.9997 9.17243 19.9928 9.16554 19.9928C9.15865 19.9859 9.15176 19.9859 9.14488 19.979C9.13799 19.9721 9.1311 19.9653 9.12421 19.9653C9.09666 19.9377 9.08289 19.9033 9.08289 19.8689C9.08289 19.862 9.08289 19.8482 9.08289 19.8413C9.08289 19.8345 9.08977 19.8207 9.08977 19.8138C9.08977 19.8069 9.09666 19.8 9.10355 19.7932C9.11044 19.7863 9.11732 19.7794 9.12421 19.7725C9.1311 19.7656 9.13799 19.7587 9.14488 19.7587C9.15176 19.7518 9.15865 19.7518 9.16554 19.745C9.17243 19.745 9.17931 19.7381 9.19309 19.7381C9.2413 19.7312 9.28263 19.745 9.31707 19.7725C9.32396 19.7794 9.33084 19.7863 9.33773 19.7932C9.34462 19.8 9.34462 19.8069 9.35151 19.8138C9.35839 19.8207 9.35839 19.8276 9.35839 19.8413C9.35839 19.8482 9.35839 19.862 9.35839 19.8689C9.35839 19.9033 9.34462 19.9377 9.31707 19.9653C9.2964 19.979 9.26196 19.9997 9.22064 19.9997Z" fill="white"/>
<path d="M19.7588 9.26149C19.752 9.26149 19.7382 9.26149 19.7313 9.26149C19.7244 9.26149 19.7106 9.2546 19.7037 9.2546C19.6969 9.2546 19.69 9.24772 19.6831 9.24084C19.6762 9.23395 19.6693 9.22707 19.6624 9.22019C19.6349 9.19265 19.6211 9.15823 19.6211 9.12381C19.6211 9.11692 19.6211 9.10316 19.6211 9.09627C19.6211 9.08939 19.628 9.07562 19.628 9.06874C19.628 9.06185 19.6349 9.05497 19.6418 9.04809C19.6486 9.0412 19.6555 9.03432 19.6624 9.02744C19.6693 9.02055 19.6762 9.01366 19.6831 9.00678C19.69 8.9999 19.6969 8.9999 19.7037 8.99302C19.7106 8.98613 19.7175 8.98613 19.7313 8.98613C19.7795 8.97925 19.8208 8.99301 19.8553 9.02055C19.8622 9.02743 19.869 9.03432 19.8759 9.0412C19.8828 9.04808 19.8828 9.05497 19.8897 9.06186C19.8966 9.06874 19.8966 9.07562 19.8966 9.08939C19.8966 9.09627 19.8966 9.11004 19.8966 9.11693C19.8966 9.15135 19.8828 9.18576 19.8553 9.2133C19.8346 9.24772 19.8002 9.26149 19.7588 9.26149Z" fill="white"/>
<path d="M19.7588 15.0085C19.752 15.0085 19.7382 15.0085 19.7313 15.0085C19.7244 15.0085 19.7106 15.0017 19.7037 15.0017C19.6969 14.9948 19.69 14.9948 19.6831 14.9879C19.6762 14.981 19.6693 14.9741 19.6624 14.9672C19.6555 14.9604 19.6486 14.9535 19.6418 14.9466C19.6349 14.9397 19.6349 14.9328 19.628 14.9259C19.6211 14.9191 19.6211 14.9122 19.6211 14.8984C19.6211 14.8915 19.6211 14.8778 19.6211 14.8709C19.6211 14.864 19.6211 14.8502 19.6211 14.8433C19.6211 14.8365 19.628 14.8227 19.628 14.8158C19.628 14.8089 19.6349 14.802 19.6418 14.7951C19.6486 14.7883 19.6555 14.7814 19.6624 14.7745C19.6693 14.7676 19.6762 14.7607 19.6831 14.7538C19.69 14.747 19.6969 14.747 19.7037 14.7401C19.7106 14.7332 19.7175 14.7332 19.7313 14.7332C19.752 14.7263 19.7657 14.7263 19.7864 14.7332C19.7933 14.7332 19.8071 14.7401 19.8139 14.7401C19.8208 14.7401 19.8277 14.747 19.8346 14.7538C19.8415 14.7607 19.8484 14.7676 19.8553 14.7745C19.8622 14.7814 19.869 14.7883 19.8759 14.7951C19.8828 14.802 19.8828 14.8089 19.8897 14.8158C19.8966 14.8227 19.8966 14.8296 19.8966 14.8433C19.8966 14.8502 19.8966 14.864 19.8966 14.8709C19.8966 14.8778 19.8966 14.8915 19.8966 14.8984C19.8966 14.9053 19.8897 14.9191 19.8897 14.9259C19.8897 14.9328 19.8828 14.9397 19.8759 14.9466C19.869 14.9535 19.8622 14.9604 19.8553 14.9672C19.8484 14.9741 19.8415 14.981 19.8346 14.9879C19.8277 14.9948 19.8208 14.9948 19.8139 15.0017C19.8071 15.0085 19.8002 15.0085 19.7864 15.0085C19.7795 15.0085 19.7726 15.0085 19.7588 15.0085Z" fill="white"/>
<path d="M19.8622 12.132C19.8554 12.132 19.8416 12.132 19.8347 12.132C19.8278 12.132 19.814 12.1251 19.8071 12.1251C19.8003 12.1182 19.7934 12.1182 19.7865 12.1113C19.7796 12.1045 19.7727 12.0976 19.7658 12.0976C19.7383 12.07 19.7245 12.0356 19.7245 12.0012C19.7245 11.9668 19.7383 11.9324 19.7658 11.9048C19.7727 11.8979 19.7796 11.891 19.7865 11.891C19.7934 11.8842 19.8003 11.8842 19.8071 11.8773C19.814 11.8773 19.8209 11.8704 19.8347 11.8704C19.8554 11.8635 19.8691 11.8635 19.8898 11.8704C19.8967 11.8704 19.9105 11.8773 19.9173 11.8773C19.9242 11.8842 19.9311 11.8842 19.938 11.891C19.9449 11.8979 19.9518 11.9048 19.9587 11.9048C19.9862 11.9324 20 11.9668 20 12.0012C20 12.0356 19.9862 12.07 19.9587 12.0976C19.9518 12.1045 19.9449 12.1113 19.938 12.1113C19.9311 12.1182 19.9242 12.1182 19.9173 12.1251C19.9105 12.1251 19.9036 12.132 19.8898 12.132C19.8829 12.132 19.8691 12.132 19.8622 12.132Z" fill="white"/>
<path d="M14.7722 4.27019C14.7377 4.27019 14.7033 4.25643 14.6757 4.22889C14.6482 4.20135 14.6344 4.16693 14.6344 4.13251C14.6344 4.09809 14.6482 4.06368 14.6757 4.03614C14.7308 3.98795 14.8204 3.98795 14.8686 4.03614C14.8961 4.06368 14.9099 4.09809 14.9099 4.13251C14.9099 4.16693 14.8961 4.20135 14.8686 4.22889C14.841 4.25643 14.8066 4.27019 14.7722 4.27019Z" fill="white"/>
<path d="M9.22064 4.27019C9.21375 4.27019 9.19998 4.27019 9.19309 4.27019C9.1862 4.27019 9.17243 4.26331 9.16554 4.26331C9.15865 4.25643 9.15176 4.25643 9.14488 4.24954C9.13799 4.24266 9.1311 4.23577 9.12421 4.23577C9.09666 4.20824 9.08289 4.17382 9.08289 4.1394C9.08289 4.13252 9.08289 4.11875 9.08289 4.11186C9.08289 4.10498 9.08977 4.09121 9.08977 4.08433C9.08977 4.07744 9.09666 4.07056 9.10355 4.06367C9.11044 4.05679 9.11732 4.04991 9.12421 4.04302C9.1311 4.03614 9.13799 4.02926 9.14488 4.02237C9.15176 4.01549 9.15865 4.01549 9.16554 4.0086C9.17243 4.00172 9.17931 4.00172 9.19309 4.00172C9.2413 3.99484 9.28263 4.0086 9.31707 4.04302C9.32396 4.04991 9.33084 4.05679 9.33773 4.06367C9.34462 4.07056 9.34462 4.07744 9.35151 4.08433C9.35839 4.09121 9.35839 4.10498 9.35839 4.11186C9.35839 4.11875 9.35839 4.13252 9.35839 4.1394C9.35839 4.17382 9.34462 4.20824 9.31707 4.23577C9.2964 4.25642 9.26196 4.27019 9.22064 4.27019Z" fill="white"/>
<path d="M11.9964 4.27019C11.962 4.27019 11.9275 4.25643 11.9 4.22889C11.8931 4.22201 11.8862 4.21512 11.8793 4.20824C11.8724 4.20136 11.8724 4.19447 11.8655 4.18758C11.8586 4.1807 11.8586 4.17382 11.8586 4.16005C11.8586 4.15317 11.8586 4.1394 11.8586 4.13251C11.8586 4.12563 11.8586 4.11186 11.8586 4.10498C11.8586 4.0981 11.8655 4.08433 11.8655 4.07744C11.8724 4.07056 11.8724 4.06368 11.8793 4.05679C11.8862 4.04991 11.8931 4.04302 11.9 4.03614C11.9482 3.98795 12.0446 3.98795 12.0928 4.03614C12.0997 4.04302 12.1066 4.04991 12.1135 4.05679C12.1204 4.06368 12.1204 4.07056 12.1273 4.07744C12.1341 4.08433 12.1341 4.0981 12.1341 4.10498C12.1341 4.11186 12.1341 4.12563 12.1341 4.13251C12.1341 4.1394 12.1341 4.15317 12.1341 4.16005C12.1341 4.16693 12.1273 4.1807 12.1273 4.18758C12.1273 4.19447 12.1204 4.20136 12.1135 4.20824C12.1066 4.21512 12.0997 4.22201 12.0928 4.22889C12.0722 4.25643 12.0308 4.27019 11.9964 4.27019Z" fill="white"/>
<path d="M4.23419 9.26056C4.2273 9.26056 4.21353 9.26056 4.20664 9.26056C4.19975 9.26056 4.18598 9.25368 4.17909 9.25368C4.1722 9.25368 4.16531 9.2468 4.15843 9.23991C4.15154 9.23303 4.14465 9.22615 4.13776 9.21926C4.11021 9.19173 4.09644 9.1573 4.09644 9.12288C4.09644 9.116 4.09644 9.10224 4.09644 9.09535C4.09644 9.08847 4.10332 9.0747 4.10332 9.06781C4.11021 9.06093 4.11021 9.05405 4.1171 9.04716C4.12399 9.04028 4.13087 9.0334 4.13087 9.02651C4.16531 8.99209 4.21353 8.97832 4.25485 8.99209C4.26174 8.99209 4.27552 8.99897 4.2824 8.99897C4.28929 9.00586 4.29618 9.00586 4.30307 9.01274C4.30995 9.01963 4.31684 9.02651 4.32373 9.02651C4.33062 9.0334 4.3375 9.04028 4.3375 9.04716C4.34439 9.05405 4.34439 9.06093 4.35128 9.06781C4.35817 9.0747 4.35817 9.08158 4.35817 9.09535C4.35817 9.10224 4.35817 9.116 4.35817 9.12288C4.35817 9.1573 4.34439 9.19173 4.31684 9.21926C4.30995 9.22615 4.30307 9.23303 4.29618 9.23991C4.28929 9.2468 4.2824 9.2468 4.27551 9.25368C4.26863 9.26057 4.25485 9.26056 4.24796 9.26056C4.25485 9.26056 4.24108 9.26056 4.23419 9.26056Z" fill="white"/>
<path d="M4.23394 15.0105C4.22706 15.0105 4.21328 15.0105 4.20639 15.0105C4.19951 15.0105 4.18573 15.0036 4.17884 15.0036C4.17196 14.9967 4.16507 14.9967 4.15818 14.9898C4.15129 14.9829 4.14441 14.9761 4.13752 14.9692C4.10997 14.9416 4.09619 14.9072 4.09619 14.8728C4.09619 14.8384 4.10997 14.804 4.13752 14.7764C4.17196 14.742 4.22017 14.7282 4.2615 14.7351C4.26838 14.7351 4.28216 14.742 4.28905 14.742C4.29593 14.742 4.30282 14.7489 4.30971 14.7558C4.3166 14.7627 4.32348 14.7695 4.33037 14.7764C4.35792 14.804 4.3717 14.8384 4.3717 14.8728C4.3717 14.9072 4.35792 14.9416 4.33037 14.9692C4.32348 14.9761 4.3166 14.9829 4.30971 14.9898C4.30282 14.9967 4.29593 14.9967 4.28905 15.0036C4.28216 15.0036 4.26838 15.0105 4.2615 15.0105C4.25461 15.0105 4.24083 15.0105 4.23394 15.0105Z" fill="white"/>
<path d="M4.13086 12.132C4.12398 12.132 4.1102 12.132 4.10331 12.132C4.09643 12.132 4.08265 12.1251 4.07576 12.1251C4.06888 12.1182 4.06199 12.1182 4.0551 12.1113C4.04821 12.1044 4.04133 12.0975 4.03444 12.0975C4.02755 12.0907 4.02066 12.0838 4.02066 12.0769C4.01378 12.07 4.01378 12.0631 4.00689 12.0562C4.00689 12.0494 4 12.0425 4 12.0287C4 12.0218 4 12.008 4 12.0012C4 11.9943 4 11.9805 4 11.9736C4 11.9667 4.00689 11.953 4.00689 11.9461C4.01378 11.9392 4.01378 11.9323 4.02066 11.9254C4.02755 11.9186 4.03444 11.9117 4.03444 11.9048C4.08265 11.8566 4.17908 11.8566 4.22729 11.9048C4.23418 11.9117 4.24107 11.9186 4.24796 11.9254C4.25484 11.9323 4.25484 11.9392 4.26173 11.9461C4.26862 11.953 4.26862 11.9599 4.26862 11.9736C4.26862 11.9805 4.26862 11.9943 4.26862 12.0012C4.26862 12.0356 4.25484 12.07 4.22729 12.0975C4.20663 12.1182 4.1653 12.132 4.13086 12.132Z" fill="white"/>
</svg>
