<svg width="24" height="24" viewBox="0 0 24 24" fill="none" xmlns="http://www.w3.org/2000/svg">
<rect width="24" height="24" rx="12" fill="#FC3B2D"/>
<path d="M7.402 12.69H7.416V9.89H8.781V15H7.416L5.89 12.2H5.876V15H4.511V9.89H5.876L7.402 12.69ZM13.022 11.85V12.9H11.202V13.88H13.162V15H9.80202V9.89H13.162V11.01H11.202V11.85H13.022ZM17.0625 11.29H17.0485L16.5305 15H14.9205L13.8355 9.89H15.2495L15.7675 13.6H15.7815L16.2295 9.89H17.9095L18.3575 13.6H18.3715L18.8895 9.89H20.2755L19.1905 15H17.5805L17.0625 11.29Z" fill="white"/>
</svg>
